<svg xmlns="http://www.w3.org/2000/svg" viewBox="0 0 1587.6 572.7"><polygon points="590.8 419.8 587.2 420.1 587.9 423.6 594.2 424.4 597.1 424.2 596.7 423.2 "/><polygon points="577.1 422.4 576.7 422.6 576.9 421.7 584 427.7 582.4 424.4 "/><polygon points="605 421.5 602.8 423 604.5 422.3 606.8 424.8 608.7 425.2 607 424.2 "/><polygon points="578.3 419.4 578.4 416.1 575.4 417.5 576.8 419.4 "/><polygon points="599.7 419.4 601.3 420.3 603.4 422.3 602.6 420.3 "/><polygon points="1026.2 215.5 1026.3 210.1 1020.3 210.1 1021.3 211.5 "/><polygon points="1110.3 331.6 1113.4 330.6 1113.7 328.4 "/><polygon points="1031.6 205.8 1031.7 205.3 1026.2 203.8 1026 207.4 "/><polygon points="638.7 371.2 639 363.1 639.8 363.2 638.1 342.2 637.4 337.3 634.7 333.1 625.1 317.7 614.5 302.2 613.5 299.6 607.5 299.9 606.2 295.3 607.7 294.3 600 287 592.3 283.3 590.4 282.4 575.6 277.7 559.2 269 541.5 263.5 523 264.3 504.3 265.7 502.5 267.7 480.9 280.7 476.3 279.6 463.2 287.6 483.7 302.4 489.8 322.9 481.8 340.6 476.4 358.8 471.1 377 463.7 393.8 464.9 396.2 463 399.1 464.1 400.9 464.6 409.2 461.4 410.3 463.1 412.3 487.6 412.6 488 410.4 493.7 409.3 493.6 410.6 497.4 409.9 499.5 410.8 499.1 406.7 514.5 411.1 515.7 406.4 520.7 410.7 523.6 408.5 534.6 406.6 536.3 407.2 536.2 407.1 539.9 407.2 540.6 408.1 543.1 405 547.4 406.2 550.2 404.6 551.8 404 555.7 405.8 559 401.8 564.3 406.4 572 399.8 577 400.2 577.4 400 578.9 400.1 586.4 401.2 591.1 399.3 592 397.5 592.9 397.3 593.8 397.9 595.1 399 614.2 396.1 614.8 391.9 623.2 385.2 628.8 384.6 637.2 374 641.1 376.2 640.8 371.3 637.9 371.1 "/><polygon points="826.7 269.9 822.9 269.7 809.7 283.9 796.2 297.8 782.1 311.2 769.5 326 759.7 342.9 762.4 344.5 780.1 339 797.8 333.8 816.4 332.6 833.6 325.4 851.2 320.9 851.4 316.7 842 301.6 836 284.7 "/><polygon points="524.4 418.7 524.1 420 525.7 419.9 526.1 421.1 525.5 419.2 525.7 419 "/><polygon points="526.1 418 533.5 419.2 535.1 420.9 535.2 419.2 528.6 415.5 "/><polygon points="518.8 413.5 520 415.3 522.3 415.4 521.5 414.2 "/><polygon points="568.6 421.6 568.3 423.6 567.6 422.7 "/><polygon points="540.7 411.6 541.5 413.4 544.2 413.9 543.5 410.4 "/><polygon points="563.5 419.3 560.6 419.9 560.5 423.1 564.6 423 "/><polygon points="547.2 419.3 547.3 418.3 550.6 420.1 549.9 417.3 "/><polygon points="562.5 424.1 564.2 424.2 563.8 424.5 "/><polygon points="562.4 411.1 557 411.2 557.9 413.8 559.3 413.4 561.8 413.1 "/><polygon points="569.7 413.7 570.5 414.7 572.7 413.6 573.2 413.7 "/><polygon points="1154.8 392.8 1155.6 389.6 1156.9 387.2 1149.4 389.4 1150.9 391.7 1157.5 391.7 1160 392.7 1159.8 390.4 "/><polygon points="1353.8 319.6 1353.6 319.9 1355.2 320.2 1355.3 318 "/><polygon points="1164.5 387.5 1163.7 383.5 1158.9 385 1159.4 386.1 "/><polygon points="1149.7 397.6 1149.5 397.7 1152 397 1152.3 396.9 "/><polygon points="1139 398.2 1139.2 400.1 1144.5 399.9 1143.9 396.2 "/><polygon points="1381.4 319.3 1378 320.4 1377.5 321.5 1382 320.5 "/><polygon points="1379.2 279.3 1382.7 279.1 1381.9 277.8 1379.8 277.1 "/><path d="M1585.4 321.7l-5-2.4 -3-3.6 -7.1 4.5 -7.7 1.9 -8.4-1.7 -6.5-2.4 21-8.5 10.4-6.5 5.5-6.3 1-7 -3.6-8.8 -7.7-7 -9.6-11.8 -12.6-8.3 -16.4-6.8 -16-10.4 -20.9-9.6 -19.9-6.9 -19.9-5.8 -17.5-5.2 -11.2-1.2 -14.7-8.1 -18.6-5.5 -19.1-2.9 -19.4-4 -16-5 -24.3-4.7 -23.3-4.1 -15.4-5.4 -15.7-4.6 -26.7-3.7 -18.1-2.5 -18.2-1.9 -18.2-5 -19 0.7 -17.1-2.7h-17.4l-15.8-0.7 -15.7-2.7 -15.8-0.4 -15.8-2.2 -15.8-0.1h-15.8l-15.8 0.1 -19.6-1 -19.5-1.8 -10.8 0.1 0.9-2.7 -9.3-9.4 -11.2-8 -11.5-13 -14.2-10.2 -11-13.6 -11.2-11.4 -11.9-10.8L876 51.5l-10.3-10.8 -12.3-8.5 -17.8-16.4 -14.5-8.6 -16-7.8v2.1l-2.6-2.1L795 11.6l5.5 7.2 -0.2 7.9 -14.3-3 -5.8 6 -11 9.8 -3.9 5.1 -2.1 6.4L749 66l-12 13.8 -2.8 5 12.2 9.9 -21-5.2 -5.5 13.4 -12 10.1 -14 12.6 -16.5 13.5 -1 6L673 149l2.3 2.8 13.3 4.5 14 2.8 17.9 7.4 19.6 3.4 -18.9 4.4 -17.4 0.1 -16.7 4 -16.4 1.6 -16.1 3.3 -16 4.2 -16.5 0.7 -18.5 4.9 -18.8 3.2L566 196l-17.7 5.6 -18.2 2.4 -17.9 3 -18.2 0.6 -18 2.4 -17.6 3.1 -17.9 1.6 -4.8 1.5 0.7-0.5 -14.3-4.1 -20.3-6.3 -16.5-3.3 -14.1-3.4 -12.8-1.4 -15 3.5 -11 3 -4.1 8.2L328 218l5.9 4 11.9 2.7 13.8 1.2 6.3 7.5V233l-14.3 1.5 -15.5-0.1 -14 2.9 -14.2-3 -17.9 2.1 -23.4-4.1 -17.6-5.5 -19.5-3.6 -17.6-8 -0.4-0.3L198 202.5l-15.3-9.7 -15.1-8.3 -15.8-6.8 -18.6-9.3 -18-11L95 152l-20.2-5.7 -16.5-5.8L41 138.6l-12.9 1.7 -7.3 3.9L20.7 155v6.4l-4.6 13.9 4.5 15.4 -3.2 18.8 3.8 9.8 7.9 3.4 -8 4.7 -0.4 8.8 7.4 15.3 1.4 13.4 2.7 8 11.2 5.3 -6.8 6.3 6.6 8.9 -2.6 13.1 -5.4 17.3 -6.8 17 2.1 5.3 10.2 4.6L24.5 358l-6.2 13.2L14 383.7l-4.7 14.4 -0.5 11.5 -3.7 12.7 -4 9.1 18.3-0.6 18.7 0.1 15.5 0.4 15.1-3.6 15-3.5 16-0.3 14.2-7.6 15.9-1.5 14.2-7.2 15.5-3.4 13.9-4.1 13.3-5.7 17.6-4.9 17.4-5.8 3.9-0.9 23.5-5.8 -2.2-1.4 11.2-1.6 16.5-3.4 16.8 0.1 20.3 1.2 20.6-2.6 17.3 2.2 17.3 2.6 15.2 6.5 14.6 7.5 -9.9-4.6 -10.1 3.8 -9.1 5.9 -8.9 1.3 -7.1-2.3 -6.4 4.3 -1.5 12.3 -0.4 20 1.7 17.6 3.6 17.2 4.8 17.1 5.7 19.8 2.2 9.7 3.6 3.4 3.1 7.7 2.9 4.2 4.8 3.3 7.2 3.8 10.1-5.2 19.7-8.3 19.9-8.5 23.2-11.1 21.1-10.2 18.2-10.2 12.4-5.7 12.5-5.6 17-12 15.7-5.7 12.3-8 13-5.7 14.5 1.1 14.3-0.2 15.9 1.9 16 1.5 15.8 2.9 16.1-0.2 16.3 2.2 16.5 0.7 16 4.8 22.1 0.4 21.7 2.8 8.1 2.6 -1.4 2 -8.6 3 -3.4 5.7 1.7 7.7 -2.9 21.8 -4.4 0.7 0.8 16.8 -5 12.5 -2 13.6 -1.2 17.5 2.9 6.2 3.3 5.7 6.9 2.5 7-2.1 22.1-15.2 10.1-13 12.2-10.6 11.2-11.6 12.3-10.5 5.8-6.9 6.1 7.7 1.9 6.7 4.9 3.3 6.8 1.9 5.2-3.3 6.8-8.8 4.5-10.3 7.9-5 7-10.3 6.5-14.8 0.1-1 15.3 3.2 15.6-0.9 18.1 0.4 18.2 1.4 18.1-2.4 18.2 0.7 18.4-2.3 18.7 1.2 18.2-4 21-0.8 20.7-3.2 21-1.4 15.8-3.6 15.9-3 15.9-2.8 1.3-0.2 0.8 18.6 1.7 23.5 1.8 14 3.2 9.8 7.2 4.5 4.5-2.1 7.7-2.5 16.7-16.2 12.5-15.1 12.9-14.8 11-18.5 11.9-17.8 5.9-4.8 16.1-3.9 16.3-4.1 16.2-4.2 16.5-3.1 16.3-3.8 21.1-8.3 22.9-2.5 0.2-0.8 -0.5-0.4 15.9-1 24.2-6.3 15.1-4.5 15.3-4.1 19.1-2 18.5-4.5 17.9-6.9 15-2.5 14.5-4.6 13.6-8 12.8-9 13.3-10.4 2.7-7.7L1585.4 321.7zM416.4 423.5l-2.6 1 0.6-3.9 5.7-1.5L416.4 423.5zM451 425.4l-11.5-2.3 -0.1-1.1 -1 2.8 -6.9-2 0.3 1.5h-1.1l-2-1.5 -0.6-0.3 1.8-2.6 -3.9-1.2 0.8 1.3 -0.8 3.2 -5-1.2 0.2-0.2v-4.1l4.8 1.3 -0.5-3 0.5-0.1 15.6 4 0.5-2.1 1.5-0.9 6 7.3 1.6 0.5L451 425.4zM427.8 414.3l0.5-2.4 6.6 4.2 0.7 2.1 -2.3 0.4 -4.8-2.7L427.8 414.3zM492.5 421.5l-3.2 0.4 1.1-1.1 2.9-3.2 1.6 3.6L492.5 421.5zM514.8 424.2l-2.3 0.6 2-1.8 -0.7-2.6 3.2 1.2 -0.3 2L514.8 424.2zM673.7 402l-1.6 1.5 -1.1-3.4 -1.1 4.6v-1.1l0.2 1.5 -5.2 4.4 -0.9 0.3 -9.4 5.3 -20.9 10.5 -12.5 1 -2 2.7 -2.6 0.2 -14.7-2 -14.5-2.6 0.4 1.1 -1.1 1 -5-0.1 -3.5-2 -2.3 0.9 0.9 2.5 -7.8-1.7 -17.7-3.8L551 425l5.6-1.8 0.7 0.5v-1.8l-8.3-0.2 -2.5 1.7 -0.1-0.1 1.7 0.5 0.2-0.7 -1.1 1.7 -5.3-0.7 -4.9-7 0.6 3 -0.7-0.6 3.7 2.9 -1.7 2.4 -1.7-0.6 -9.5-1.9 -4.5 0.8 1.1 1.1 -0.5 1 -1.9-0.5 -1.1-1.1 2.9-1 0.1 0.5 -5-1 1.2-1.8 -2.8-4.6 2.1-3.4 -2.7 2.2 -1.7 4.3 -7.9-0.7 -0.9 1.1 2.8 2.9 -3.9 0.1 -2-2.3 3.6-1.6 -3.2-1.6 0.1-0.1 -0.3-2.8 1.6-0.7 -1.4 1.7 -10.8 4.4 -2.2-0.1 -5.6-2.4 -0.3-1.7 -0.2 0.6 2.1 2.8 0.1-0.2 -1.8 0.5 -3.3-1.7 -3.3-2.2 -4.7 3.3 -1.8-4.7 -4.5 5.1 -1.6-4.5 -1 1.8 -0.2 1 -0.8-0.5 -4 6.9 -8.4-5.6 -12.2-2.6 -0.1-2.1 9.5 2.1 1.1-2.1 -0.3-0.5 -4.4-16.2 -6.4-15.2 1.8-2.2 -5.3-11.4 -0.8-0.6 0.6-0.5 -2.3-12 1.1-16.2 7.1-14.6 2.9-15.8 7-13.5L438 302l-15.6 9.2L406 318l-16.4 0.2 -14.9-5.9 -5.3-15.7 -0.6-0.7 0.1-0.2 4-17.1 -2.1-7 7.3-13.1 13.6-5.9 14.4-4.3 16.6-1.5 16.2-2.9 16.3-2.3 16.4-3.2 16.2-4.2 16.2-4.7 16.9 1.5 17.5-2.5 17.6 1.3 16.9 5.2 19.9 5.1 16.3 12.7 14.9 5.8 -0.2 1.9 -1.4 2.3 13.6 8.4 13.4 8.6 9.4 11.9 4.5 13.5 8.2 11 0.4 1.8 1.2 0.8 0.7 2 7.1 14.8 1.4 13.7 1.1 14.1 -4.8 21.9L673.7 402zM840.9 421.7l-6.2 1 0.9-2.1 5.7-2.3L840.9 421.7zM848.8 423.3l8.9-1.1 18.5 8.5 0.6 3.6 -15.1-3L848.8 423.3zM1386.8 283.4l1.1 0.6 -2.2-1.2 -2.4 4.4 2 1.5 -3.3 1.4 -0.3 0.8 1.6 2.2 -6 7.5 -1.8 0.6 1.8 8.6 2-1 -0.7-3.1 4.9 0.7 -0.3 4.1 0.2 1.6 0.2 0.3 -0.7 1.4 -1.8 1.4 0.6 1 4.4 0.6 -7.8 4.4 5.4 4 1.5 1.1 -3.9 3.2 0.1-2.9 -2.5-0.7 0.8 1.9 4.8 12.2 7.6 24.1 -8.1 7.2 -3.2 5.7 -3.6 1.3 -15.4 1.4 -15.7-3.2 -15-6.1 14.6-17.1 -3.5-2.4 3.6-9.5 -0.1 0.1 -0.4-1.3 3.8-1.3 -2.2-0.8 -0.3-3.8 1.7-1.8 -3-0.1 -0.5-3.8 6.3-11.8 -4.4-3.7v-3.4l6.3-4.3 -6.6 2.1 -3.2 1.6 5.9-9.9 -2-1.3 -0.1-1.3 -14.1 7 -15.3 3.3 -3.8 1.5 -13.7 1.7 -13 4.2 -1.4-0.5 -0.8 2.7 -25.4 2.1 -8.3 3.2 1.6 2.9 -1.7 4.6 2.7 0.8 -3.3 6.3 2.8 15.8 1.5 4.4 -5.3 13.7 2.1 0.7 -3.2 2.5 6.2 2.3 1.7 3.7 -4.2 7.4 5-0.7 -2 2.4 -0.4 5.7 0.1 1.3 2.4 0.5 -2.1 6.3v12.3l-4.2 3.4 -1.6-1 -1 2.8 5.5-2.3 0.3 5.9 -4.5-2h1.6l-0.5-2.9 -10.3-17.7 -7.4-22.2 3.3 0.9 1.5-1.8 4.3 1 -14.3-15.4 -2.2-2 3.5 0.6 5.3 1.8 2.2-1.7L1223 357l-8-12.7 6.4-4.5 -2.4-1.6 -0.1-1.2 3.1-0.3 -1.1-2.9 -2.2 1.8 -7.3 2.7 -6.7-17.1 2.3-1.9 0.3 0.2 -16.1-1.1 -16-2.4 -16.8-2.2 12.9 10 8 11.6 8.9 11.3 1.3 0.1 -2 1.6 -0.7 1.4 6.7 0.7 -5.1 1.6 2.1 2 4.2 2.8 -3.4 0.2 3.6 1 1.9 1.6 -9.2 14 0.9-5.2 -4 0.6v2.6l4.5 5 -13.5 17 -17.8 12.4 -9.4 11.4 -14 6.2 -7.8-1.9 -6.5 4.8 4.1-0.3 -0.6 3.7 -9.3 5.1 -2.8-0.3 -11.6-1.2 -15.5 8.1v2.6l13.5-3.7 -0.5 0.5 -6.4 2.5 -11 5.3 0.9-3.4 1.2-3.5 -7.1 1.9 -5.8 6.8 -2.6-3.2 -1.4 2.6 -16.3 6.8 -6.5-2.8 -3 0.3 1.9 2.2 0.8 0.1 -1.7 3.5 -13.1-2.3 1.8 0.7 0.4 0.9 -12.6-1 -2.1 1.6 -20.4-2.3 -2.3 1.4 -0.1-2 -2.7-0.8 -4.3 1.7 -10.4-0.1 -10.1-3 -3.5 3.3 1-2.1 4.8-1.9 0.4-0.6 -3-1 -7.5 1.9 2.8-0.5 -0.6-2.3 -8-0.8 -0.2 2.4 -4.9 0.8 -13.3-5.4 -14.1-1.8 -18.2 1.8 -4.2-9.5 -4 1.4 -0.5-2.7 0.6 1.2 -7.5-15.6 -7.4-15.9 -11.4-13.4 -11-13.7 -15.9-7.8 -15.4-7.1 -16.7-4.9 -16.2 0.8 -16.8-1.3 -16.6 3 -15.5 6.1 -12.2 10.4L724 395l-10.6 12L703 418.3l-13.3 8.5 -5.1-1 -0.6-5 8-18.4 11.7-16.1 7.6-18.5 9.7-15 10.2-14.7 9.2-15.3 10.8-14.3 9.6-15.1 11.2-14 11.2-14 9.1-15.4 12.1-12.8 9.6-14.8 7.9-15.9 10.8-14.1 19.7 1.9 14.2 13.8L877 225l6.8 16.2 8.9 15.2 6.6 16.2 7.5 15.9 3.3 17.5 8.2 15.7 5.7 16.6 3.7 17.2 7.6 16.2L934 391l-0.3 18.7 -0.1 19.1 -12.1 15.9 24.3 5 2.7-2.1 16.8 4.2 17.1-0.2 2.2 0.1 2.4 0.2 7.5 2.9 -0.4-3.1 6.7 3.7 4.3-1.2 -4.7-0.8 0.6-2.5 15.4-2 0.1 2.3 2-2.6 10.5 1.5 10.5-6.7 0.2 1.7 13.4-1.6 13.4-3.7 -0.6-5 -1.9 3.7 -2.8-1.4 -2.1-0.8 -0.1-0.9 1.2-3 2.7 1.3 17.9-3 -2.8 0.8 1.2-1.6 0.7-3.7 3 0.3 2.6 0.4 2.9 2 12.5-8.7 3.1 2.4 14.9-12.1 7.3 1.2 -0.1-3 -3.6-10.1 7.4 3 21-11.7 -1.2-4.6 -5 2 -1.2-5 8.1-1.2 -3.9-4.5 4.6-2.2 0.6 0.2 -4.2 0.3 -0.9-8.5 2.6-1.1 -1.6-2.1 -12.6-7.5 -8.7-11.5 3.8-3 -0.7-2.1 -2.1 2.2 -4.6-0.4 -15.2-7.1 -16.2-4.6 -16-4.7 -14.4-4 -1.7-2.8 5.2 0.5 -0.3-1 -9.2 0.4 3.5 0.2 -0.8 1.4 -15.8 3.1 -12.8 9.8 -13.7 8.4 -11.2 10.8 -12.9 6.3 -15.9-3.9 -14.9-8 -14.5-8.6 -14.6-10.3 3.1-15.1 -6.6-22.9 -2.9-4.9 16.6-8.7 16.8-4.3 4.6-19.1 7.6-18.6L980 215l0.2-2.2 11-12.9 14-9.2 15.1-8.1 17.5-2.5 17.6-1.5 17.6-0.3 17.6 1.2 18.1 4 18.5 1.5 18.6-1.2 15.5 12.8 12.8 15.8 4.2 20.1 2 7.2 -10.5 8.2 -14.1 1.3 -18.3-7.9 -18.2-8.2 -19.5-4.7 -18.9-5.5 -18.4-2.6 -19.2 1.1 -0.3-5.3 15.1 1.3v-3.6l-5.9 0.1 -7.1 1.7 -3.2-2.4 -11.8-0.7 2.5 1.2 2.3 4.4 -5.8 1 -3.1-0.8 -0.8-1 -12.3 3.9 -2.2-4.3 -5.4 0.9 -0.6 3.4 5.9-1 0.3 4.7 -12.6 10.9 -1.8-1.5 2.8 1.5 -0.1 4.1 -13 8.3 5.3 2.2 -2.2 4.8 -3.3 11 3.2 1.8 10.4-2.9 20.5 3.4 1.5-3.5 3.2 1.3 0.2 1.6 2.3 0.7 1.4-0.8h3.9l2.3 3.4 1-5.1 2.7 2.1 10.4 3.6 2-2.9 4.2 1.8 -1.2 5 2.4-2.6 14.7 1.8 2 3.9 3.9-2 14.8 3.9 14.5 5.2 12.8 9.3 13.3 4.2 13 7 17.9-7.4 18.2-1.6 17.2-0.3 -3.4-5.2 2.2 0.3 -1-1.4 -4.6-16.5 3.5-4.7 -5.8-18.3 -4.3 0.6 -2.2-10.6 -0.7-7.3 -2.3-17.7 1.6-18.3 10.5-15.4 18.2-2.5 8.6-8.4 8 17.1 4.8 17.2 6.2 16.7 3.5 17.5 -0.4 19.7 1.1 19.8 6.3 2.8 -4.4 9.3 3.8 5 -1.1 1.7 17.5 1.1 17.3-2 17.2-3 17.3-2.1 14.9-4.3 15.8-0.9 -1.4-4.2 5.8-2.4 -2.3-4.2 1.7-10.2 -1.4 0.2 2-1.5 1.3-4.7 -4-3 2.3-0.5 -0.5-0.4 2.5-13.8 -3.7-3.1 1.4-1.2 -5.2-12.5 4.6-2 -7.4-16.8 14.4-12.3 17.8 3.4 17.6 3.9 6.2 16.5v18l-10.9 14 3.2 1.7 -3.5 20.2 1.6 0.3 -3.1 4.5 2.3-0.1 3.8-2.7 18.8-1L1386.8 283.4zM1386.2 295.6l1.3 2.1 -4.5 1.3 -3.9 3.4 -0.5-4.8 5.1-2.2L1386.2 295.6zM1036.4 231.1h-6.4l1-4.4 5.4-1.1V231.1zM1452.7 319.1l-6.6 17 -1.6 0.6 -0.5 5.3 1.7-1 -1.6 8.1 -2.7 2.1 0.4 1.7 -4 9.1 -9.8-9 -7.6-13.3 -6.1-14.1 -0.1-1.7 -2.3-11 1.5-0.8 -3.4-0.2 2.3-11.5 4.4-16.9 7-16 8.3-15.5 9.9-14.6 4.3-0.8 12.9 9 10.1 11.3 6.4 17 -8.3 15 -8.7 14.3L1452.7 319.1z"/><polygon points="1377.4 291.7 1380.7 291.3 1380.6 287.6 1378.6 290.1 "/><polygon points="1140.2 350.7 1140.2 353.3 1143.7 351.4 1144.4 349.7 "/><polygon points="1085.8 435.3 1086.3 437.2 1090.6 436.1 1090.3 436.5 "/><polygon points="1014.9 458 1015 455.9 1025.3 458 1025.2 454.9 "/><polygon points="1132.2 403.4 1132.8 407.8 1139.4 403.8 1139.5 404.7 "/><polygon points="1046.8 447.4 1046.2 447.2 1045.3 453.3 1053.3 453.3 1056.5 452.8 1055.4 449.2 "/><polygon points="1104.2 430.8 1102.7 432.3 1102.4 432.5 1109 431.5 1110.9 431.7 1111.5 429.8 "/><polygon points="1144.8 354.2 1146.1 356.9 1147.7 357 1147 354.5 "/></svg>
