<svg xmlns="http://www.w3.org/2000/svg" viewBox="0 0 1587.6 572.7"><polygon points="654.7 412.7 652.2 410.5 649.9 410.1 652.5 411.9 "/><polygon points="643.9 413.5 643.9 413.9 645.5 414.7 "/><polygon points="647.4 414.5 649.8 414.5 646.3 412.5 "/><polygon points="659.3 414.9 659.1 416.4 663.1 418 664.9 416.9 666.1 415.4 661.5 412.5 "/><polygon points="649.7 407.7 647.1 406.6 648.3 407.6 650.9 409.4 "/><polygon points="652.9 412.8 652.5 414.8 651.1 416.2 657 417.6 655.8 416.1 "/><polygon points="851.9 273.6 848.3 273.2 848.4 277.7 848.8 279.3 848.4 280.6 848.5 281.2 848.6 280.9 "/><polygon points="688.8 366.3 688.4 359.7 686.5 357.4 681.7 333.5 682.7 327.3 680.5 321.9 671.7 305 660.4 289.7 661.1 285.1 658.1 284.5 656.6 279.9 656.1 280.1 651.5 271.9 645.6 267.4 647.3 262.8 637.6 260.3 619.8 247.3 600.5 245 598.2 244.3 589.7 255.3 588.4 256.1 582.7 263.6 586 271 591.7 283.3 596 307.3 591.8 327.6 590 348 589 368.5 587.6 387.3 585.4 388.9 587.4 394 587.2 393.5 586.1 401.8 585.7 403.9 586.5 405 599.9 405.3 600 403.2 603.2 403.2 602.9 402.1 605.6 404 606.2 402.3 606.1 399.9 614.9 403.4 615.7 401.1 618.4 400.8 619.6 399.1 626.6 400.6 628.5 400.7 627.5 398 630.9 398.6 630.5 402.3 631.1 398.1 633.9 399.2 635.8 397.8 635.9 398.7 639 399.2 640.8 396.5 645 397.6 649 395.1 651.6 393.6 651.8 394.7 652.6 394 657.1 394 660.2 394 661.1 391.5 661.9 392.8 662.3 392.2 674.9 391.4 675.2 387.9 679.9 381.3 682.7 380.4 688.3 370 688.6 369.9 689 367.2 688 365.7 "/><polygon points="965.1 324.5 962.4 320.9 961 319.9 961.1 320 963.4 323.6 "/><polygon points="851.6 266.8 848.5 259.6 848.3 262.2 849.9 266.3 "/><polygon points="623.5 411.2 626.2 414.2 626.6 412 626.8 411.9 622.7 406.6 623.4 410.5 624 410.8 "/><polygon points="854.6 417.4 857.3 420.6 857.7 420.8 857.7 420.4 855.8 418.5 "/><polygon points="629.4 404.5 630.8 405.4 633 407 631.6 405.6 "/><polygon points="617.3 406.5 617.3 406.5 618.3 407 620.4 408.5 618.9 407.2 "/><polygon points="616.7 406.2 617.3 406.5 617.3 406.5 "/><polygon points="671.7 418 670.7 414 669.1 415.6 669.9 416.6 669.1 415.7 668.1 416.7 670.1 417 671.3 419.5 671.5 419.5 672.1 418 "/><polygon points="623.5 411.2 623.5 411.2 623.4 410.5 621.9 409.9 621.4 411.7 619.5 412.6 619.4 413.1 621.5 413.2 "/><polygon points="633.2 410.1 634.4 411.2 637 412.6 635.8 411.1 "/><polygon points="643.3 413 640.7 411.2 643.4 413.7 643.5 413.7 643.7 413.3 "/><polygon points="643.9 413 643.7 413.3 643.9 413.5 "/><polygon points="641.9 416.5 643.9 415.3 643.9 413.9 643.5 413.7 "/><polygon points="641.2 408.8 642.7 406.4 642.5 406.7 639.5 404 641.1 406.2 "/><polygon points="864.7 351.1 866.2 347.9 861 348.5 "/><polygon points="668.6 415 668.2 414.7 669.1 415.7 669.1 415.6 "/><polygon points="975.5 399 978.1 402.4 979.7 403.2 976.9 400 "/><polygon points="1080.8 265.5 1073.6 248.6 1072.7 248.4 1063.9 264.5 1053.6 280.1 1046.2 297.2 1039.8 314.6 1032.6 332 1035.9 332.5 1053.5 322 1072.4 314.2 1090.9 306 1091.8 301 1084 284 "/><polygon points="863.9 323.3 866.5 327.2 868 327.9 865.2 324.1 "/><polygon points="965.5 332.9 962.7 329.3 961.9 328.6 961.8 328.8 964 332.1 "/><polygon points="1148.1 277.4 1148.5 277.3 1149.5 278.8 1148.4 276.3 "/><polygon points="1270.8 339.3 1273 338.6 1273.2 336.7 1272.1 338 "/><path d="M1581.1 317.9l-3.8-1.9 -7.3 3.3 -7.4 3.3 -8.2-3.7 -6 0.1 19.7-10.5 11.4-4.7 5.6-6.6 -0.7-7.2 -3.6-8.3 -6.7-7.5 -10.7-10.5 -10.9-10.8 -16-7.7 -16.7-9.2 -22-6.9 -19.2-8.7 -19.4-7.4 -17.6-5.4 -11.4-0.3 -15-7 -18.8-5 -18.2-6.4L1358 188l-16-5.3 -24.4-4 -22.4-7.7 -16.4-1.7 -15.8-3.4 -26.7-3.9 -17.7-4.5 -18-3.4 -19 0.4 -18.3-4.7 -17.4 0.3 -17.3-1.7 -15.7-1.5 -15.8-2.5 -15.8-1.8 -15.9 2 -15.8 0.9 -15.8-1.1 -15.8-0.2 -19.5-2.8 -19.6-1.2 -10.8-1.7 -0.4-0.7 -7.9-10.1 -9.6-9.6 -12.8-11.6 -14.1-10.4 -13.2-11.2 -11-11.7 -11-11.6L877.8 49l-12.4-8.4 -10.7-10.5 -20.5-12.9L820.9 6.3l-16.4-7.2 -0.2 0.4L801.5-1l-10.2 12.9 8.5 7.3 -1.6 6.4 -12.9-3.9 -4.9 8.2 -12.7 8.4 -0.8 7 -3.1 6.2L748.7 66l-13.2 13.1 1 5.2 9.5 10.4L725.9 91l-8.2 10.5 -9 12.7 -14.2 12.6 -19.2 11.4 2.4 7.6 -5.6 3.4 3.9 1.5 12.2 7.2 14.3 1.5 18.2 5.8 19 4.3 -18.9 3.7 -16.9 2.8 -16.9 2.7 -16.4 1.1 -15.9 4.7 -16.1 3.6 -16.5 1 -18.8 3.1 -19.2 1 -17.9 3.9 -18.1 2.8 -18.2 2 -17.6 5.4 -0.5 0 10.9 14.3 3.8 18.8 1.7 19 -8 9.1 -13.6-6.3 -19.7-2.2 -19.8 2.1 -17.7 9.5 -13 15.3 -8.7 18.1 2.5 3.2 20.1 4.7 16.2 5 16.5 3.3 16.7 1.1 16-2.1 11.8-10.3 6.7-5.2 9.9 14 -4.5 19.1 -8.9 16.4 -2 1.4 -16.6-0.2 -16.1-4.2 -16.8-1.1 -16-4.9 -14.9-7.7 -15.2-8 1 4.8 9.9 14 10.4 13.8 14.1 10 14.9 8 16.5 4.7 18.9-1.9 18.1-5.9 16.4-9.4 -0.9 1.2 9.1-5.8 1.4 4 -5.9 14.3L546 393l-12 10.6 -9.4 0.5 -4.5 7.7 -5.1-2.1 -17.7 12.8 -22.3 0.8 -5.1 0.1 -0.7-0.7 -0.9 4.2 -3.1 0.3 -16.6-4.9 -14.8-8 -14.3-9.5 -9.7-14.1 -7.2-15.4 -7.9-15 -6.7-15.6 -7.1-15.5 -3.6-17.8 -16.8-1 -14.5-4.5 -1.9-7.3 6.6-3.6 12.4 3.7 15.7 3.2 0.1-21.7 12.8-16.6 16.5-12.7 15.9-6.1 16.7-3.8 15.9-6.1 16.1-5.6 16.1-5.6 16.7-3.3 6.2-13.1 -17.9-1 -17.8 4.4 -17.9 1.3 -17.3 4.9 -5.2-1.1 1.1-1.3 -15-1.3 -19.7-8.6 -16.1-4.3 -14.5-3.1 -13.2-2.1 -15.2 4.3 -11.5 3.3 -4.2 8.9 1.4 6.1 4.9 5.2 12.8 0.3 13.3 2.8 7.8 6 -1.3 2.1 -14.6-1.7 -15.3 3.4 -14.2-0.9 -14 2.5 -17.8-2.1 -23.8-1.8L249 228l-19.6-3.9 -17.3-8.9 1.3-2.8 -15.2-9.7 -16.1-8.5 -14.9-8.5 -15.6-7.2 -18.1-10.3 -18.3-10.1 -19.6-7.8 -20.2-6.1 -17.5-1.1 -16.8-4.6 -13.2-0.1 -8.5 4.9 -0.8 11.8 3.8 6.5L17 175.4l3.6 15.3 -0.9 18.6 4.2 7.8 7.3 6 -9.5 4.9 -3.9 8.9 9.5 14.9 2 13.1 3.6 7.2 10.3 6.1 -5.1 6.3 4 9.1 -2.6 12.8 -5.7 17 -6.1 17.3 4.6 2.9 7.7 6.8 -16.9 5.9 -7 14.1 -0.9 13.5 -4 14.5L10.6 410l-4.3 12.6 -6 10.1 19.2-0.3 18.8-0.2 15.1-4.1 15.5-0.1 15.1-3 14.9-4.7 15.9-1.1 14.5-6.4 15.5-3.3 14.7-5.7 13.6-4.7 13.9-3.9 17-7.1 17.9-3.9 4-0.6 22.5-9 -1.4 1.2 11.2-1.3 16.4-4 16.8-1.7 20.4 0.8 20.3 1 17.1 3.3 17.4 1.4 15 6.7 15.4 5.1 -10-2.3 -9.3 4.8 -10.5 2.4 -8.5 2.6 -7.8-1.4 -7.3 2.1 2.4 14.5 -4 19.1 2.9 17.7 2.7 17.4 5.2 17 5.8 19.7 0.8 10.5 2.7 2.7 6 7.3 2.2 5.2 4.4 5.1 8.1 0.4 10.3-4 20.2-7.2 19.6-9 23-11.6 21.6-9.3 17.8-11.1 13-4.7 11.8-6.8 16.5-12.7 14.5-8.2 13-7.1 13.9-2.1 14.3-1.5 14.4 0.2 15.8 4.2 16.2-1 16 0.4 16 1.9 16 4.4 16.4 1.9 16.4 1.2 21.8 2.6 21.6 3.9 8.1 1.5 -2.1-0.1 -7.3 4.7 -0.7 6.4 -4.2 6.5 2.7 22.7 -6.2 0.2 -2.3 16.3 -1.6 13.2 -6.2 12.8 2.9 17.8 2.5 5.9 3.8 4.4 5.6 2.4 6.7-0.7 22.4-14.7 11.5-11.6 12.1-10.8 9.8-13.1 13-9.8 5.2-6.4 6.6 6.5 1.3 7.1 4.8 3.8 6.4-0.8 5.6-1.6 5.2-9.9 8-7.6 5.4-7 8.8-9.1 6.3-14.8 14.9-0.2 15.4 1.5 18.1-0.3 18.2 1.5 18.2-0.8 18.2 0.5 18.3-3.4 18.6-0.7 18.5-0.6 20.7-3.4 21.1-0.6 20.7-3.5 15.7-4.6 16.1-1.7 16-2 3.3-1.1 0.7 18.9 -2.4 23.6 0.8 14.8 6.9 8.4 7 3.9 5.5 2.6 5.3-7 18.4-14.5 9.6-17.5 12.7-14.9 14.5-15.9 13.1-16.8 2.8-8.1 17.2-1.1 16-4.9 16.6-2.6 16.3-4.3 16.3-3.8 21.2-8 22.1-3.6 0.4 1.4 15.8-3.2 24-6.9 15.4-3.8 15.4-3.2 18.2-5.7 18.8-3.5 18.7-4.1 13.3-7.7 14.7-3.2 13.5-7.7 14.5-6.3 11.4-12.4 2-6.9 0.2-5.8L1581.1 317.9zM562.6 364.9l1.1-2.7 2.5-6.6 0.2-0.6 0.2 2.9 -2.9 6.4L562.6 364.9zM568.3 407.9l1.2 0.5 1-0.1 0.7 1.7 -1.5-1.5 -0.2-0.1 -2.5 0.3 -0.7-1.6L568.3 407.9zM561 416l-0.3-1.4 -2.2-2.5 1.9 0.9 0.3 1.6 0.5 0.5L561 416zM565.4 413l-0.8 0.1 -0.9 0.3 -0.7 1.5 -0.9-1 1.6-0.5 0.4-0.9 2.5-0.1L565.4 413zM574.1 412.2l0 1.8 -0.3-0.2 -0.1 0.8 -1.2 1.8 -4.1-4.4 2.2 4.3 -2.4 0.5 -0.6-1.9 -0.7-0.5 0.4-2.4 -1.2-1 -2.3-2.5 1.3 0.2 8.7 5.1 0.1-1.7L574.1 412.2l-0.1-2 1.3 1.3 4.6 3.1 0.1 0.2 0.4 0.2 0.5 1.4 -0.9-1.6L574.1 412.2zM602.5 414l-0.8-1.1 0.6-1.1 0-0.6 -1.4 0.4 2.2-1 -0.8 1.2L602.5 414zM615.4 415.8l-0.5-0.2 -0.2-0.3 -0.1 0.1 -0.6-0.9 0.7 0.8 0.9-1.4 1.6 1.8L615.4 415.8zM717 401.8l-1.4 1.8 -0.5-3.1 -2.1 2.8 0.8 1.5 1.7 0.3 -3.6 4.1 -0.5 0.3 -5.6 5.3 -14.8 7.1 -8.7 1.1 -1.6-0.1 -1.4-2.5 -7.8-0.9 -0.1 0.3 -0.1-0.3 -12.8-1.4 -0.7-0.4 1.9 3 -3.8 0.2 -3-3.5h-1.4l1.3 2.4 -5.1-1.5h-10.8l0.2-1 3.2-1.8h1.8l-1.6-0.5 -4.8-1 -1.5 0.5 -0.2 1.6 0.8-0.8 0-0.5 0.4 0.1 -0.4 0.4 0.1 2.5 -2.1-3 -4.6-5.4 -0.5 1.5 0.7 0.8 0.6 3.2 0.4 0.1 -0.6 1.7 -5.9-4.8 -1.6 3.4 -0.3 0.4 -0.1 0.3h-0.5l-1.5-1.1 2.5 0.1 -0.5-1.8 -1.5 0.7 0-0.8 -0.9-0.1 1-0.4 0-0.5 -3.1-3.5 -0.7 1.9 -3.8 1.7 -1.9-0.8 -0.1 0.3 0.6 1 -0.6 1.6 -0.2-2.2 0.2-0.4 -0.3-0.4 0.4 0.1 0.3-0.7 -0.9-1.9h0.8l-1.3-2.2 -0.3 0.5 0.2-1.4 -7 2.3 -0.6 3.4 -1.3-5.5v2.8l-1-0.9 1.3 2.1v1l-0.6 1.9 -3.6-3 -0.6-3.4 -2.9 3 -1-4 -2.6 3.8 -1.5-0.7 -0.1 0.2 -1.6 1.5 -0.1-0.2 -1.2 3.9 -4.2-6.2 -6.1-1.4 -1.2-1.4 5.4 0.1 -0.3-0.5 -1.9-16.3 -3.3-16 -0.2-2.1 -0.5-13.6 -1.3-0.6 -0.5-0.6 -2.2-14.2 3.1-16.3 1.6-16.2 1.4-16.3 1.4-16.3 1.3-4.7 -4.2 5.5 -15.8 18.5 -13.7-6.1 -5.2-18.4 1.8-0.9 0.4-0.2 0.8-21.5 2-7.1 9.8-19.9 6.5-3.9 18-8.8 13.8-1.5 13.2-3.9 14.1 3.1 11.6 8.6 11.5 7.4 11.2 7.8 9.1 6.8 -2.1 2.6 2.8 0.2 15.2 20.5 6.2 13.8 6.8 13.3 7.6 13 -0.1 3.2 1.6 0.7 -0.2 4.3 8.1 15.8 4.3 16.9 1.8 17.4 5.1 25.4L717 401.8zM985.6 296.8l-2.1 13.5 0.9 8.5 -3.5 19.6 0.6 19.8 0.9 6.8 -0.6 1.3 -0.6 8.1 -2.6 21.1 2 5.8 -4.3 15.6 2.2 1.5 -2.4 0.9 2.6 3.9 -1.3 3.8 1.2 7.7h1.3l-1.3 2.3 -1.4 4.7 -0.8 2.5 -0.1-0.4 -0.3 5.4 2.6 10.3 -4.2 0.7 -0.2 0 0.6 1.2 0.3 0.7 1.6-0.6 -0.7 2.9 0 0.1 -0.1 0 0 0.1 -2.3 0.8 2.3-0.9 0-0.1 -0.9-2.3 -1.4 0.5 -0.8-2.8 1.3 0.4 -5.7-12.3 -1.6-22.4 1.9-0.3 3.2-2.9 -9.3-14.3 2.2-0.9 1.5-0.6 2 3.4 1.2-2.5 -6.3-11.1 -2.7-13.3 3.6-7.9 -1.9 0.6 2.3-1.9 -0.7-2.3 2.5-1.9 -3.4-0.7 -0.5 4.5 -1.9-22.3 -1.4-0.1 1.3-5 1.3-17.2 -0.3-0.5 0.4 0.3 0-0.6 -0.8-8 -0.2-0.2 0.1 0.1 -1-9.9h0.4l0.8-1.5 1.6-24.2v-7l-0.1-24.5v1.5l-11.5 9.2 -8.9 13.9 -5 17 -15 20.4 -0.3 0.1 -15.4-10.7L895 288.9l-8.5-17.1 -9.3-16.4 -0.5 8.8 -2.6 10.8v2l-1.5 17.7 -1.1 17.7 1.1 17.9 -2.5 17.7 -6.3 16.8 0.2 1.7 0.2 3.5 -3.5 6.4 0.4 0.7 2.2 4.5 -3 8.2 -1.2 1.1 -0.4 1.6h0.5l-0.1 1.4 -2.1 1.5 0.4 4.8 1.8 3.2 1.8 5.3 -4.1-0.9 0.8 12.6 1 1.1 -1-0.7 0 0.4 -2.6 8.2 1.6 15.7 -0.4 15.5 3.2 0.3 -1.9 1.5 -2.9 5.3 0.3-1.4 -0.3 0.4 -4.1-14.3 -2.8-14.6 1.1-0.9 1.6-3.4 -0.1-0.9 -1.5-1.2 -0.5-4.4 2.9-0.2 -4.3-15.2 -1.3-9 0 2.7 -0.5 17 -4.7 16.4 -9.6 13.7 -1.4-19.6 -5.3-18 -5.5-17.8 -5.4-17.9 -9.5-16.4 -17.2-6.5 -7.6-0.7 -19.2 3.9L748.5 376l-0.7 20 -3.2 17.9 -12.7 12.4 -1.1-0.9 -2.8-2.7 2.3-19.6 3.7-19.3 1.1-19.6 4.2-17 -0.3-17.3 -1-17.3 1.4-17.2 3.1-17.2 -1.5-17.3 1.5-17.2 2.8-17.1L743 209l5.8-20.2 4.4-20.5 9.1-19.1 17.3 5.7 10.8 14.3 12.2 13.6 6.4 16.9 7.5 16 3.2 17.5 3.6 17.2 5.2 16.8 3.8 17.2 1.7 17.5 4.4 17.1 -0.2 17.7 2.6 17.4 2.3 17.4 1.8 11.1 -0.1-6.7 0.7-15.1 1.8-15 1.7-1.3 -0.2-2.6 -4.4-1.8 3.2-3.1 -2.6-3.5 -0.1-9.1 1.7-3.5 -1-1.5 3.4-5.4v-5.5l-1.6-1.8 1.4-1.8 1.6-5.7 -3.1-10.9 4.1 1.3 -0.4-5.5 -2.5 0.2 0-3.1 -0.5 1.1 0.4-1.7 0-2.9 -1.1-4.6 1 0.1 -0.1-10.4 0.1-0.6L847 259l1.5 0.6 0 0 0.6-5.8 -3.2-21 0.6-21.2 -2.1-16.7 4.3-1.9 -4.5-20.9 -1 0.4 -1.7-1.4 -1-20.3 0.7-12.9 6.9-2.5 0.8-2.7 10.7 14.1 13.1 11.2 2.9 16.8 6.3 16 -0.9 17 -2.7 16.6 -0.2 0.4 11 10.7 11.1 10.6 7.9 13.9 12.8 7 15-6.5 13.2-11.5 13.2-11.6 -1.4-8.6 1.1-19.9 2.8-19.7 3.1-19.5 12-15.2 3.3-2.3 5.7 15.6 -0.9 17 2.1 16.7 -2.4 16.8 1.1 16.8 -1.7 18.9 -1.7 18.9 -0.6 19L985.6 296.8zM862.2 393.5l-1.1 1.4 -3.1 5.8 1.6-4.1 1.5-1.7 0.2-0.5L862.2 393.5zM1140.4 406.2l-5.7 16.6 -15.2 10 -3.5-18.1 -8.4-15.4 -7.2-15.7 -8.9-14.7 -11.8-12.2 -16.2-6.2 -9.8 1.4 -16.2 4.4 -13.6 9.6 -6.7 15 -2.9 16.2 -6.2 14.2 -8.6 12.6 -9.5 12.2 -2.4-1.6 0.8-2.8 3.5-16.1 4.5-16.1 4.3-16.2 3.2-16.6 7.4-17.7 6-18.1 6.6-17.9 5.2-18.3 3.2-19 7.1-17.7 6.6-17.9 4.9-18.5 9.6-16.9 8.3-17.6 9.8-15.4 15.5 7.8 11.7 15.7 6.3 18.5 5.6 17.1 3.6 17.6 6.5 16.9 1.4 18.1 5.4 17.3 2.2 17.8 3 17.7 0.8 18 1.1 17.3 0.4 17.4L1140.4 406.2zM1480.4 352.2l-15 5.2 -15.2 4.6 -11.3 1.7 -6.8 6.4 -7.3-3.2 -14.1 10.9 -17.4 2.4 -16.8 4.7 -6.6 0.6v-4l-2.2 3.3 -1.9 0.3 -17.7-0.2 -15.5-9 -9.5-14.9 -9.7-14.8 -2.8-17.5 -5.6-16.6 -3.6-17.8 -14.3-1.5 -1 0.1 -0.8 4.1 0.3 14.6 3.1 14.7 -1.6 5.2 1.5 0.9 -1.8 6.2 2.1 16.4 0.8 4.5 -2.2 13.2 -1.7 0.2 0.3 1.9 4.6 2.6 -3.6 3.2 2.2 6.7 -0.7 1.1 -0.1 0.6 0.6 4.6v1.3l2.1 0.2 -3.9 5.2 2.4 9.8 -3.3 1.8 -0.3 0.1 0.3 0.5 0.1 1.3 0.3 0.6 -0.3 0.1 0.1 0.5 -1.1 1.9 0.4-2.2 0.6-0.2 0-0.2 0-0.5 -7-13.5 0.8-19 -1 1.4 1-2 0 0.6 0.1-0.2 2.3-1.2 -6.5-12.9 -0.5-0.3 -0.6-0.8 2.9 1 2-0.7 -11-18.4 4.2-5.2 -2.4-0.8 -0.4-2.1 -0.1 0.1 -4.2-16.4 -0.9-0.1 1.1-3.9 -5.5-26.5 3.6-0.3 -1.2-1.1 -1.9-18 2.6-5.3 -4-17.9 -1 0.4 -11.8 6.4 -7.3 12.5 -1.1 14.3 -13.2 16.1 -1.3 2.9 -14.9-9.4 -14.2-10.1 -10-14.1 -11-13.1 -1.7-0.5 1.4 7.3 -1 8.6 1.2 1.5 -0.4 17.9 2.5 17.9 -4.4 17.5 -3.2 17.4 1.3 1.3 0.5 3.4 -5.6 5.6 5-1 1 5.2 -5.1 7.1 1.2 0.7 -0.7 2.2 3-0.5 0.4 4.4 -3.3 1.8 -0.2-0.6 -0.2 0.5 1.3 2.6 -2.3 3.3 -2 1.1 2.9 11.5 -2.5 7.5 3 14.3 3.7 13.9 0.3 0 -0.3 0.1 0.1 0.2 -1 0 -1.8 0.6 -2 7.7 -2.9 1.4 0.5-2.2 -5.5-12.9 -2-14 -1.4-0.4 -0.6-2.9 1.3-0.7 0.1-1.8 -0.7-3.3 -0.1-0.3 -6.1-12.4L1146 373l3.9-1.4 -1.4-2.2 -2.9-18.9 1.8-19 -1.4-2.2 1.5-0.9 -0.3-1 1.4-3.4 -1.1-3.2 -1.1-6.5 0.2-3.6 0.9-1.4 0.2-4 2-4.6 -1.5-2 -2.3-1.3 2.8-4.3 -1.5-8.6 2.8 0.4 -0.5-3.9 -5 0.7 0.3-17.8 3.6-7.3 -1.8-17 -1.9-16.8 0.2-13.4 -0.6-1.4 -2.6-17.1 0.6 0.2 -0.1-1.3 -0.4-16.6 -3.9-11.2 5.4-3.8h1.8l10.4 10.8 8.5 14.6 8 15.2 2.1 17 0.4 17 -2-0.1 10.1 9.6 10.2 8.9 12.8 7.8 12.7 6.4 15.1-5 11.7-11.1 12.9-9.6 -0.9-6.5 -0.8-15.8 -0.2-15.8 1.9-16 13-7.7 2.7-4.2 5.7 14.3 4.5 15.5 -0.6 16.2 3.1 15.8 -1.1 20.8 0.4 20.8 1.9 3.5 -0.4 4 4.8 0.4 10.7-0.5 4.7-17.6 10.3-15.6 13.3-12.7 15.8-10.5 18.8-3 18.2-5 18.8-0.1 18.2 0.5 8.6-8.9 12.7 16.5 6.8 19.7 3.7 20 -12.8-1.6 -18.1-11.9 -18.3-7.5 -19.6-2.8 -18.2 6.9 -15.5 11 -9.7 16.9 0.2 4.8 17.6 0.5 16 5.4 16.2 4.7 16.3 4.5 16.5 3.4 24-1.5 12.2 3 11 11.7 -4.9 12.6 -13.2 4.6 -4.7-1.3 -18-4.1 -17.9-4.4 -17.5-5.8 -17.9-4.3 -17.2-6.7 -17.6-5 0.6 2.3 12.5 15.4 14.6 13.3 17.7 8.3 19.1 4.1 18.5 4.2 18.8-0.9 18.5-3.3 18.7-2 -0.4 1.3 12-0.2 3.8 3.1L1480.4 352.2zM1499.2 341l-3.5 1.8 -0.6 1 -0.6-1 0.3 0.4 0.9-0.4 2-3.8 2.1 0.4L1499.2 341z"/><polygon points="1163.4 369.6 1164.5 369.9 1163.9 368.6 1165 368.4 1164.3 367.8 "/><polygon points="865.2 314.1 867.8 318.3 869.5 319.1 866.7 315 "/><polygon points="845.8 392.2 845.8 395.7 848.2 396 "/><polygon points="794.4 285.4 789.2 269.3 781.6 254.2 774.7 238.9 771 238.3 767.8 257.1 761.4 275 759 293.7 757.4 312.5 756.9 331.2 757.5 330.6 772.7 324.3 785.3 313.3 800.3 307.2 798.1 301.9 "/></svg>
