<svg xmlns="http://www.w3.org/2000/svg" viewBox="0 0 1587.6 572.7"><path d="M988 447.3c-0.4-0.2-0.6-0.3-1-0.5 0.2 2.1 0.3 3.1 0.5 5.1 1.3 1.4 1.9 2.1 3.2 3.4 0.4 0.2 0.6 0.3 1 0.4 -0.1-0.8-0.1-1.1-0.2-1.9C989.4 452.9 988.3 450.7 988 447.3z"/><path d="M1037.4 301.6c0.2-0.3 0.4-0.5 0.6-0.8 -0.2 0.1-0.4 0.2-0.6 0.4C1037.4 301.3 1037.4 301.5 1037.4 301.6z"/><path d="M1061.5 272.7c0.3 0.3 0.5 0.5 0.7 0.7 0.5-0.4 1.1-0.9 1.6-1.3 0-0.2 0-0.5 0-0.8C1062.9 271.9 1062.4 272.2 1061.5 272.7z"/><path d="M1072.5 262.7c0.4 0.6 0.8 1 1.1 1.4 0.3-0.3 0.7-0.6 1-0.9 0-0.5 0-1 0-1.6C1073.8 262 1073.4 262.3 1072.5 262.7z"/><path d="M710.6 354.2c0.5-0.4 0.7-0.6 1.1-0.9 -0.1-0.8-0.1-1.3-0.2-2.1 -1.4 0.3-2.2 0.5-3.7 0.8 0.1 0.8 0.1 1.3 0.2 2.1 1.6 0.4 2.4 0.7 3.8 1.2 0.5 0 0.7 0 1.2 0.1 0-0.4 0-0.6-0.1-1C712 354.3 711.6 354.3 710.6 354.2z"/><path d="M712.7 350.3c0 0.4 0 0.6 0.1 1 0.9 0.1 1.3 0.1 2.1 0.1 0-0.4 0-0.6-0.1-1C714 350.3 713.5 350.3 712.7 350.3z"/><path d="M757 289.9c0.3 0.1 0.5 0.1 0.8 0.2 0.1-0.5 0.1-0.8 0.2-1.3 -0.3-0.1-0.5-0.1-0.8-0.2C757.1 289.1 757 289.4 757 289.9z"/><path d="M770.6 291.4c0.9 0 1.4 0 2.3 0.1 0.1-0.5 0.1-0.8 0.2-1.3 -1 0-1.5 0-2.3-0.1C770.8 290.7 770.7 290.9 770.6 291.4z"/><path d="M1079.1 258.9c0.7-0.7 1.4-1.4 2-2.1 -0.7 0.3-1.2 0.5-2 0.9C1079.1 258.2 1079.1 258.5 1079.1 258.9z"/><path d="M973.6 444.6c0 0.7 0.1 1.1 0.1 1.8 1.8 1.4 2.8 2.1 4.6 3.4 -0.1-0.7-0.1-1-0.1-1.7C976.3 446.7 975.4 446 973.6 444.6z"/><path d="M967.3 233.2c-0.1-0.7-0.1-1-0.2-1.7 -0.6-0.6-0.9-0.9-1.5-1.6 0.1 0.7 0.1 1 0.2 1.7C966.4 232.3 966.7 232.6 967.3 233.2z"/><path d="M1005.5 342.3c0.8-0.2 1.2-0.3 2-0.5 -0.2-1.5-0.3-2.2-0.5-3.7C1006.4 339.8 1006.1 340.6 1005.5 342.3z"/><path d="M968.8 228.3c-0.1-0.7-0.1-1-0.2-1.7 -0.6-0.5-0.9-0.8-1.5-1.3 0.1 0.7 0.1 1 0.2 1.7C967.8 227.5 968.1 227.8 968.8 228.3z"/><path d="M707.1 356.1c0.1 0.8 0.1 1.3 0.2 2.1 1 0 1.4 0 2.4 0.1 -0.1-0.9-0.1-1.3-0.2-2.1C708.6 356.1 708.1 356.1 707.1 356.1z"/><path d="M1126.3 243.9c0 0.1 0 0.1 0 0.2 0 0 0 0 0.1 0 0 0.2 0 0.3 0 0.5 0.1 1.5 0.2 2.5 0.4 4 0.2 0.1 0.3 0.3 0.5 0.4 0.2-0.3 0.3-0.6 0.5-1 0.7 0.1 1 0.2 1.7 0.3 -0.1 1-0.1 1.7-0.1 2.5 0.5 0.5 1 0.9 1.5 1.4l0 0C1130 247 1128.6 244.3 1126.3 243.9z"/><path d="M1004.5 449c0.1 0.7 0.1 1 0.2 1.7 0.8 0.1 1.2 0.1 2 0.1 -0.1-0.7-0.1-1-0.2-1.7C1005.7 449 1005.3 449 1004.5 449z"/><path d="M779.4 291.5c0 0.1 0 0.1 0 0.1h0.1c0 0.1 0 0.2-0.1 0.3 0.1 1 0.1 1.7 0.2 2.6 0.2 0 0.4 0.1 0.6 0.1 0.2-0.2 0.4-0.4 0.6-0.7 0.8-0.1 1.3-0.2 2.1-0.4 -0.1 0.6-0.2 1.1-0.3 1.6 0.6 0.1 1.2 0.2 1.8 0.2C783.7 292.5 782.1 291.4 779.4 291.5z"/><path d="M752.5 293.3c0.3-0.1 0.6-0.2 0.8-0.4 -0.3-0.1-0.4-0.1-0.7-0.2C752.6 293 752.6 293.1 752.5 293.3z"/><path d="M640.3 254.2c-0.1-0.5-0.1-0.7-0.1-1.1 -1.3 0.1-1.9 0.1-3.2 0.2 0.1 0.5 0.1 0.7 0.1 1.1C638.4 254.3 639 254.3 640.3 254.2z"/><path d="M701.6 356c0.1 0.4 0.1 0.7 0.2 1.1 1.2 0 1.7 0 2.8 0 -0.1-0.4-0.1-0.7-0.1-1.1C703.3 356 702.7 356 701.6 356z"/><path d="M682.4 315.6c0.9-0.1 1.3-0.1 2.1-0.1 -0.2-0.8-0.3-1.1-0.5-1.9C683.4 314.4 683.1 314.8 682.4 315.6z"/><path d="M750.2 293.3c0 0.3 0.1 0.5 0.1 0.8 0.2-0.1 0.4-0.1 0.6-0.2 0-0.1 0-0.3 0.1-0.4C750.6 293.4 750.5 293.3 750.2 293.3z"/><path d="M728.5 301.2c0.1 0 0.2-0.1 0.3-0.1 -0.1 0-0.2 0-0.3 0V301.2z"/><path d="M745.4 294.7c0 0.1 0.1 0.2 0.1 0.4 0.3-0.1 0.6-0.1 0.9-0.2l0 0C746 294.8 745.8 294.8 745.4 294.7z"/><path d="M636.2 259.1c-0.1-0.4-0.1-0.7-0.2-1.1 -1.3 0.1-2 0.1-3.3 0.2 0.1 0.4 0.1 0.7 0.2 1.1C634.3 259.2 634.9 259.2 636.2 259.1z"/><path d="M704.9 328.7c0.1 0.8 0.2 1.2 0.3 2 0.6 0 0.9 0 1.5 0 -0.1-0.8-0.1-1.2-0.2-2C705.8 328.7 705.5 328.7 704.9 328.7z"/><path d="M623.7 394.6c0.1 0.5 0.1 0.7 0.2 1.2 3.3-0.8 4.9-1.2 8.2-2 -0.1-0.5-0.1-0.7-0.2-1.1C628.6 393.4 627 393.8 623.7 394.6z"/><path d="M697.7 359.2c0.1 0.4 0.1 0.6 0.2 1 1.8 0 2.6 0 4.3-0.1 -0.1-0.4-0.1-0.6-0.1-1C700.3 359.1 699.5 359.2 697.7 359.2z"/><path d="M701.5 326c0.1 0.7 0.2 1.1 0.3 1.8 1.2 0 1.8 0 3-0.1 -0.1-0.7-0.2-1.1-0.3-1.8C703.4 325.9 702.8 326 701.5 326z"/><path d="M649 383.7c-0.6 0.1-1 0.2-1.6 0.4 0.2 1.3 0.3 2 0.5 3.3 2 0 3 0.1 5 0.1 0.6-0.1 1-0.2 1.6-0.4 -0.1-0.5-0.1-0.8-0.2-1.3C651.1 386.6 649.3 385.9 649 383.7z"/><path d="M684.7 374.4c-0.5 0.1-0.7 0.1-1.1 0.2 0.1 0.4 0.1 0.6 0.2 1.1 1.6 0.2 2.3 0.3 3.8 0.5 0.5-0.1 0.7-0.1 1.2-0.2 -0.1-0.4-0.1-0.6-0.2-1.1C687.1 374.7 686.3 374.6 684.7 374.4z"/><path d="M674.1 376.2c0.1 0.4 0.1 0.6 0.2 1.1 1.1-0.2 1.6-0.3 2.6-0.5 -0.1-0.4-0.1-0.6-0.2-1.1C675.7 375.9 675.2 376 674.1 376.2z"/><path d="M1022.2 364.5c0.2 1.5 0.3 2.2 0.5 3.7 0.4-0.2 0.6-0.3 1-0.5 -0.2-1.5-0.3-2.2-0.5-3.7C1022.8 364.2 1022.6 364.3 1022.2 364.5z"/><path d="M396.2 425.5c-0.4 0.1-0.6 0.1-1.1 0.2 0 0.8 0.1 1.3 0.1 2.1 0.4-0.1 0.6-0.1 1.1-0.2C396.3 426.7 396.2 426.3 396.2 425.5z"/><path d="M399.7 359.2c-0.4 0.1-0.6 0.1-1.1 0.2 0.1 0.9 0.1 1.3 0.2 2.2 0.4-0.1 0.6-0.1 1.1-0.2C399.8 360.6 399.7 360.1 399.7 359.2z"/><path d="M1585.6 321.5l-4.4-3.7 -3.8-0.9 -7.6 1.8 -7.4 2 -8.2-0.5 -6.7-2.4 20.8-9.1 10.5-6 5.5-6 0.8-6.8 -2.8-9 -6.7-8.1 -11.2-10.3 -12.7-8.1 -15.4-8.7 -16.8-8.8 -21.2-8.8 -19.8-7.1 -19.6-6.7 -17.5-5.3 -11.1-1.4 -15.6-5.7 -18.2-6.5 -18.6-5c-7.1-1.6-11.4-1.5-19.7-2.9l-16.3-3.6 -24-5.9 -23-5.3 -31.7-7.5 -26.5-4.7 -36.1-5.3 -37.1-5.3 -34.6-2.9 -47.5-2.5 -63.2-0.9 -39.1-4.3 -10.9 0.3c0.7-0.6 1.2-1.4 1.3-2.3 -3.6-7.6-13.8-11.6-20.4-17.7 -12.8-11.7-25-24-37.5-36 -11.6-11.1-22.8-22.5-34.8-33.2 -7.4-6.6-15.1-13-22.8-19.1 -6.3-5-12.7-9.9-19.3-14.5 -4.6-3.2-9.3-6.4-14.3-8.9 -5.1-2.6-10.4-7.4-15.8-7.4l0 0c-0.8 0-1.6 0.1-2.4 0.3 -5 1.2-9.2 6.4-9.4 11.2 -0.1 3.1 4.3 4.8 5.3 7.8 0.7 2 2.1 4.9 0.5 6.2 -3.6 2.9-8.9-5.7-13.3-4.2 -3 1.1-3 5.6-5.1 7.9 -3.3 3.7-8.4 5.5-11.6 9.3 -1.4 1.7-2.2 3.7-3 5.7 -0.9 2.1-0.8 4.6-1.9 6.6 -3.5 6-9.5 10.2-14.3 15.2 -4.3 4.4-9.8 7.8-13 13 -1 1.5-2.2 3.4-1.8 5.2 1.2 4.7 13 5.3 10.9 9.7 -2.9 6-13.5-6.1-19.7-3.6 -4.1 1.7-4.8 7.5-7.5 11.1 -3.1 4.1-6.1 8.4-9.8 12 -4.6 4.3-10.2 7.4-15.2 11.3 -5.7 4.4-13.6 7.2-17 13.6 -1 1.8 0.3 4.3-0.5 6.3 -0.7 1.7-3.6 2.3-3.6 4.1 0 1.4 1.7 2.3 2.8 3 8 4.9 18 5.5 27.2 7.8 12.3 3.2 24.5 8.6 37.2 8.8l-18.8 4.2 -33.7 6 -65 9.5 -37.7 6 -54.3 8.7 -54.1 6.4 -35.3 5.7 -4.8 1.1 0.7-0.4 -14.7-2.8c-6.7-2.5-13.4-4.8-20.2-7.1 -5.3-1.8-10.6-3.4-15.9-5 -4.7-1.4-9.4-2.8-14.2-4.1l-13.1-1 -15.4 3 -10.1 5.1 -4.3 7.8v5.8l5.8 3.5c3.9 1 7.8 2.1 11.6 3.3 3.6 1.1 9.8 1.6 13.3 2.8 3.6 1.3 5 3.2 8.1 4.8l-1.3 0.3 -14.3 1.3 -15.4 1.2 -28.2 1.2 -17.8-0.3 -23.5-3.3 -17.9-4.3 -19.2-5 -16.8-9.5h-0.4l-30-20.2 -30-16.8L115 158.6l-40-12.8L41 139l-13.2-0.7 -7.8 5.3V155l1.1 6.4 -3.2 13.9 1.8 15.3 -0.3 18.6 3.2 8.9 7.5 4.7 -8.9 4.6 -1.4 8.9 7.2 15.5 3.4 12.7 2.3 7.8 9.1 6.3 -4.8 5.7 4.3 9.3 -0.2 12.9 -12 34.3 2.3 3.9 9.6 6.1 -17.3 5.9L17.6 371l-3 12.8 -3.4 14.7 -1.8 11.3 -3.9 12.7L0.8 432l37.4-1 46-5 45.4-12.1 29.8-10.1 27.3-9.6 35.1-10.5 3.8-1.1 23.3-6.6 -1.8-0.1 10.8-3.3 33.6-2.8 40.7 1.4 34.3 5 14.9 5.3c0-0.2 0-0.4 0-0.6 0.3-0.5 0.5-0.7 0.9-1.2 0-0.4 0-0.6-0.1-1 -0.4-0.4-0.6-0.6-1-1.1 0.6-0.9 1-1.3 1.6-2.2 -0.8-0.8-1.1-1.2-1.9-2 -0.1-2-0.2-3.1-0.3-5.1 0.6-0.8 1-1.3 1.6-2.1 -0.4-0.4-0.5-0.6-0.9-1.1 -0.1-1.3-0.1-1.9-0.2-3.2 0.6-1.2 0.9-1.9 1.6-3.1 -0.4-0.4-0.6-0.6-1-1.1 0-0.4 0-0.6-0.1-1 0.3-1.3 0.4-2 0.8-3.3 -0.9-2.5-1.3-3.7-2.1-6.2 1 0 1.5-0.1 2.5-0.1 0-0.8-0.1-1.3-0.1-2.1 -1 0.1-1.5 0.1-2.5 0.1 -0.3-5-0.4-7.5-0.7-12.6 -0.1-3.6 0.4-5.4 1.4-5.4 -1.5-6.2-2.5-14.7-2.9-25.6 -0.2-4.3-0.3-6.5-0.4-10.9 0.3-0.5 0.4-0.7 0.7-1.2 -1.2-5.7-1.8-8.6-2.9-14.5 0.3 0 0.5 0 0.8 0 -0.3-0.4-0.5-0.6-0.8-1 -0.2-6.3-0.2-9.4-0.4-15.8 -0.4-4.6-0.7-6.9-1.1-11.5 1.7-1.4 2.5-2.1 4.3-3.7 0.3 0 0.5 0 0.8 0 1.2-0.1 3.5 3.4 7.1 10 13.2 14 15.1 34.6 16.8 52.8 -0.4 0.1-0.6 0.1-1 0.2 0.2 2.3 7.7 4.9 19.9 8.3 12 3.4 21.6 5.6 25.5 4.3 13.4-7.7 24.6-19.4 35.5-30.1 -0.8-1.9-1.2-2.8-1.9-4.7 -1.9-12.8-9.5-47.6 7-55 1.3-1.9 1.9-2.9 3.2-4.8 5.6 19.3 9.7 39.2 14.5 58.8 2 10.7 4 21.3 6.5 31.9 0.6 1.1 1 1.6 1.6 2.7 0.1 2.9 0.1 4.4 0.2 7.3 0.8 1.8 1.2 2.7 2 4.6 2.3 8.7 3.5 13 5.8 21.7 0.1 1.5 0.1 2.3 0.2 3.8 0.4 0.3 0.6 0.5 1 0.8 0.2 1.9 0.2 2.8 0.4 4.7 1.3 5.1 1.9 7.7 3.2 12.9 0.7 1.5 1 2.2 1.7 3.7 -0.1 4.2-0.1 6.3-0.3 10.6 0.4 0.3 0.6 0.5 1 0.8 -0.6 0.8-0.9 1.2-1.4 2.1 1.9-0.2 2.9 0.4 3.2 1.7 0.1 0.7 0.2 1.1 0.3 1.6 0.9-0.1 1.6-0.1 2.6-0.1 3 2.3 5.8 3.3 8.4 3.1 0.2 1 0.3 1.5 0.5 2.5 -6.2-0.9-9.7-2.4-11.2-4 0.1 2.2 0.1 3.4 0.1 5.7 0.5 0.3 0.7 0.5 1.1 0.8 0.1 0.4 0.1 0.6 0.2 1.1 -0.1 1.6-0.2 2.4-0.3 4 0.1 0.8 0.2 1.2 0.3 2 0.4 0 0.6 0 1-0.1 -0.1 2-0.1 3-0.2 5 0.6 4 0.9 6.1 1.4 10.2 -0.6 0.9-0.9 1.3-1.6 2.3 -0.4-0.3-0.6-0.5-1-0.9 0.1 0.8 0.2 1.2 0.3 2.1 0.8-0.1 1.1-0.1 1.9-0.2 0.2 1.3 0.2 1.9 0.4 3.2 -0.7 0.1-1.1 0.1-1.9 0.2 0.3-0.5 0.4-0.7 0.7-1.2 -0.1-0.5-0.1-0.7-0.1-1.1 -3.1 0.3-5.3-5.1-7-15.8 -2-7.5-3-11.1-5.2-18.3 0.4 0.3 0.7 0.4 1.1 0.7 0.4-0.1 0.6-0.1 1.1-0.2 0.5-0.7 0.8-1.1 1.2-1.7 -0.1 0-0.2 0-0.3 0 0-0.2-0.1-0.3-0.1-0.5 -4.1 0.2-7-3.2-8.6-10.3 -0.1-0.3-0.1-0.5-0.2-0.9 0.4-0.1 0.6-0.1 1.1-0.2 0.4 1.8 1.6 2.6 3.5 2.2 0.2-1.2 0.3-1.8 0.4-2.9 -4.6 0.7-8.8-3.7-12.4-13.3 -0.3-2.5 0.5-4 2.2-4.4 -0.5-0.3-0.8-0.4-1.3-0.6 -0.1-0.4-0.1-0.6-0.2-1 0.3-0.4 0.5-0.6 0.9-1.1 -0.1-0.4-0.1-0.6-0.2-1 -0.4 0.1-0.6 0.1-1.1 0.2 -1 1-1.5 1.5-2.5 2.5 -2-5-3.1-7.5-5.1-12.4 0.4-0.1 0.6-0.1 0.9-0.2 -0.6-1-1-1.6-1.6-2.6 -2.7-7.5-4-11.3-6.7-18.9 0.4-0.1 0.6-0.1 0.9-0.2 -0.4-0.3-0.7-0.4-1.1-0.6 -1.2-5.2-1.8-7.8-3-13 0-1.6 0-2.4 0.1-3.9 -2-5.1-2.9-7.7-4.8-12.9 -0.4 0.1-0.5 0.1-0.9 0.2 -3.5 3.2-5.2 4.8-8.9 8.2 -3.6 1-6.2 7.9-7.9 20.7 -3.8 6.1-5.8 9.2-9.9 15.6 -0.9 0.3-1.3 0.5-2.2 0.8 -19.7 1.9-37.1-7.7-52.6-18.6 -0.4 0.1-0.5 0.1-0.9 0.2 0.2 2.1 0.2 3.2 0.4 5.3 -0.2 2.6-0.4 3.9-0.6 6.5 0.5 0.3 0.7 0.5 1.1 0.9 -0.3 15.6 2.6 37.8-4.2 52.3 0.5 0.3 0.7 0.5 1.2 0.9 0.1 0.8 0.1 1.2 0.2 2.1 -1.7 0.4-2.6 2-2.8 4.8 0.8-0.2 1.2-0.3 2-0.4 0.1 1.2 0.1 1.8 0.2 3 -1.5 2.5-2.2 3.7-3.7 6.1 0.5 0.3 0.7 0.5 1.1 0.7 -0.4 0.5-0.6 0.8-1 1.3 -0.4 0.1-0.6 0.1-0.9 0.2 0.4 0.3 0.6 0.5 1 0.8 0 0.4 0 0.7 0.1 1.1 -0.3 1.3-0.4 1.9-0.7 3.2 0.8 0.7 1.3 1 2.1 1.7 0.1 1.3 0.1 1.9 0.2 3.2 -0.8 0.2-1.2 0.3-2 0.4 0.6 3.7 0.9 5.6 1.5 9.4 -0.2 2.6-0.3 3.9-0.6 6.6 1.4 10.9 2.1 16.4 3.3 27.7 -0.4 0.1-0.7 0.2-1.1 0.2 0.5 0.3 0.7 0.5 1.2 0.8 0 0.5 0 0.7 0 1.2 -2.1 2.4-3 4.8-3 7.3 -0.8 0.2-1.2 0.2-2 0.4 0-0.5 0-0.7 0-1.2 -1-9.5-3.9-18.6-6.9-27.6 0.4-0.4 0.6-0.7 1-1.1 -0.8-0.8-1.2-1.2-2-2 0.3-0.5 0.5-0.7 0.8-1.2 0-0.4 0-0.6 0-1 -0.4-1.3-0.6-1.9-1-3.2 0.3 0 0.5 0 0.9-0.1 -2.8-5.9-4.3-13.3-4.8-22.1 1.1 0 1.6-0.1 2.8-0.2 0-0.4 0-0.6-0.1-1 -1.9 0.2-2.8-0.5-2.9-1.9 -0.4-7.4-0.8-14.9-1.3-22.3l-4.2 2.2c0 0-6.8 1.9-10.2 2.7 -3.5 0.7-5.1 0.8-8.7 1.4 -2.1 0.3-6 0.8-7.3-0.1 -1.2-0.9-3.4 0.1-6.2 3.5 -4.4 5.4 2.3 7.9 0.2 13.1 -2 5.2-1 11.9-1.3 19.5 -0.2 6.1 0 11.6 0.5 17.7 0.5 5.9 1.7 11.7 3 17.4 1.3 5.8 3 11.5 4.8 17.2 2 6.5 4.9 12.8 6.7 19.4 0.9 3.3 0.5 6.9 2 9.9 0.6 1.3 2.6 1.8 2.8 3.2 0.3 3.7-4.6 2.5 3.8 8.3 0.1 2 0.5 3.4 2.7 4.7 1.6 1.2 3.4 2.2 5.3 2.9 2.4 0.8 5 1.4 7.5 1.4 3.6 0 10.7-2.1 10.7-2.1l13-5.7 26.2-11.8 23.6-10.4 20.7-11.1 18.6-9.6 23.6-13.6 17.5-11.1 15-7.2 12.8-7.1 13.5-3.2 28.6-0.5 63.9 5.8 49 6 43.4 6.1 8.5 0.9 -2.6 1.1 -6.8 5.2 -2.8 5.3 -1.3 7.2 -0.4 22.1 -5.5 0.4v16.8l-3.4 12.8 -4.6 13.2 0.3 17.8 3 6.3 4 4.9 6.4 2.4 6.3-2.4 21.8-15.4 47.1-44.3 5.4-5.7 5.7 6.7 2.5 6.3 4.3 4.6h7.1l4.6-3.5 7.1-8.3 6.1-9.1 6.3-6.3 7.1-10.1 6.5-14.7 0.6 0.1 31 2.9 72.7-0.9 55.3-4.6 62.5-7.5 47.8-7.9 2.9-0.7 -0.4 18.9 0.5 23.6 1 14.4 5.1 9.1 6.7 5.3 5.4-1 7-4.2 16.2-16.7 24.8-30.3 24.8-34.8 4.8-6 16.3-3.7 65.4-15 21.5-6.6 22.5-4 -0.4-0.2h0.2l15.9-1.5 24.2-6.3 30.6-7.8 55.4-14.1 28.5-9.5 27-15.5 12.5-11 3.1-6.9L1585.6 321.5zM397.4 412.3c-0.1-1.7-0.2-2.5-0.3-4.2 0.8-0.2 1.2-0.3 2-0.4 0.1 0.8 0.1 1.2 0.1 2.1C398.6 410.8 398.2 411.3 397.4 412.3zM872.8 334.3c-0.6 15.5-13.5 25.8-27.2 30.6 -3.5 1.8-5.2 2.7-8.7 4.5 -2.6-1.8-3.9-2.6-6.5-4.3 -26.4 17.4-52.5 26.1-81.1 38.1 -5.8 1.6-8.4 1-10.1-1 -3.3-10-4.7-20.9-7-31.1 0.7-12.5 2.5-17.5 4.8-15.9 5.4-13.2 17.7-55.1 39.6-43.1 0.3 0.5 0.5 0.8 0.8 1.2 -0.1 0.6-0.2 0.9-0.3 1.5 -4.9 7.4-12.9 15.1-20.8 19.3 -8 13.2-12 25.5-15.1 40.5 -0.1 0.6-0.1 0.9-0.2 1.5 1.4 3 2.1 4.6 4.5 7.3 6.3 2.7 17.1 1.4 22.3-0.3 0.3 0.6 0.5 1 0.9 1.6 0.2-1.2 0.3-1.8 0.5-2.9 0.4 0 0.7 0 1.1 0 0.4 0.6 0.6 0.9 1.1 1.4 3.1-1.7 4.6-2.6 7.8-4.7 0.4 0.5 0.6 0.8 1 1.3 0.5 0 0.7-0.1 1.2-0.1 3.2-0.3 9.2-3.8 18.1-12.6 2.2-1.2 3.3-1.8 5.6-3.1 0.9 1 1.4 1.6 2.4 2.7 0.8-2.3 1.2-3.4 2-5.8 1.1-0.4 1.7-0.5 2.8-0.9 -0.2 1.4-0.2 2.2-0.4 3.6 6.7-5.1 10.2-9.5 10.5-12.5 0.5 0.5 0.7 0.8 1.2 1.3 0.6-0.2 0.9-0.3 1.5-0.6 9.2-7.1 15.8-18.2 22.3-27.7 0.2-2.7 0.3-4 0.5-6.7 0.4-11.4-9.1-20.3-19.1-23.8 -0.6 1.1-0.9 1.7-1.5 2.8 -0.5 0.4-0.8 0.6-1.3 1 -6.2-0.7-9.2-0.8-15-1.1 -8.7-0.6-17.6 0.4-26.3-0.7 0 0.1 0 0.1 0.1 0.2 -0.8 0.2-1.2 0.3-2 0.5 0.1-0.4 0.1-0.7 0.2-1 -0.8-0.1-1.6-0.3-2.4-0.5 -0.2 0.2-0.3 0.4-0.6 0.7 0-0.3 0-0.6-0.1-0.9 -0.2-0.1-0.4-0.1-0.7-0.1 0.2-1 0.3-1.6 0.5-2.5 0-0.1 0-0.2 0-0.3 -0.4 0-0.7 0-1.1 0 -0.1 0.6-0.2 0.9-0.3 1.5 0.2 1.7 0.2 2.5 0.4 4.1 -0.1 0.6-0.2 0.9-0.3 1.5 -0.5 0-0.7 0-1.2 0 -0.1-1.7-0.1-2.6-0.2-4.3 -0.5 0.6-0.8 0.9-1.3 1.5 -0.8 0-1.2 0-2 0 0.2-1.1 0.3-1.7 0.5-2.8 -0.5 0.5-0.7 0.8-1.1 1.3 -0.3 0-0.5 0-0.9 0 -0.5-1.1-0.7-1.7-1.1-2.8 -0.7 0-1 0-1.6-0.1 0.2 0.6 0.3 0.9 0.5 1.5 -0.2 1.1-0.3 1.7-0.5 2.8 -0.6 0-0.9 0-1.5-0.1 -0.7-1.2-1-1.7-1.6-2.9 -1.7 0.4-2.4 0.6-3.8 0.9 -0.1-0.6-0.2-0.8-0.4-1.4 -0.2 0-0.3 0-0.5-0.1 -0.7 0.4-1.1 0.6-1.7 1.1 0.1-0.5 0.1-0.8 0.2-1.3 -0.3 0.5-0.4 0.7-0.7 1.2 -0.2 0-0.3-0.1-0.4-0.1 -1-0.7-1.5-1.1-2.3-1.8 -0.6 0.4-0.9 0.6-1.4 1 -0.1-0.5-0.1-0.8-0.2-1.4 -0.1 0.6-0.4 1.2-1.7 1.9 0 0 0 0 0.1 0 -0.1 0.4-0.1 0.7-0.2 1.1 -0.3-0.1-0.5-0.1-0.8-0.2 0-0.2 0.1-0.4 0.1-0.6 -0.5 0.2-1 0.4-1.7 0.6 -0.1 0.7-0.2 1.2-0.3 2 -0.1-0.8-0.2-1.3-0.3-1.9 -1 0.3-2.3 0.6-3.9 0.9 -0.1 1-0.2 1.4-0.3 2.4 -0.2-0.9-0.4-1.4-0.6-2.2 -1.5 0.3-3.2 0.6-5.2 0.9 -3.7 1.9-7.6 3.6-11.5 5.1 0.6 0 0.9 0 1.5 0.1 0 0.4 0 0.7 0 1.1 -0.7 0-1.1-0.1-1.8-0.1 0-0.4 0-0.6 0-1 -3.8 1.5-7.7 2.8-11.6 4 0.6 0.5 1.1 1.1 1.6 1.7 0-0.2 0-0.4 0-0.6 1 0 1.5 0 2.5 0 0 0.4 0 0.6 0 1 -0.9 0-1.4 0-2.2 0 0.7 0.8 1.3 1.6 2 2.4 2.6 10.4 4.4 15.8 6.2 16 0 0.4 0 0.7 0 1.1 -0.4 0.3-0.5 0.5-0.9 0.9 0 0.4 0 0.6 0 1 0.7 0.9 1.1 1.3 1.7 2.2 -0.3 0.4-0.5 0.6-0.9 1 0 0.4 0 0.6 0 1 0.6 0.9 0.9 1.3 1.5 2.2 -0.3 0-0.4-0.1-0.7-0.1 0.3 0.4 0.4 0.7 0.7 1.1 0 0.4 0 0.7 0 1.1 -1 5.9-2 8.8-3.3 8.6 0-0.8 0-1.3 0-2.1 -0.3-0.1-0.5-0.1-0.8-0.1 0 0.4 0 0.6 0 1 0.3 1.7 0.5 2.5 0.8 4.3 -3.6 8.9-7.4 14.6-12.4 17.1 0.2 3.8-2.7 5.9-12.8 7.2 -1.8-0.4-2.3-0.6-3.6-0.9 -1.2 0.5-1.8 0.8-3.1 1.3 0.5 0.4 0.8 0.6 1.3 1 0.1 0.4 0.1 0.6 0.1 1.1 -1.6 1-2.5 1.5-4.2 2.6 -0.5 0.1-0.7 0.1-1.2 0.2 -4 0.5-6.3 0.2-6.5-1.3 -3.6 1-5.5 1.6-9.4 2.7 0.1 0.4 0.1 0.7 0.1 1.1 3.4-0.6 5-0.9 8.2-1.5 0.1 0.9 0.2 1.4 0.3 2.3 -1.6 0.3-2.4 0.4-4.1 0.7 -2.7 0.9-4 1.4-6.8 2.4 0.5-0.6 0.8-0.8 1.3-1.4 -0.1-0.9-0.2-1.4-0.3-2.3 -1.7 0.3-2.5 0.5-4.2 0.8 -1.7 1.3-2.5 2-4.2 3.3 -0.6-0.4-0.9-0.6-1.5-1 -0.6 0.1-0.9 0.2-1.5 0.3 -4 2.8-6.1 4.2-10.3 7.1 -2-0.9-3.1-1.4-5.1-2.3 -0.7 0.2-1 0.2-1.6 0.4 0.7 0.3 1.1 0.4 1.8 0.7 0.1 0.5 0.1 0.7 0.1 1.1 -0.6 0.6-0.9 0.9-1.5 1.5 -4 0-6 0-10.1 0.1 0.7 0.3 1.1 0.4 1.8 0.7 0.1 1 0.2 1.5 0.3 2.5 -4 0-6.1 0-10.2 0 -0.6 0.6-0.9 1-1.5 1.6 -6 0.6-9.1 0.8-15.1 1.4 -0.6 0.6-0.9 1-1.5 1.6 -0.1-0.5-0.1-0.7-0.2-1.2 -0.6 0.6-0.9 1-1.5 1.6 -1.3 0.3-1.9 0.5-3.1 0.8 -2.7 0.2-4.1 0.3-6.8 0.4 -2.5 1.1-3.7 1.6-6.2 2.7 -0.7 0.2-1 0.2-1.6 0.4 -0.1-0.5-0.1-0.7-0.2-1.2 1.3-0.3 1.9-0.5 3.3-0.8 -0.1-0.5-0.1-0.7-0.2-1.2 -0.7 0.2-1 0.2-1.6 0.4 -1.8 0.9-2.7 1.4-4.5 2.3 0.5-0.6 0.7-0.9 1.2-1.5 -0.1-0.5-0.1-0.8-0.2-1.3 -1.9 0.4-2.8 0.6-4.6 1 0.2 1 0.2 1.5 0.4 2.6 -1.3 0.3-1.9 0.4-3.2 0.7 -7.3-0.5-14.8-1.3-22.1-2.6 0 3.1-0.5 4.8-1.5 4.9 -4.1 0.6-5.7-4.4-7.8-10.1 -3.1-8.3-9.5-19.1-13.7-28.9 0.1-0.7 0.1-1 0.2-1.7 -2-4.5-3.1-6.7-5.1-11.1 0.2-0.2 0.3-0.3 0.4-0.6 -0.3-0.2-0.4-0.3-0.7-0.5 -1.2-4.5-1.7-6.7-2.9-11.1 -5.3-19.2-4.3-39.2-2-58.7 0.8 0 1.2 0 2.1-0.1 8 4.9 16.7 12.7 21.4 21 1.8-0.2 7.4 7.2 9.1 16.8 2.1 11.7-1 29.9-1.4 43.8 -0.2 8.7-0.2 14.4-1 15.3 0.4 0.6 0.6 1 1.1 1.6 0.1 2.4-0.1 3.6-0.7 3.7 0.3 0.2 0.5 0.3 0.8 0.5 0.6 3 0.9 4.5 1.5 7.6 -0.4 0.8-0.6 1.2-1.1 2 0.4 0.7 0.6 1 1 1.7 0 0.5 0.1 0.9 0.1 1.4 7.5 0.9 12.4 1.1 21.6 1.4 0.6-0.6 0.8-0.9 1.4-1.5 8.2-0.8 12.5-1.3 21.2-2.4 0.6-0.6 0.9-0.9 1.5-1.6 0.6-0.1 0.9-0.2 1.5-0.4 2.1 0 3.1 0 5.2-0.1 -0.1-0.9-0.2-1.4-0.4-2.3 2.1 0.5 3.1 0.7 5.2 1.1 0.7-0.2 1-0.3 1.7-0.4 -0.7-0.3-1.1-0.4-1.9-0.7 -0.1-0.5-0.1-0.7-0.2-1.2 4.6-1.6 6.9-2.4 11.5-4 0.1 0.5 0.1 0.7 0.2 1.1 0.6-0.6 0.9-0.9 1.5-1.5 3.4-0.3 5-0.5 8.4-0.9 3-2.6 4.5-3.9 7.4-6.4 0.1 0.9 0.2 1.3 0.3 2.2 7.6-2.7 11.4-4 18.5-6.4 -0.1-0.9-0.2-1.4-0.4-2.3 -0.6 0.6-0.8 0.8-1.4 1.4 -0.6 0.1-0.9 0.2-1.6 0.3 -0.7-0.3-1-0.4-1.7-0.7 -0.1-0.4-0.1-0.6-0.2-1.1 0.6-0.6 0.8-0.8 1.4-1.4 0.6-0.1 0.9-0.2 1.6-0.3 5-0.2 7.4-0.2 12-0.2 -0.6-0.3-1-0.5-1.6-0.8 -0.1-0.4-0.1-0.6-0.2-1.1 0.5-0.6 0.8-0.9 1.3-1.5 0.6-0.1 0.9-0.2 1.5-0.3 0.7 0.4 1 0.5 1.6 0.9 0.6-0.1 0.9-0.2 1.4-0.3 3.2-1.5 4.7-2.2 7.6-3.5 0.5 0.3 0.8 0.5 1.3 0.9 3.2-4.1 5.6-6 7.6-6.2 1.4 0.3 2.1 0.5 3.4 0.9 -0.1-0.5-0.1-0.7-0.2-1.1 -0.9-2.8-1.3-4.2-2.2-7 1.5 1.1 2.2 1.7 3.7 2.9 3.2-2.6 7.5-3.9 11.8-6.2 -0.1-0.8-0.1-1.2-0.2-2 -1 0-1.5 0-2.6 0 -0.1-0.8-0.2-1.2-0.3-2.1 1.6-0.4 2.4-0.6 3.9-0.9 -0.7-1.2-1-1.8-1.7-3 1.1 0 1.7 0 2.7 0 0-0.4-0.1-0.6-0.1-1 -1.1 0-1.6 0-2.7 0 -0.3-2.3-0.4-3.5-0.7-5.8 0.5-0.4 0.8-0.6 1.3-0.9 -0.1-0.4-0.1-0.6-0.1-1.1 -2.2-0.5-6.4-4.7-15-11.8 1.3-0.8 1.9-1.3 3.1-2.1 -0.1-0.4-0.1-0.5-0.2-0.9 -0.7 0.4-1 0.6-1.7 1 -1.4 0.1-2.2 0.1-3.6 0.2 -17.3-5.3-19.3-8-24.7-7.4 -5.5 0.6-8.8 0.4-9.1-0.9 -0.1-0.4-0.2-0.6-0.3-1 1.2-0.1 1.8-0.2 3-0.3 -0.1-0.4-0.1-0.6-0.2-0.9 -2.3 0.3-3.5 0.4-5.9 0.7 0.7 0.3 1.1 0.4 1.8 0.7 0.1 0.4 0.2 0.6 0.3 1 -14.1 2.2-27.5 12.1-38.4 20.6 -4.5 2-6.7 3-11.2 5.1 -14.9 0.3-30.3-3.2-42.8-11.4 0.5-3.2 0.8-4.8 1.3-8.1 -2.9-2.6-5.1-6.5-6.3-11.7 -0.2-0.9-0.3-1.3-0.5-2.2 -0.3-1.3 7.7-3.9 25.6-8 6.1-10.5 12.5-20.8 19-31 0.6-0.5 0.8-0.7 1.4-1.2 6.5-4.1 9.6-7.1 9.3-8.9 2.5-0.1 10.1-5.2 22-15.8 12.8-7.2 25.5-14.4 36.8-24 16.7-5.3 34.4-10.4 48.3-21.6 18.1-1.4 14.9 29.9 14.2 40 0.3 2.5 0.5 3.7 0.8 6.1 -3.3 9.2-7.7 13.5-15.5 14.1 -17-4-34.7-1-51.9-1.8 -7 2.6-11 4-19.7 6.8 -0.1-0.9-0.2-1.3-0.3-2.2 3.5-0.7 5.3-1.1 8.5-1.7 -0.1-0.9-0.2-1.3-0.3-2.2 -1.1 0.1-1.7 0.1-2.9 0.2 -1.6 1-2.4 1.5-4 2.5 -0.7-0.4-1-0.6-1.7-1 -2.9 0.6-4.4 0.9-7.5 1.6 0.7 0.5 1.1 0.7 1.8 1.2 0.1 0.9 0.2 1.3 0.3 2.2 -1.1 1-1.7 1.5-2.9 2.5 -0.6-0.5-1-0.7-1.6-1.1 -0.7 0-1 0.1-1.6 0.1 0.2 1.3-2.3 2.6-7.6 3.9 -0.7-0.4-1.1-0.6-1.9-1 -1.4 0.1-2.1 0.1-3.4 0.2 0.1 0.4 0.1 0.7 0.2 1.1 1.4-0.1 2.1-0.1 3.4-0.2 0.2 1.4 0.3 2 0.5 3.4 -3.1 0.2-6.8 2.4-11 6.4 -0.7 0.1-1.1 0.1-1.8 0.1 0.8 0.4 1.2 0.6 2 0.9 0.1 0.4 0.1 0.6 0.2 1.1 -3.7 2.5-5.6 3.8-9.4 6.3 0.8 0.4 1.2 0.6 2 1 0.2 0.8 0.3 1.3 0.4 2.1 -1.6 2.3-2.4 3.5-4 5.8 0.8 0.3 1.2 0.5 2 0.9 3.4-0.8 5.1-1.1 8.4-1.9 6.1-0.6 9.2-0.9 15.1-1.5 0.6-0.5 0.9-0.7 1.5-1.2 0.7-0.1 1-0.1 1.7-0.2 0.1 0.4 0.1 0.6 0.2 1 0.5-0.5 0.8-0.7 1.2-1.1 0.7-0.1 1-0.1 1.7-0.2 0.7 0.3 1.1 0.5 1.9 0.8 0.7-0.1 1-0.1 1.6-0.2 0.6-0.5 0.9-0.7 1.4-1.1 0.6-0.1 0.8-0.1 1.4-0.1 2.6 0.2 3.9 0.2 6.5 0.4 0.5-0.4 0.7-0.7 1.1-1.1 0.7 0.3 1 0.5 1.7 0.8 0.1 0.4 0.1 0.6 0.2 1 0.5-0.4 0.8-0.7 1.3-1.1 3.5-0.3 5.2-0.4 8.5-0.7 0.2 1.2 0.4 1.8 0.6 3 0.9-0.9 1.4-1.3 2.3-2.2 4.3-0.3 6.4 2.1 23 5.5 9.1-0.3 18.3 3.1 25.6 8.8 7.1-4 14.2-8.1 20.8-12.9 8.4-4 11.1-6 16.1-10.1 0.2 0.5 0.2 0.8 0.4 1.3 0.2 0 0.3 0 0.5 0.1 2.8-1.2 4-1.7 6.6-3 -0.1 0.5-0.1 0.8-0.2 1.3 1.2-0.9 1.8-1.4 3.1-2.4 0.1 0.6 0.1 0.9 0.2 1.5 1-0.5 1.5-0.7 2.6-1.2 0.8 0.1 1.3 0.1 2.2 0.2 0.8 0.7 1.3 1 2.2 1.6 1.1-0.5 1.7-0.8 3-1.4 1.5 0 2.3 0.1 4 0.1 0.2 0.6 0.4 0.9 0.6 1.5 0.5-0.6 0.7-0.9 1.1-1.5 9.7 1.9 16.6-0.2 16.3 1.7 0.5-0.8 0.8-1.2 1.3-2 0.5-0.3 0.7-0.4 1.2-0.8 0.4 0.3 0.5 0.4 0.9 0.7 0.4-0.3 0.7-0.4 1.1-0.7 -0.6 0.9-0.8 1.4-1.4 2.3 -0.1 0.6-0.1 0.9-0.2 1.4 -0.2 1.5 1 2.1 3.9 1.5 0.6-4.1 1.7-6.7 3.3-7.9 -0.2 1.6 6.3-0.5 20.9-11 0.8 0.4 1.2 0.6 2 1.1 0.6-1.3 0.9-1.9 1.5-3.2 0.6-0.6 0.8-0.9 1.4-1.5 3.6-0.5 5.4-0.7 9.1-0.8 0.3 1.8 0.5 2.7 0.8 4.5 1.6-2.3 2.4-3.4 4-5.7 27.2 7.5 29.1 45.5 29.1 67.7 0.5 0.9 0.7 1.3 1.1 2.2C873 329.9 872.9 331.4 872.8 334.3zM727.4 303.2c0 0.4 0 0.7 0 1.1 -0.8 0-1.2 0-2-0.1 0-0.4 0-0.7 0-1.1C726.3 303.2 726.6 303.2 727.4 303.2zM642.2 267.7c-1.3 0.1-1.9 0.1-3.2 0.2 -0.1-0.9-0.2-1.4-0.4-2.3 1.3-0.1 1.9-0.1 3.2-0.2C642 266.4 642 266.8 642.2 267.7zM913.1 366.7c-0.8-0.2-1.2-0.3-2.1-0.4 0-1 0-1.5 0.1-2.4 0.8 0.1 1.2 0.2 2.1 0.4C913.1 365.2 913.1 365.7 913.1 366.7zM925.3 384.8c-6.2-6.8-9.4-11.2-9.3-15.1 1.2 0.4 1.7 0.6 2.9 1 2.3 5.3 4.5 8.5 6.5 9.7C925.4 382.2 925.4 383 925.3 384.8zM1293.1 250.8c0.2 0.2 0.3 0.2 0.6 0.4 0 0.2 0 0.3 0 0.5 -0.4 0.4-0.6 0.6-0.9 0.9 -0.2 0-0.3 0-0.6 0 0-0.4 0-0.6 0-0.9C1292.5 251.4 1292.7 251.2 1293.1 250.8zM1171.9 390.9c-2.1 0.1-3.1 0.2-5.1 0.2 -1.6-3.1-2.4-4.7-4-7.9 -19.5 5.8-38.3 10.9-56.9 19.1 -9.2 3.6-15.9 8-21.3 11 -9.6 1.5-21.3 4.3-29.4-3.4 -0.9-10.8-2.4-25.3 5.7-34 2.8-10.7 37.1-131.2 64.6-102.2 0.3 0.8 0.5 1.2 0.8 2.1 0 0.8-0.1 1.3-0.1 2.1 -4.1 12.2-12.2 22-22.8 29.1 -13 23.3-21.3 47.7-23.3 74.4 0 0.8 0 1.2 0 2.1 5.7-2.1 8.6-2.8 14.8-2.9 9.6-3.2 19.5-2.8 29.3-5 0.3 0.9 0.5 1.4 0.8 2.3 0.1-1.6 0.1-2.4 0.2-3.9 0.4 0.1 0.5 0.1 0.9 0.2 0.4 0.9 0.5 1.3 0.9 2.1 2.2-1.7 3.3-2.6 5.5-4.2 0.3 0.9 0.5 1.3 0.8 2.2 0.3 0.1 0.5 0.2 0.8 0.3 2.2 0.8 6-1.8 11-7.7 1.3-0.2 1.9-0.3 3.2-0.5 0.6 1.9 0.9 2.9 1.5 4.8 0.4-2.3 0.5-3.5 0.9-5.8 0.6 0.3 1 0.4 1.6 0.7 0 1.6-0.1 2.4-0.1 4.1 3.7-1.9 5.5-4.4 5.6-7.5 0.3 0.9 0.4 1.4 0.7 2.3 0.3 0.2 0.5 0.2 0.8 0.4 1.4 0.6 5.3-3.5 12-13.5 0-2.5 0-3.8 0-6.3 -0.6-15.1-7.3-30.6-12.4-44.6 -0.3 0.7-0.4 1-0.7 1.6 -0.3-0.1-0.4-0.2-0.7-0.3 -3.6-8.2-5.3-12.3-8.8-20.4 -4.8-10.6-9.6-21.3-17.8-29.5 -0.6-0.1-0.9-0.2-1.5-0.3 0-0.4 0-0.8 0.1-1.1 -0.7-0.6-1.3-1.2-2-1.8 -0.1 0.2-0.2 0.5-0.4 0.7 0-0.4-0.1-0.8-0.1-1.1 -0.2-0.2-0.4-0.3-0.6-0.5 0.1-1.4 0.1-2.2 0.2-3.5 0-0.2 0-0.3-0.1-0.5 -0.3-0.1-0.5-0.1-0.9-0.1 0 0.8-0.1 1.3-0.1 2.1 0.3 2.4 0.4 3.6 0.7 6 0 0.8-0.1 1.3-0.1 2.1 -0.4-0.1-0.6-0.1-1-0.1 -0.2-2.5-0.3-3.7-0.6-6.2 -0.4 0.8-0.6 1.2-1 2 -0.8-0.1-1.2-0.1-1.9-0.2 0.1-1.6 0.1-2.4 0.2-4 -0.4 0.7-0.6 1.1-1 1.8 -0.4 0-0.6 0-0.9-0.1 -0.7-1.7-1-2.5-1.7-4.1 -0.8 0-1.2-0.1-2.1-0.1 0.4 0.8 0.5 1.3 0.9 2.1 -0.1 1.6-0.1 2.4-0.2 4 -0.8 0-1.2 0-2-0.1 -1.2-1.6-1.8-2.4-3-4 -2.7 0.8-4.1 1.3-6.8 2.5 -0.5-0.7-0.7-1-1.1-1.7 -0.4 0.1-0.7 0.1-1.1 0.2 -1.4 1-2.1 1.5-3.6 2.6 0-0.8 0.1-1.1 0.1-1.9 -0.5 0.9-0.7 1.3-1.2 2.2 -0.4 0.1-0.7 0.2-1.1 0.3 -2.7 0-4.1 0.1-6.8 0.3 -1.4 1.3-2.2 1.9-3.6 3.3 -0.4-0.6-0.7-0.9-1.1-1.4 -1.2 1.8-2.6 3.5-4.1 5.1 0.1 0 0.2-0.1 0.3-0.1 0 0.7 0 1 0 1.7 -0.9 0.4-1.4 0.6-2.3 1.1 0-0.2 0-0.3 0-0.5 -1.4 1.5-2.9 2.9-4.4 4.3 0 0.7 0 1.3 0 2.2 -0.4-0.5-0.7-0.9-1-1.3 -3.2 2.8-6.5 5.4-9.8 8 0 1.1 0 1.8 0.1 3.1 -0.7-0.7-1.1-1.2-1.7-1.8 -3.5 2.8-6.9 5.5-10 8.2 -4.8 6.4-9.5 12.8-14.2 19.2 0.5-0.3 0.9-0.5 1.5-0.9 0.1 0.8 0.1 1.2 0.1 1.9 -0.8 0.5-1.2 0.8-2.1 1.3 -0.1-0.6-0.1-1-0.1-1.5 -3.3 4.6-6.7 9.1-10.1 13.6 0.5 0.8 1 1.6 1.4 2.3 0-0.3-0.1-0.6-0.1-1 0.9-0.5 1.3-0.7 2.2-1.2 0.1 0.7 0.1 1 0.2 1.7 -0.8 0.4-1.2 0.7-1.9 1.1 0.8 1.3 1.5 2.4 2 3.4 3.9 17.8 6.7 26 8.7 24.7 0.1 0.8 0.1 1.2 0.2 2 -0.3 1-0.5 1.5-0.8 2.4 0.1 0.7 0.1 1 0.2 1.7 0.9 0.8 1.4 1.3 2.2 2.1 -0.3 1.1-0.5 1.6-0.8 2.6 0.1 0.7 0.1 1 0.1 1.7 0.8 0.9 1.3 1.3 2.1 2.2 -0.3 0.2-0.5 0.4-0.8 0.6 0.4 0.4 0.6 0.7 1 1.1 0.1 0.8 0.1 1.2 0.2 1.9 -0.2 11.4-0.9 17.6-2.3 18.6 -0.1-1.5-0.2-2.2-0.3-3.7 -0.4 0.3-0.6 0.4-0.9 0.7 0.1 0.7 0.1 1 0.2 1.7 0.6 2.6 0.9 3.9 1.5 6.4 -1.6 13.3-3.5 27.7-8.9 40.1 0.6 6.2-1.9 12.6-8.1 17.2 -1.1-0.2-1.7-0.3-2.9-0.6 -1 1-1.5 1.5-2.5 2.5 0.4 0.6 0.7 0.9 1.1 1.4 0.1 0.7 0.1 1 0.2 1.7 -1.3 1.8-1.9 2.6-3.2 4.2 -0.4 0.1-0.6 0.1-0.9 0.2 -3.1 0.5-4.8-0.6-5.1-2.8 -2.6 0.8-4.3 1.2-7.1 1.6 0.1 0.7 0.1 1 0.2 1.7 2.5 0.2 4 0.1 6.3 0.1 0.2 1.4 0.2 2.1 0.4 3.5 -1.2 0-1.9 0.1-3.2 0.1 -2 0.6-3 0.9-5 1.2 0.3-0.6 0.5-0.9 0.9-1.5 -0.2-1.4-0.2-2.1-0.4-3.5 -1.2-0.2-1.8-0.3-3-0.5 -1.1 1.2-1.6 1.7-2.7 2.8 -0.4-0.9-0.7-1.3-1.1-2.2 -0.4-0.1-0.6-0.2-1-0.3 -2.5 1.8-3.7 2.6-6.2 4.1 -1.3-2.6-2-3.9-3.3-6.6 -0.4-0.2-0.6-0.3-1-0.6 0.5 0.9 0.7 1.4 1.1 2.3 0.1 0.7 0.1 1 0.2 1.7 -0.3 0.5-0.5 0.7-0.8 1.2 -2.4-2.7-3.6-4.1-6-7 0.4 1 0.7 1.4 1.1 2.4 0.1 1.5 0.2 2.2 0.3 3.6 -2.4-2.9-3.6-4.5-5.9-7.6 -0.3 0.4-0.5 0.6-0.8 1 -3.4-3.9-5.1-6-8.5-10.2 -0.3 0.4-0.5 0.6-0.8 1 0-0.7-0.1-1.1-0.1-1.8 -0.3 0.4-0.5 0.6-0.8 1 -0.7-0.6-1.1-0.9-1.8-1.5 -1.5-2-2.3-3-3.8-5.1 -1.4-0.5-2.1-0.8-3.5-1.4 -0.4-0.3-0.6-0.5-0.9-0.8 0-0.7 0-1.1 0-1.9 0.7 0.7 1.1 1 1.9 1.7 0-0.7 0-1.1-0.1-1.9 -0.4-0.3-0.6-0.5-0.9-0.8 -1-0.2-1.6-0.3-2.6-0.5 0.3-0.5 0.5-0.7 0.8-1.1 0-0.8 0-1.3-0.1-2.1 -1.1-1-1.6-1.4-2.7-2.4 0 1.6 0 2.4 0.1 4 -0.7-0.7-1.1-1-1.9-1.6 -5.7-9.2-11.3-18.5-17.3-27.6 0-0.8 0-1.2 0-2 1.1 0.7 1.6 1.1 2.7 1.9 5.8 8.3 8.6 12.8 14.4 21.7 0.4-0.4 0.5-0.7 0.9-1.1 4.7 5.8 7.1 8.7 11.8 14.5 0.3-0.4 0.5-0.6 0.8-1 0.3 0.3 0.5 0.4 0.8 0.7 1.1 1.7 1.7 2.6 2.9 4.3 -0.1-1.4-0.1-2.2-0.2-3.6 1.1 2.4 1.7 3.6 2.9 5.9 0.4 0.3 0.6 0.5 0.9 0.8 -0.4-1-0.6-1.5-1-2.6 0-0.7-0.1-1.1-0.1-1.8 2.5 1.5 3.7 2.2 6.3 3.5 0.1 0.7 0.1 1.1 0.1 1.8 0.3-0.4 0.5-0.6 0.8-1 1.9 2.1 2.8 3.2 4.7 5.1 1.6-1.5 2.4-2.3 4-3.9 0.1 1.4 0.2 2.1 0.3 3.5 4.4 1.4 6.6 1.8 11.2 2 -0.2-1.4-0.2-2.2-0.4-3.6 -0.3 0.6-0.5 0.8-0.8 1.4 -0.4-0.1-0.6-0.2-1-0.4 -0.5-0.8-0.7-1.3-1.2-2.1 -0.1-0.7-0.1-1-0.2-1.7 0.3-0.5 0.5-0.8 0.8-1.3 0.4 0.2 0.6 0.2 1 0.4 3.3 2.5 4.9 3.6 8.3 5.4 -0.5-0.7-0.8-1.1-1.3-1.9 -0.1-0.7-0.1-1-0.2-1.7 0.3-0.7 0.5-1 0.8-1.8 0.4 0.1 0.6 0.1 1 0.1 0.5 0.8 0.8 1.2 1.3 2 0.4 0 0.6 0 1.1 0.1 2.3-1.3 3.6-2.1 5.7-3.7 0.4 0.7 0.6 1 1.1 1.6 2.1-6.1 3.9-9.5 5.5-9.9 1.2 0.5 1.8 0.7 2.9 1.1 -0.1-0.8-0.1-1.1-0.2-1.9 -0.9-4.8-1.4-7.1-2.4-11.9 1.4 1.8 2.1 2.7 3.4 4.4 2.7-5.5 4-8.4 6.7-14.5 -0.2-1.4-0.2-2.1-0.4-3.4 -0.7 0.4-1 0.6-1.7 0.9 -0.2-1.5-0.3-2.2-0.4-3.7 1-1.2 1.5-1.9 2.5-3.1 -0.6-2-0.9-2.9-1.6-4.9 0.8-0.4 1.1-0.6 1.9-1 -0.1-0.7-0.1-1-0.2-1.7 -0.8 0.4-1.1 0.6-1.9 1 -0.5-4.2-0.8-6.4-1.3-10.6 0.3-0.9 0.4-1.3 0.8-2.2 -0.1-0.8-0.1-1.2-0.2-2 -1.6-0.3-5-6.7-10.8-19.8 0.6-1.8 0.8-2.7 1.4-4.5 -0.1-0.7-0.1-1.1-0.2-1.8 -0.3 0.9-0.5 1.3-0.8 2.1 -0.8 0.3-1.2 0.4-1.9 0.7 -9.9-9.2-17.3-14.8-21.1-15.2 -4-0.4-5.9-2.5-6.3-4.8 -0.1-0.8-0.2-1.2-0.3-2 0.7 0.3 1.1 0.4 1.9 0.6 -0.1-0.7-0.2-1.1-0.3-1.8 -1.5-0.4-2.2-0.7-3.6-1.4 0.5 0.9 0.7 1.3 1.2 2.2 0.1 0.8 0.2 1.2 0.3 2 -5.1-2.1-10.5 1.3-17.1 9.2 -1.8-0.4-2.7-0.7-4.5-1.3 -8.8-19.1-13.6-40.2-17-60.9 0.3-5.1 0.5-7.6 0.8-12.6 -1-7.3-1.6-16.1-1.9-26.2 0-1.7-0.1-2.5-0.1-4.2 -0.1-2.4 2.6 1.6 7.9 12.3 1.3-10 2.3-20 3.4-30.1 0.1-0.2 0.2-0.3 0.3-0.5 1.5-0.3 2.3-2.1 2.1-4.8 0.8 1.8 2.3 1.1 6.9-6.2 10.3-4.9 18.1-15.5 25.7-23.5 10.2-7.5 18.8-17.1 26-27.6 16.7-5.7 15.8 34.5 16.2 41.3 0.7 3 1 4.6 1.7 7.6 -1.3 8.8-4.3 20.4-12.9 25 -11.4-1.1-23 1.5-34.3 2.5 -6.4 4.4-9.6 6.6-14.2 7.5 -0.2-1.3-0.2-2-0.4-3.3 1.9 0.3 3 0.2 5.2-0.2 -0.1-1.3-0.2-2-0.4-3.3 -0.8-0.1-1.2-0.2-1.9-0.3 -0.9 1.1-1.4 1.5-2.3 2.4 -0.4-0.8-0.6-1.2-1.1-2.1 -1.6-0.2-2.4-0.4-3.8-1 0.4 1 0.6 1.5 1 2.5 0.1 1.3 0.2 2 0.4 3.4 -0.5 0.9-0.7 1.4-1.2 2.3 -0.4-1-0.5-1.5-0.9-2.5 -0.3-0.3-0.4-0.5-0.7-0.8 0.2 2-0.8 2.6-2.8 1 -0.3-1.1-0.5-1.6-0.8-2.7 -0.5-0.8-0.8-1.2-1.3-2.1 0.1 0.7 0.1 1 0.2 1.7 0.5 0.9 0.8 1.3 1.3 2.1 0.2 2.2 0.3 3.2 0.6 5.4 -1.2-1.8-2.3-1.3-3.4 1.5 -0.2-0.5-0.4-0.7-0.6-1.2 0.3 1.2 0.5 1.8 0.8 3 0.1 0.7 0.1 1.1 0.2 1.8 -1 0.9-1.5 1.3-2.5 2 0.3 1.3 0.5 2 0.8 3.3 0.1 1.5 0.2 2.2 0.3 3.7 -0.3 2.3-0.5 3.5-0.8 5.8 0.3 1.3 0.4 1.9 0.8 3.1 1.1 1.7 1.6 2.5 2.8 4.1 2.2 4.1 3.3 5.9 5.8 9.1 0.2-0.4 0.3-0.5 0.5-0.9 0.3 0.4 0.4 0.5 0.7 0.9 0.1 0.7 0.1 1.1 0.2 1.8 0.2-0.4 0.3-0.6 0.4-1.1 0.3 0.3 0.4 0.5 0.8 0.8 0.4 1 0.6 1.5 1 2.5 0.3 0.3 0.5 0.4 0.8 0.7 0.2-0.4 0.3-0.6 0.6-1.1 0.3 0.2 0.4 0.3 0.7 0.6 1.4 1.7 2.1 2.5 3.6 3.9 0.2-0.5 0.3-0.8 0.5-1.4 0.5 0.9 0.7 1.3 1.1 2.1 0.1 0.7 0.1 1 0.2 1.7 0.3-0.5 0.4-0.8 0.7-1.4 2.2 0.8 3.1 1.1 5.7 1.1 0.3 2.2 0.5 3.3 0.8 5.4 0.6-1.5 1-2.2 1.6-3.7 3.5-0.2 9.8 3.5 18.9 9.2 6.5-0.4 12.6 5.6 17.3 12 5.5-11.6 11.8-22.8 18-33.9 8.5-11.2 17.1-22.3 26-33.2 0.5 0.5 0.8 0.7 1.4 1.2 0.5-0.2 0.7-0.4 1.2-0.6 6.9-5.9 10.3-8.6 17.1-13.5 0 0.8 0 1.1-0.1 1.9 3-2.7 4.5-4 7.4-6.4 0.4 0.7 0.6 1 1.1 1.8 2.4-1.5 3.6-2.2 5.9-3.5 1.9-0.4 2.8-0.5 4.6-0.7 1.8 0.6 2.7 0.9 4.5 1.7 1.9-0.9 2.8-1.3 4.5-2.1 2.1 0 3.1 0.1 5 0.2 0.3 0.9 0.5 1.3 0.8 2.1 0.4-0.8 0.6-1.2 1-2 9.9 3.5 13.4 7.7 13.3 10.3 0.3-0.7 0.5-1 0.8-1.7 0.3 0.1 0.5 0.1 0.8 0.2 0.3 0.8 0.4 1.3 0.7 2.1 0.3 0.1 0.4 0.1 0.7 0.2 -0.3 0.8-0.5 1.1-0.8 1.9 0 0.8 0 1.1-0.1 1.9 -0.1 2 0.9 4.3 2.8 7.1 0.2-5.4 0.8-7.9 1.7-7.5 -0.1 2.1 4.1 7.6 12.2 17.3 0.5 1.9 0.7 2.8 1.2 4.7 0.3-0.7 0.4-1.1 0.7-1.9 0.3 0.1 0.4 0.2 0.7 0.3 2.1 5.1 3.1 7.6 5.3 12.7 0.3 2.6 0.4 3.8 0.7 6.4 0.8-0.4 1.3-0.7 2.1-1.1 10.5 28.5 22.3 58.7 22.3 89.6 0.4 0.9 0.6 1.4 0.9 2.3 0 2.4 0 3.7 0 6.1C1189 386.3 1182.6 392.6 1171.9 390.9zM1036.8 307.7c-0.8 0.5-1.2 0.7-2.1 1.2 -0.1-0.8-0.1-1.2-0.2-2 0.8-0.5 1.2-0.7 2.1-1.2C1036.7 306.5 1036.7 306.9 1036.8 307.7zM971.1 249.1c-0.6-0.5-1-0.7-1.6-1.3 -0.2-1.5-0.3-2.2-0.4-3.6 0.6 0.6 0.9 0.8 1.6 1.3C970.8 247 970.9 247.7 971.1 249.1zM1276.3 337c0-0.2 0-0.3 0-0.5 0.4-0.3 0.6-0.4 1-0.7 0 0.2 0 0.3 0 0.4C1276.9 336.5 1276.7 336.7 1276.3 337zM1278.8 332c-0.2-0.1-0.4-0.1-0.6-0.2 0-0.2 0-0.3 0-0.4 0.6-0.8 0.9-1.3 1.6-2.1 0.2-0.2 0.4-0.2 0.6-0.4 0 0.2 0 0.3 0 0.4C1279.7 330.4 1279.4 330.9 1278.8 332zM1324.3 340.1c-0.6 0.1-0.9 1-0.8 2.6 -0.5 0.7-0.8 1.1-1.3 1.8 -1 0.1-1.5 0.1-2.5 0.3 -1 0.3-1.5 0.5-2.5 0.9 -0.5 0.6-0.8 0.9-1.3 1.5 -0.2 0.1-0.3 0.1-0.6 0.3 -2.5-0.6-5.3-0.2-8.5 1.3 -5.3-4.7-9.1-7-11.3-7.3 -0.4 0.3-0.6 0.4-1 0.7 -3.6-1-5.5-2.3-5.5-3.8 -5.5-5.4-8.3-9.5-8.4-11.4 0.2-0.1 0.3-0.2 0.6-0.4 -0.3-0.5-0.4-0.7-0.6-1.2 -0.4 0.3-0.6 0.4-1 0.6 0.2 0.1 0.4 0.1 0.6 0.2 0 0.2 0 0.3 0 0.6 -2.9 3.9-5.1 8.6-6.5 14.1 -0.2 0.4-0.3 0.6-0.4 0.9 0.2 0.1 0.3 0.2 0.5 0.3 0.2-0.2 0.4-0.3 0.6-0.4 -0.2 1.6-0.3 2.5-0.5 4.1 0 0.7 0 1 0.1 1.7 -0.9 0.7-1.5 2.2-2 4.4 0.4 0.1 0.6 0.2 1.1 0.3 -1.8 13.1-2.8 31.8-10.8 43.2 -1.1 2.1-1.6 3.2-2.6 5.3 -1 0.7-1.5 1.1-2.5 1.8 -2.3 2.6-3.5 3.9-5.8 6.4 -7.1 2.4-10.6 3.3-17.5 3.9 -1.8-0.6-3.5-2.1-5.1-4.5 0-1.4 0-2.2 0-3.6 0.4-1.1 0.6-1.6 1-2.7 0-3.4-0.1-5.1-0.1-8.6 0.4-1.1 0.6-1.7 1-2.9 -1.9-3.6-2.9-5.4-4.7-9.3 -1.7 1-2.9-1.8-3.7-8.4 -2.1 1-3.4-0.9-4-5.6 -0.7 0.3-1-1.2-1-4.3 -1.4 0.5-2.6-1.6-3.5-6.3 -0.2-0.3-0.3-0.4-0.6-0.7 0-0.6 0-0.9 0-1.5 0.2-0.9 0.3-1.4 0.5-2.3 -0.2 0.1-0.3 0.1-0.5 0.2 -0.9 0.2-1.4-0.1-1.4-1.1 0.2-1 0.2-1.5 0.4-2.5 -0.2 0-0.2 0.1-0.4 0.1 -0.6-0.8-0.9-1.2-1.5-2 0-0.3 0-0.4 0-0.6 0.2-1.6 0.3-2.4 0.5-4 -1.3-0.5-2.4-3.4-3.5-8.8 0.2-0.9 0.2-1.3 0.4-2.2 -0.6 0.1-1-1.2-1-3.8 -0.5-0.9-0.8-1.4-1.4-2.3 0-2.5 0-3.7-0.1-6.2 -0.6 0-0.9-1.3-1-3.9 -0.4-0.6-0.6-0.9-1.1-1.5 0.4-0.6 0.6-0.9 1-1.6 -1-3.7-1.5-5.6-2.5-9.4 0.1-1.2 0.2-1.9 0.4-3.1 0-0.6 0-0.9 0-1.5 -0.9-0.6-1.4-1-2.2-1.6 0.2-0.4 0.2-0.5 0.4-0.9 0-0.3 0-0.4 0-0.7 -0.8-5.4-1.2-8.1-1.9-13.5 0.1-1.5 0.2-2.2 0.3-3.7 -0.4-2.2-0.9-3.3-1.3-3.3 0.1-2.1 0.2-3.2 0.3-5.3 0-0.4 0-0.5 0-0.9 0-0.9-0.9-1.7-2.6-2.5 -0.2-1.5-0.2-2.2-0.4-3.7 0-2.5 0-3.8-0.1-6.3 -0.9-13-1.7-26.2-3.7-39.1 0-0.6 0-0.9 0-1.5 -0.3-10.6-0.7-21.1-1-31.7 0.6-0.8 0.9-1.1 1.6-1.9 1.3 0.1 2 0.1 3.4 0.2 7.1 4.3 11.4 9 11.4 13.1 4.1 8.1 9.4 16.9 9.7 26.2 1.2 3.6 1.8 5.4 3.1 9 -0.2 0.3-0.3 0.5-0.5 0.8 0.2 1.5 0.4 2.3 0.6 3.8 0 2.6 0 4 0.1 6.6 -0.2 1.7-0.3 2.6-0.5 4.3 0.2 1.2 0.3 1.8 0.6 2.9 -0.4 2.1-0.5 3.1-0.9 5.2 0.2 1.5 0.3 2.3 0.5 3.7 -0.1 1.7-0.2 2.6-0.4 4.4 0.4 1.7 0.6 2.6 1 4.4 0.1 6.5 0.1 9.8 0.2 16.3 1.3 10.9 2.6 21.8 4 32.6 -0.2 0.1-0.3 0.1-0.6 0.1 2.4 9.6 4.9 19.1 7.6 28.6 0.6-0.3 1.3 1.8 2.1 6 0.7-0.3 1.9 2.4 3.8 7.8 0.4-0.2 0.6-0.4 1-0.6 0 0.5 0 0.8 0 1.4 -0.2 0.4-0.3 0.7-0.6 1.1 0 0.2 0 0.3 0 0.6 0.9-0.5 2.8 0.9 5.8 3.8 0.5-0.8 0.7-1.3 1.1-2.1 0.8 0.3 1.2 0.4 2.1 0.6 3.5-5.1 5.2-7.6 8.7-12.5 -0.2-0.2-0.3-0.2-0.5-0.4 0-0.8 0-1.2 0-1.9 0.2-0.1 0.3-0.2 0.4-0.3 0.7 0 1 0.1 1.6 0.1 5-9.7 7.9-14.4 8.6-14.8 1.4-1.2 2-2.8 1.9-4.7 -0.2-0.1-0.3-0.2-0.5-0.4 0-0.2 0-0.3 0-0.5 1-1.1 1.6-1.6 2.6-2.7 -0.3-0.5-0.4-0.8-0.6-1.4 0.4-0.2 0.6-0.4 1-0.6 0.2 0.1 0.4 0.2 0.6 0.3 0.2-0.1 0.3-0.2 0.4-0.3 0.2-0.4 0.3-0.6 0.6-1 0-0.4 0-0.6 0-1.1 -1.1 0.6-1.6 0.9-2.6 1.5 0-0.3 0-0.4 0-0.6 0.7-2.2 2.6-5.1 5.5-8.5 -0.5-2.7-1.1-3.9-1.8-3.6 0.4-7 1-10.6 1.8-11.1 0.2 0.1 0.3 0.2 0.5 0.3 0 0.2 0 0.4 0 0.6 -0.3 3.7-0.4 5.6-0.7 9.4 0 0.2 0 0.4 0 0.6 0.4-0.2 0.6-0.3 1-0.5 0.3-4 0.4-6 0.6-9.9 0-1.1-0.1-1.6-0.1-2.7 -0.2-0.2-0.3-0.3-0.5-0.4 0-0.2 0-0.3 0-0.4 0.4-0.6 0.6-0.9 1-1.4 0-0.2 0-0.4 0-0.6 -0.6 0.2-1 0.4-1.6 0.6 0.7-8.2 1.1-12.2 1.8-20.1 -0.3-0.8-0.4-1.2-0.7-1.9 0.4-0.7 0.6-1.1 0.9-1.8 -0.6-0.5-0.9-0.8-1.5-1.4 1.7-1.9 2.5-3.2 2.4-3.9 -1.6 0.2-2.7-1.7-3.4-6 -0.2-0.2-0.3-0.3-0.4-0.6 0.9-0.9 1.4-1.4 2.3-2.3 0.2 0.2 0.4 0.3 0.6 0.5 -0.2 0.2-0.3 0.3-0.6 0.5 0 0.4 0 0.6 0 1 0.5 1 0.7 1.5 1.2 2.5 0.2 0 0.3 0 0.4 0 3.7-4.2 7.3-6.2 10.8-6.4 0.2-0.2 0.3-0.3 0.5-0.4 -0.1-1.3-0.1-2-0.1-3.4 -0.4 0-0.6 0-1 0 0-0.6 0-0.9-0.1-1.5 0.4 0 0.6 0 1 0 0 0.6 0 0.9 0.1 1.5 0.8 0 1.2 0 2 0 0.4 0.4 0.6 0.5 1 0.9 -0.8 0.4-1.2 0.6-1.9 1 0 0.2 0 0.2 0 0.4 3.3-0.1 5 2.2 5.2 6.8 1-0.1 2.5 2.3 4.4 6.7 -0.3 1.1-0.5 1.6-0.8 2.7 0.4 0.4 0.6 0.7 1 1.1 -0.3 0.8-0.5 1.2-0.9 2 0.5 5.5 0.7 8.2 1.2 13.6 0 0.2 0 0.3 0 0.5 -0.1 0.7-0.2 1.1-0.3 1.8 0.2 0.1 0.3 0.2 0.4 0.4 0 0.1 0 0.2 0 0.4 -0.2 0.2-0.2 0.4-0.4 0.6 1.8 9.6 2.1 23.1 8.4 30.8 2.4-0.2 4.6 0.5 6.6 2 0.1 1.6 1.9 1.8 5.5 1.2 1.6 2.3 2.3 3.4 3.8 5.9 0.9 3.2 1.3 4.8 2.1 8.1C1324.7 337.6 1324.3 338.7 1324.3 340.1zM1272.6 296.1c0.2-0.1 0.3-0.1 0.6-0.2 0 0.5 0 0.7 0 1.2 -0.2 0.1-0.3 0.1-0.6 0.2C1272.7 296.8 1272.7 296.5 1272.6 296.1zM1273.5 264.9c0.4-0.1 0.6-0.1 1-0.1 0 0.4 0 0.6 0 1 -0.4 0.1-0.6 0.1-1 0.2C1273.5 265.6 1273.5 265.3 1273.5 264.9zM1483.5 261.3c-1.8 11.3-49.8 5.9-62 5 -0.9-0.5-1.3-0.8-2.2-1.3 -0.9-0.1-1.4-0.2-2.3-0.4 -8.4 0-12.7-0.1-21.1-0.1 -0.5 3.7-0.7 5.4-1.2 8.9 1.3 12.8 2.8 25.6 4 38.5 1 1.7 1.5 2.6 2.5 4.4 -0.7 1.6-1.1 2.5-1.8 4.1 0.6 7.4 0.9 11.2 1.4 19.7 -0.5 5.4-0.8 8.3-1.5 14.4 0.9 1.7 1.4 2.6 2.3 4.4 -1.6 2.8-2.5 4.3-4.1 7.3 1.9 4.9 2.8 7.4 4.6 12.8 0 1.4 0 2.1 0 3.5 -1.7 0-2.6-0.1-4.3-0.1 0 0.7 0 1 0 1.7 1.8 2.1 2.6 3.1 4.4 5.3 0 3.6 0 5.5 0 9.3 -9.1-8.4-10.9-29-13.7-40.1 0.9 0 1.3 0 2.1 0.1 -1.8-2.4-2.7-3.6-4.5-5.9 1.6-1.1 2.5-1.6 4.1-2.7 -1.8-1.1-2.6-1.7-4.4-2.8 0.8-2.1 1.1-3.2 1.9-5.2 -4-10.5-6-15.2-10.1-24.2 0.8-0.4 1.2-0.6 2-0.9 -6-15.9-12.4-31.7-18.4-47.7 0.5-2.9 0.8-4.3 1.3-7.3 -1.2-5.3-1.8-8-2.9-13.7 2.2-1.1 3.3-1.6 5.6-2.7 3.2 0.5 4.9 0.7 8.2 1.3 6.1 5.2 9.2 7.7 15.6 12.5 12 0.8 23.9 1.7 35.9 2.5 0 0.5 0.1 0.7 0.1 1.1 5.8 0 8.7 0.1 14.3 0 0 0.4 0.1 0.6 0.1 1 11 0.1 27.4 2.9 36.7-4 -0.1-0.9-0.1-1.3-0.2-2.3 -10.5-13.6-45.6-14.7-61.1-18.1 -5.8-0.1-8.8-0.1-14.7-0.2 -0.9-0.6-1.3-1-2.2-1.6 -0.9-0.2-1.4-0.3-2.3-0.4 -8.5-0.6-12.7-0.8-20.9-1.2 -0.8-0.6-1.3-1-2.1-1.6 -0.8-0.1-1.2-0.2-2-0.3 -12.8 2.3-24.8 8.3-34.4 17 -2.7-0.2-3.9-0.3-6.4-0.5 -1.9-1.1-2.8-1.6-4.5-2.6 -1.7 0.4-2.5 0.8-4.1 1.1 -6.1-10.4-12.5-23-13.7-35.2 0.6-0.5 0.9-0.7 1.4-1.2 3.8 1.2 5.7 1.7 9.4 2.7 6.4 0.2 9.8-0.4 17.8 0 0 0.6 0 0.8 0 1.4 2.7-0.8 4-1.2 6.9-2 2.9 1 4.4 1.5 7.4 2.5 6-0.2 9.1-0.2 15.5-0.2 0.8 0.7 1.2 1.1 2 1.8 1.5-0.9 2.3-1.3 3.9-2.3 4.9 1.5 7.4 2.3 12.5 3.9 0.9-0.4 1.3-0.7 2.2-1.1 7.6 2.6 11.4 4 19 6.6 0.9-0.4 1.3-0.6 2.2-0.9 2.5 0.5 3.7 0.7 6.2 1.2 8.5 2.7 12.7 4.1 20.8 6.5 2.4-0.1 3.6-0.2 6-0.3 0.1 1.8 5.7 3.7 15.3 5C1466.8 242.6 1484.9 252 1483.5 261.3z"/><path d="M398.2 366.9c0.4-0.1 0.5-0.1 0.9-0.2 -0.1-0.8-0.1-1.2-0.2-2.1 -0.4 0.1-0.5 0.1-0.9 0.2C398.2 365.7 398.2 366.1 398.2 366.9z"/><path d="M1368.8 231.3c1.6 0.3 2.4 0.4 4 0.7 -1.7-1.4-2.5-2-4.1-3.4C1368.7 229.6 1368.7 230.2 1368.8 231.3z"/><path d="M1275.4 261.4c0 0.4 0 0.6 0 1 0.2 0 0.3 0 0.6-0.1 0-0.4 0-0.6 0-1C1275.7 261.4 1275.6 261.4 1275.4 261.4z"/><path d="M1385 230.2c0 0.5 0 0.8 0.1 1.3 1.7 0.3 2.6 0.5 4.3 0.8 0-0.5 0-0.8-0.1-1.3C1387.6 230.6 1386.8 230.5 1385 230.2z"/><path d="M381.7 343c0.3 0 0.5 0 0.8 0 -0.1-1.7-0.1-2.5-0.2-4.2 -0.3 0-0.5 0-0.8 0 -0.3 1.3-0.5 2-0.8 3.3C381.1 342.4 381.3 342.6 381.7 343z"/><path d="M399.3 381.3c-0.1-0.8-0.1-1.2-0.2-2.1 -0.8 0.2-1.2 0.3-2 0.4C398 380.4 398.5 380.7 399.3 381.3z"/><path d="M381.8 330.3c-0.3 0-0.5 0-0.8 0 0.1 1.7 0.1 2.5 0.2 4.2 0.3 0 0.5 0 0.8 0C381.9 332.9 381.9 332 381.8 330.3z"/><path d="M525.9 375.7c-0.3 0-0.5 0-0.8 0.1 0.2 0.8 0.3 1.2 0.5 2 0.3 0 0.5 0 0.8-0.1C526.2 376.9 526.1 376.5 525.9 375.7z"/><path d="M501 338.4c-0.2-0.7-0.3-1.1-0.5-1.8 -0.4 0.1-0.5 0.1-0.9 0.2 0.2 0.7 0.3 1.1 0.4 1.8C500.4 338.5 500.6 338.5 501 338.4z"/><path d="M498.5 332.3c-0.4 0.1-0.6 0.1-1.1 0.2 0.2 0.7 0.3 1.1 0.4 1.8 0.4-0.1 0.6-0.1 1.1-0.2C498.8 333.4 498.7 333 498.5 332.3z"/><path d="M1117.5 243.1c1.1 0 1.7 0.1 2.7 0.2 0-0.8 0.1-1.1 0.1-1.9 -1.1-0.1-1.6-0.1-2.7-0.2C1117.6 242 1117.5 242.3 1117.5 243.1z"/><path d="M1019.6 360.2c0.2 1.4 0.3 2.1 0.5 3.5 0.7-0.3 1.1-0.5 1.9-0.9 -0.2-1.4-0.3-2.1-0.4-3.5C1020.8 359.6 1020.4 359.8 1019.6 360.2z"/><path d="M1012.6 448.8c-0.3 0-0.5 0-0.9 0.1 0.1 0.7 0.1 1 0.2 1.7 1.2 0.6 1.8 0.9 3 1.4 0.4-0.1 0.6-0.1 1-0.2 -0.1-0.7-0.1-1-0.2-1.7C1014.5 449.6 1013.8 449.4 1012.6 448.8z"/><path d="M1090.2 247.4c0.9-0.3 1.4-0.5 2.3-0.8 0-0.8 0-1.1 0.1-1.9 -0.9 0.3-1.4 0.5-2.3 0.8C1090.3 246.3 1090.2 246.6 1090.2 247.4z"/><path d="M1030.7 411.1c0.4-0.2 0.5-0.3 0.9-0.6 -0.1-0.7-0.1-1-0.2-1.7 -0.7 0.4-1.1 0.7-1.8 1.1 0.3-0.9 0.4-1.3 0.7-2.3 -0.2-1.5-0.2-2.2-0.4-3.6 -1 1.3-1.5 2-2.5 3.3 0.2 1.5 0.3 2.2 0.4 3.6C1029 411 1029.6 411 1030.7 411.1z"/><path d="M1023.8 416.6c0.1 0.8 0.1 1.2 0.2 1.9 0.7-0.3 1.1-0.5 1.8-0.9 -0.1-0.8-0.1-1.2-0.2-1.9C1024.9 416.1 1024.6 416.3 1023.8 416.6z"/><path d="M1032.6 402.4c-0.1-0.7-0.1-1-0.2-1.7 -0.7 0.4-1 0.6-1.7 1.1 0.1 0.7 0.1 1 0.2 1.7C1031.5 403 1031.9 402.8 1032.6 402.4z"/><path d="M1027.5 414.8c0.2 1.5 0.3 2.2 0.4 3.6 0.7-0.4 1-0.6 1.7-0.9 -0.2-1.5-0.2-2.2-0.4-3.6C1028.5 414.2 1028.1 414.4 1027.5 414.8z"/><path d="M1021.8 423.1c0.1 0.7 0.1 1 0.2 1.7 1.1-0.4 1.6-0.7 2.6-1.1 -0.1-0.7-0.1-1-0.2-1.7C1023.4 422.4 1022.9 422.7 1021.8 423.1z"/></svg>
