<svg xmlns="http://www.w3.org/2000/svg" viewBox="0 0 1587.6 572.7"><polygon points="1101 320.9 1097.7 327.2 1101.9 322 1100.6 319.8 "/><polygon points="1095.8 383.2 1097.7 380.3 1098.3 381 1096 379 "/><polygon points="1144.7 214 1144.2 211.8 1143.8 214.9 1145.2 213.6 "/><polygon points="1096.3 377.8 1095.5 376.7 1095.5 378.5 1098.3 379.4 "/><polygon points="1129.2 222 1132.7 221.4 1133.2 218.6 1129.6 217.8 "/><polygon points="1329.7 202.9 1329.9 199.3 1327.7 199.5 1327.3 203.2 "/><polygon points="1140.7 223.7 1140 223.9 1141.1 220.3 1141.3 220.6 "/><polygon points="1316.5 201.8 1314.8 200.5 1312.8 198.7 1313 200.9 "/><polygon points="725.8 365.1 726 365.2 727.5 366.9 726.3 365.6 "/><polygon points="1339.6 195.9 1338.2 193.5 1335.2 191.8 1336.4 192.4 "/><polygon points="1201.3 272 1199.3 273.1 1194.4 292.4 1191.9 312.3 1186.6 331.9 1189.2 332 1208.3 327.3 1224.7 316.3 1222.4 312.7 1215.7 298.9 1207.9 285.9 "/><polygon points="729.2 331.5 729.6 332.3 731.2 332.6 732.5 329.4 730.4 328.2 "/><polygon points="731.1 326.6 733.6 326.8 730.4 323.8 730.4 324.6 "/><polygon points="905.3 260.9 905.4 260.5 907.4 260 "/><polygon points="742.2 292.8 742.1 293.2 740.6 295.1 739.3 294.9 "/><polygon points="867.3 273.7 869.8 272.7 866.9 270.5 "/><polygon points="799.9 189.4 805.1 188.6 800.7 184.6 "/><polygon points="820.4 183.6 825.5 185.7 825.4 182.8 820.5 184.3 "/><polygon points="733.2 345.8 733.3 345.2 734.4 343.9 "/><polygon points="936.3 249.6 937.3 251.2 936 249.7 935.1 247.1 "/><polygon points="924.5 252.9 924.3 253.6 924.5 253.8 "/><polygon points="964.9 273.1 964.7 273 964.6 273.5 965 278.2 967.1 277.7 968.1 276.3 967.9 280.2 970.2 281.7 971.9 284.5 964.7 273.7 "/><polygon points="737.8 326.1 739.4 325.1 739 325.6 "/><polygon points="958.7 264.2 960.2 265.3 961.2 264.6 957.8 261.7 "/><polygon points="918.1 255.5 918.7 256.1 919.6 255.3 920.6 254.3 "/><polygon points="1391 255.2 1393.1 255.3 1390.7 253.8 "/><polygon points="1445 249.4 1446.3 249.9 1445.4 250.6 1445 251 1445.3 253.8 1446.1 254 1447.2 254.2 1447.9 253.6 1449.8 253.3 1451.8 254.7 "/><polygon points="1383.2 256.4 1383.8 256.9 1385.7 257 1385.9 254.4 "/><polygon points="1339.4 269.1 1338.6 267.8 1339.9 269 "/><polygon points="1369.1 258.4 1369.6 259.8 1371.7 257.7 1372 257.7 "/><path d="M1587.2 320.6l-6.9-1.1 -3-3.9 -8 1.3 -7 3.6 -8.5 1.4 -7-4.7 22.2-6.7 9.8-7.6 5.8-5.9 -0.2-6.9 -2.3-9 -7.5-7.3 -11.3-9.8 -11.9-9.1 -15.4-8.5 -15.9-10.8 -22.5-5.8 -19.5-7.8 -19.3-7.6 -17.4-5.5 -11-1.9 -15.3-6.1 -18.8-4.8 -18-7.2 -20-1.9 -16.4-3.3 -23.9-6.3 -23.2-4.4 -15.8-3.7 -15.9-3.5 -26.2-6.4 -18.5 0.3 -17.9-3.9 -18.4-3.5 -18.4-3.8 -17.6 1.8 -17.3-1.2L1113 145l-16 1.6 -15.8-1.4 -15.8-2.3 -15.8-0.5 -15.8 1.2 -15.9 1.5 -19.3-5.2 -19.7-0.3 -10.9 2.1 2.4-4.7 -9.9-10.2 -11.4-7.4 -12-12.4 -13.9-10.5 -11-13.5 -11.3-11.4 -12.5-10.2 -11-11.8 -12.7-8.1L854 31l-20.7-12.5 -13.5-9.8 -15.5-6.5V0.5l-2.7-1L794 12.1l3.2 8.1 1.8 6.2 -13.3-3.9 -4.3 8.2L770 40.1l-5.5 4.2 0.1 7.6L750.8 68 735 78.8l-1.6 6.3 10.2 8.5 -18.3-3.8 -6 12.9 -12.1 9.9 -13.9 12.6L676 138.6l0.1 6.6 -4.9 4 3.5 3.6 13.3 5.8 14.4 0.9 18.7 4.4 17.8 3.2 -17.8 7.8 -17.4 0.2 -16.9 2.4 -16 3.8 -16.3 1.8 -16.3 1.8 -15.9 4.6 -19 1.9 -18.5 5 -18.4 0.9L548 199l-17.8 5 -18 2.3 -17.9 3.2 -18.4-0.6 -17.6 3.7 -17.4 4.3 -4.9 0.9 0.6-2.4 -15.1-0.8 -20.2-7.4 -15.3-6.9 -14.2-4.8 -13.4 0.6 -15.1 4 -9.1 5.6 -3.8 7 -1.8 5.3 5.3 4.8 12.4 1.5 13.7 1.6 8.9 5.2 -2.9 0.5 -14.2 2.4 -15.4 2.6 -14.2-0.7 -14.1 2.3 -18-1 -23.4-4.4 -18-3.7 -18.6-6.6 -17.5-7.9 0.8-1.9 -15.5-9.3L183 192.8l-14.9-8.7 -16.2-6.2 -18.9-8.8 -18-10.8 -20.5-4.8L74.9 146l-17.1-2.8L41 138.9l-12.9 0.7 -6.9 4.6L20.5 155l1.2 6.5 -4.9 13.8 0.8 15.5 1.1 18.5 3.8 8.9 8.3 4.8 -8.4 5.6 -1.8 7.6 4.7 16.3 6.1 11.8 1.2 8.1 10.6 5.7 -8.4 6.2 5.6 9.5 -1 12.5 -3.2 17.9 -6.1 16.9 0.1 4.6 9.6 4.6 -15.5 7.5 -8.5 12.5 -1 13.5 -1.8 15 -5.5 10.4 -3.4 12.6 -3.2 10 18.5-1.8 18.7 0.5 15.4-1.1 15.3-2.2 15-3 15.4-2.4 15.4-3.3 15.3-3.6 14.5-6.5 14.6-5.9 13.6-4.8 13.7-4.7 17.5-5.5 18.1-3.4 3.6-1.9 23.1-7 -1 2.4 10-6.2 17.1 1.2 16.7-1.2 20.3-0.5 20.2 2.3 17.4-0.2 16.8 4.3 15.2 5.4 16 3.6 -10.3-0.9 -9 5.2 -11 0.9 -8.5 2.7 -6.5-2.3 -7.6 4.3 2.3 14.2 -2.2 18.8 1 17.6 3.4 17.1 2.3 17.8 7.3 19.2 1.8 10 3.6 3 4.2 7.5 2.9 4 4.8 3 7 3.7 11.4-1.2 18.8-10.6 19.1-10.3 24.5-8.3 19.7-13.1 19.8-7.3 10.7-8.8 12.4-5.7 18.2-9.8 14.4-8.2 13.4-5.7 12.7-6.5 14.5 1.6 14.3-0.5 15.9 2.8 15.9 1.8 16 1.6 16.2-0.8 16 4.6 16.5 0.5 16.2 2.7 21.7 3.3 21.9 1.5 8.4 1.2 -1.8 2.1 -8.9 2.9 -0.1 7 -1 6.8 -2.5 21.9 -3.5 1 -2.2 16.2 -1.4 13.3 -4 13 -0.8 17.4 0.9 7.2 4.3 5.5 7.4 0.4 5.7-2.9 21.6-15.5 12.1-10.5 11.5-11.3 12.5-10.3 13.2-9.6 4.1-6.9 4.9 7 2.3 6.5 4.8 5.3 7.4-2.4 5.7-1.8 4.7-10.3 9.1-6.8 3.5-8.6 10-8.1 4.9-15.6 0.8-1.4 15.3 2.9 15.4 3.2 18.2-3.6 18.2 1.3 18.2-1.1 18.1-1.2 18.7 2 18.1-5.3 18.6-0.2 20.9-2.1 20.7-3.6 21-1.4 15.7-3.9 16.3-0.2 15.6-4.8 4.1 0.5 0.3 19 -0.2 23.5 1.6 14 4.6 8.7 5.7 5.9 5.4-0.3 7.2-4.2 16.9-16.1 11.2-16.2 13.5-14.3 11.5-18.1 11.4-18.1 5-7 17.2-1.7 16.4-3.3 15.8-6.1 16.7-2.3 16.3-4.1 22-4.6 22.2-5.4v-0.8l-0.3-0.9 15.8-1.5 24.4-5.4 15.7-2.4 14.7-6.3 18.8-3.5 18.9-3.1 17.8-7.2 14.2-4.6 13.8-5.6 15-4.8 11.8-10.4 12.5-10.5 5.7-5.7L1587.2 320.6zM672.5 292.1l1.2-1.9 -3 1.1 -1.1 0.7 1.2 1.3 -1.9-1.6L672.5 292.1zM650.9 328l3.6 1.3 -1.1-1 0.6-0.3H650.9zM537.7 422.7l-4.2 8 -6.5 8.1 -4.9-2.1 -10.6 9.8 -16.9-1.9 -4-4.5 2.1-4.7 -2.5 2.9 -1.1-1.5 -12.8-14.5 -9.1-17.1 -8.8-17.3 -6.9-18.1 -4.3-18.9 -5.1-18.3 -12.6-5 2.8 1.5 -0.5 2.4 -2.5 3.4 1.4 0.3 -2.2 0.7 1.2 3.4 -0.7 16.8 -8.5 14.3 -13.2 6.1 -0.2-1.2 -2.5 0.7h-5.4l-17.4-5.5 -16.5-8L350.8 351l-16.4-8.6 -13.3-12.7L307.9 317l-6.9-2.3 -11.3 15.6 -14 11.5 -0.3 0.7L274 345l-3.2-1.2 -2.9-20.3 3.6-19.7 12.7-12 17.3-6.9 2.2 3.5 6.2 14.8 17.3 7.8 15 12.1 16.7 9.2 17 8.6 16.4 9.9 6-0.9 16.3-11 5.9-20.5 4.2-3.3 -2.7-3.7 -1.5-0.8h2.9l-4.1-0.4 1.2-4.7 0.9-0.4 -0.2-1.1 1.1-1 -0.1-2.4 1.5-0.9 -4.7-1.3 2.2-1.6 0.6 1.2 -3.7-6.4 2.8-3 -0.3-1.3 -6.6-15 -3.1-16.6 -8.4-14.4 -9.9-13.6 -14.2-8.8 -13-6.7 -11.8-8.6 -1.1-2.4 13.1 5.1 16 8 12.8 12.6 11.9 13.3 9.5 15.2 10.9 14.3 4.5 0.5 -6.7 4 10.3 13.8 -6.8 4.1 -1.2 2.7 7.8 8.2 -3.7-0.2 0.8 1.3 0.5 6.7 -1.1 3.4 3.6 3.8 -4.2 7.1 5.6 2.8 8.8-0.1 8.3-14.5 13.6-10.2 14-10.9 9.3-15.3 7.9-16 9.3-15.2 11.3-14.3 3-20.8 8.4 18.3 0.8 19.6 1.2 18.8 -5 10.7 -8.9-0.3 -14.5 9.5 -11.3 13.6 -10.5 14.8 -8.7 16.1 1.5 2.3 10.7 1.6 18.4 2.6 19 0.6 9.4-16.1 6.8-6.5 8.1 14.2 -0.4 21.9 -8.3 20.5 -3.6 0.3 -17 1.4 -15.1-7.9 -15.1-8L475 346.3l-1.4 3.9 6.3 16 7.3 15.7 11.9 12.6 13.5 9.2 17.7-0.2 13.7-12.6 13-12.9 -0.4 2.8 9.3-10.6 4.4 4.5 -8.7 17.8L551.3 409 537.7 422.7zM567.3 370.4l-1.4 2.8 2.9-3.7 3.3-7.4 -0.6-1.5 1.9 3.4L567.3 370.4zM655.9 365.9l-1.9-0.5 1.4 2.7 -0.5-2.3L655.9 365.9zM656.2 362.2l-1.2 1.6 2.8-0.6 1.4-0.6 -0.9-1.4 1.7 1H656.2zM724 371.6l-0.9 0.6 3.7 0.3 -2.5-1.6L724 371.6zM739.7 280.5l3.7 2.4 -1-0.6 0.6-1.3 -2.5 0.2 1.5 1.3 -0.3 2.3h1l-1.6-0.8 -0.1 0.7 1 2.1h-1.1l1.1 2.8 1.1 3.8 -1.3 1.6 -1.1 5.2 -1.9 1.8 2.6 2.5 -0.8 3.2h-0.9l0.3-2.1 -0.2-0.1 -0.5 2.4 0.9 4.6 -2 3.3 0.1 6.7 0.2 1.6 -0.7 0.7 0.9 0.7 0.4 1.3 -1.7 7.3 -1.1 1.3 2.8-0.7 -2.8 6.1 -0.6 0.7 -1.1 0.1 0.3 11.7 -1.2 3.3 -3.1 4 0.4 1.1 -7.8 10.2L722 373l0.2-0.8 -2 5.7 -2.7 5.5 -1.7-0.4 1.8 1.5 -1 3.2 -3.1-3.6 0.5 2.7 -1.8 0.3 -13.5 8.9 0.3 5.6 -2.8 2.8 -0.7 0.9 -1.7 0.8 -2.7-0.9 -0.2 3.2 -0.8-1.1 -9.4-1.9 -9-17.9 -1.6 0.6 -3.6-9.9 -6-19.4 -2-0.1 1.4-2.6 -1.3 1 0.7 0.2 0.4 1.8 -5.1 11.1 -3.3 0.4h2.3l2.1 0.5 -3.9 4.2 0.8 1.2 -2.8 4 1.7 1 0.5 17.8 -9.1 14.7 -0.8 3.9 -2.2-1 -4.9 1.6 -14.7-9.7 -4.7-4.9 0.8-2.4 -1.3-2.2 -1.5-7.1 4.3-2.6 -7.6-6.3 -1.8-9 -3.4-4.2 -2.5-2.7 -3.1-4.4 -0.1-0.6 -2.1-0.9 1.6-1.9 0.2 2 -2.1-2.1 1.5-2.2 -2 1 -1.9-1.1 -1.3-1.4 3-3.7 -4.3-4.9 -0.6-0.8 -1.3-3.4 0.5-1.6 -2-4.1 -0.8-2.9 0.8-0.8 1.8-2.2 -4.2-5.8 -0.7-2.7v0.5l-2.3 0.2 1.2-2.6 1.3-0.8 -4.1-9.2 -1-3.1 -1.5-1.7 3.5-4.8 -1.2-0.8 -3.3 1 -0.1-4 -1.8-5 -1.1-14.9 -1.7-14.9 -0.6-1.2 0.3-26.2 0.3-3.2 4.5 0.1 10.9 3 9.5 15.9 2.8 6.2 2 0.4 1 2.8 -1.7 5.7 1.3 3.9 -0.4 2.2 -0.2 4.8 -0.4 2.9 1.2 3.7 1 3.3 -0.4 13.6L609 327l-2.2 0.6 6.7 24.2 3.4 4.9 4.1 7.5 1.5-0.8 1.2 2.2 -1.3 0.7 -1 1.7 6.3 3.5V371l1 0.4 9.3-3.5 -1.2-2.1 0.7-1.6 -0.2-1.6 -0.5 1.5 8.7-7.7 2.3-5.1 -2.8-0.1 2.5 0.3 0.7-3 -2.1-2 2 2.1h0.4l1.1-1.5 -0.8-0.9 1.2-0.4 -2.1-0.3 -0.5-0.8 3.5-7.3 -0.1-4.2 2.1-2.7 -0.6 0.3 1.4 0.5 0.1 2.2 -0.6-0.9 -1 0.4 0.4-2.1 1.9-3 -1.2-0.5 -0.5-1 3.3-0.4 -2.1-0.2 0.4-0.7 2.4-4 -1.7-2.8 2.4-2.4 -4.1-1.7 3.4-5.3 -2.5-6.3 -2.3-0.9 2.2-3.4 3 1.5 -2.4 0.6 1.3 1 -1.2 4 2.3-0.4 9-11.1 0.2 1 -0.6-4.2 -1.2 0.7 2.3-2.4 -0.2-0.4v2.2l2.2-1.1 2 1.8 -1.5 2.5 -1.7-2.2 4.3 10.5 3 9.8 1.3 3.7 2.4 1.6 -3.1 2.9 2.6-0.1 -2.5 1.3 1.9 2.6 -0.9 0.6 -1.4 0.3 0.8 1.1 0.4 20.4 7.9 18.4 4.5 7.3 5 3.5 2.4 1.1 12.3-6.3 -0.6-0.1 1.7-0.1 2.1 0.3 -2.4-1.8 3.7-4.4 -2.2 3.1 2.3-0.1 9.4-15.5h-1.1l-1.2-1.3 2.9 2.9 -3.6 0.3 1.6-2.4 -0.5-3.3 1.2 1.1 1 0.6 -0.9 0.1 3.7-4.2 2.1-1.7 -3-0.9 -0.4 3.8 -2.3-2.2 2.9-4.5 1 3.2 2.2-9.2 1-1.5 0.8-0.2 0.7-11.4 1-0.2 -1 0.5 1.8 1 -1.1-2.7 3.2-6.5 -0.2 1.3 -3.8-1.2 -0.7 1.6 3.5-3.4 -1.1-1.7 2.5 2.5h-1.2l2.5-7.3 -3.1-6 1.3-3.5 -0.2-1.4 -1.5-1.1 3.9-3.6 -4.4-1.3 1.8-3.4 -0.2-5.5 -0.8-1.9 -0.9-17.9 -0.8-2.4 -1.9-12.6 -11.3-17 -12.2-15.8 -11.4-6.5 -7-3.3 -0.1-2.9 1.5-0.3 8.6 2.3 0.5-0.2 0.9-0.6 -0.8 3.5 2-0.7 1.4-1 0.2-1.2 5.4 1.7 -1.1-1.4 1.6 1.1 -0.4 0.1 8 2.4 3.2 5.8 1.7-1.2 -0.5 5.4 2.1-1.2 0.5 0.2 2.5 0.7 -2 0.7 7.1 9.3 0.8 0.1 0.7-1.6L739 246l-2 3.7 3.8 4.2 -0.4 4.3v-0.9l-1.5 3.1 2.4 1.5 0.8 2.1 -3.3 0.7 2.1 0.5 -1.2 0.7 1.4 2.6 -1 1 0.1 3.9 1.5 1.2 0.1 1 0.4 3.9 -0.9 0.2L739.7 280.5zM654.9 311.2l0.8-2.4 -2.6 1.8 1.7-0.4L654.9 311.2zM716.4 361.8l-0.9-5.1 0.5 2.6 -1.8 1.7 0.8 1.2L716.4 361.8zM735 301.8l0.6-0.9 -1.9 1L735 301.8zM1296.9 178.7l3.7 2.7 -1.9-1 0.4-1.8L1296.9 178.7zM1120.4 196.2l1.6-1.6 -3.3 3.5h1.6L1120.4 196.2zM821.4 261.2l2.3 17.2 -4.7 16.4 -2.1 16.7 0.1 16.9 0.5 16.8 0.4 8.7 -5.3 7.7 0.4 17.3 -1.5 17 -1.5 20.8 0.7 5.8 -1.9 8.6 3.1 14.1 -1.3 4.1 -2.8-0.3 -1.6 1.7 6 4.4 -2 9.5 -6.3-21.5 -1.9-21.9 2 0.1 -2.3-7.7 1.2-3.5 -0.5-4.3 0.8-7.3 -2.7-20.3 -2-20.3 0.8-1.8 -1.7-19.2 -2-19.2 -0.2-19.4 -4.9-18.9 -1-19.3 2.9-15 -0.6-25.2 3.9-8 10.7 0.3 13.9 22.3 21.5-4.6 21.3-1.6 -0.3 4.4 17.9-3.4 -0.5 0.7 16.7-4.3 17.4-1.2 13.3-11.1 -0.6-4.3 -11.5-13 -19.3-3.8 -19.6-0.9 -19.6-1.7 -18.7 5.5 -2.1-4.1 -3.4-0.5 -25 4.6L806 192l-2.4 1.9 -15.2 8.2 -9.5 14.6 -9.9 14.4 -5.9 1.4 -2.2-5.4 -1.2 2.3 -4.7-16.2 0.7-17.1 -2-17 0.5-2.7 3.4-0.6 11.3-4.3 0.8 4.8 5.1-6.3 7 0.6 17-0.4 2.5 1.5 4.4-3.2 14.8 1.7 3-4.6 23.8 8 3.3-3.8 8.2 0.8 13.7 1.7 13.5 3.8 8-2.2 19.6 5.4 14.5 5.9 9.5 13.7 -4.5 15.7 -8.4 14.8 -17.1 3.7 -16.8 2.4 -16.9 3 -17 0.5 -1.6-2.7 -3 1.9 -25.1 4.2L821.4 261.2zM853.2 281.1l-3.8 3.1 1.8-2.1 1.9 0.6L853.2 281.1zM1053.4 418.9l-2.6 6.7 -5.2-8 -14.5 9.2 -16.6 5 -17.7 2 -17.6-2.4 -17-5.4 -17.7-0.8 -15-2.7 -15.2-1.7 -14.8-3.8 -16.2-6.3 -14.9-9.3 -10.1-14.6 3.6-16.3 12.8-8.9 8.4-17.3 11.6-14.2 12.5-13.4 13.2-12.6 15.4-9.4 17-1.2 14.4 10.3 -1.1 3.5 1 1.5 -11.6 11.7 -17 2.5L925 335.6 912.6 349l-9.8 15.3 -9.2 15.9 1.6 1.1 13 6.4 13 6.9 18.4 7.1 19.7 2.7 19.3 3.8 2.2 5.6 -2.2-5.4 3.5 0.7 1.7 4.5 10.3-1.3 2.1 1.1 2.4-1 19.4-1.9 4.8-2 3.2 2.8 1.5-3.4 0.9 0.6 1.9 3.5 6.9-9.8 0.8 1.1 0.5 1.7 8.7-20.7 -2.8-6.2 -10-19.7 -16.6-14.6 -0.1 0.9 -2 1.7L998 325.8l-10.2-12.9 -7.9-14.5L972 284l-1.9 1.8 -0.1-3 -1.3-0.4 -2.3-3.2 -0.9 0.9 -0.5-1.6 2.3-1.5 -2.2-3.5 -0.9 0.5 -0.5-2.9 0.1 3.2 0.1 7.1 1 1.2 -1.5 0.1 2.3-7.9 -2.7 2 -1.6-1.9 -0.4-4 -1 0.1h-0.1l-0.6-6.1 -2.9-0.6 2 2.5 -3.6 3 -2.2 0.6 0.1-7.9 -5.7-2.8 -1.5-1.4 -0.9-1.2 -2.7-0.2 -0.7-0.1 -0.9 0.5 -2.1 1 -3.9-6 -3.2-0.1 -0.7-0.1 -4.7 2.8 2.5-1.3 -2.8 1.7 -1.5 0.5 0.7 0.3 -3.7 1.2 -2.1 1.8 -0.3-0.8 -11 2.7 -0.8-1.1 -0.3 2.3 -1.1-1.8 -12.9 3.5 -23.9 10 3.3-3 -1.6 3.3 -2.3-1.3 -0.3-0.1 -19 8.1 -21.8 6 19-12.5 17.2-11.8 17.6-11.5 20.4-7 18.6-11 2.3 2.7 0.5 0.8 15.5-5.8 -0.4 3.6 6.2-3.7 -0.6 4.7 5-0.3 2.6 2.4 2.6 5.3 4.9-1.2 4.3 4.1 -1 4 2.2-2.4 11.1 22.2 0.2-1.9 0.9 1.7 2.2 2.1 0.9 1.2 -1.4 1.6 0.4 1.8 3.9 10.1 -1.7-6.6 8.9 11.2 10.7 9.3 3.3 3.8 -1.6-2.3 3.2 0.6 8.6 12 4.7 3.6 1.8-1.2 12.9 11.1 7.7 15.4 9.8 13.5 5.6 15.7 6.4 15.7 0.7 1.7 -1.9 6.1 -0.1 13.2L1053.4 418.9zM862.6 276.1l-1.6-2.2 3.2 3 -0.4-0.9L862.6 276.1zM1140.4 227.1l-0.3 2.5 -4.4-5.9 -6.6 2.5 0.7-0.2 -5.9 3.6 -0.4 2.2 -1.5 0.3 0.9 5.2 -3.2 16.7 0.6 4 -2.2 22.5v0.2l1.4 1.8 -3.5 16.2 -2 16.3 -3.4 1.4 2.9 2 1.1 3.9 -2.1 0.2 0.7 1.8 -0.8 2 -3.6 8.8 2.2 2.8 -3.3 7.3 -0.5 2.3 1.3 11.2 -3.7 17 1.2 9.4 -3.3 19.2 -2.9 19.2 -0.7 5 1.5 0.2 0.7 13.8h-2.8l-2.1-18.1 -5-18.2 2.3-4.4 2.1-0.8v-3.9l-2.2 0.7 2.9-2.2 1.3-10.1 -3-8.3 -1.2-4.3 4.1-1.1 -1.5-2.3 -3.2-3.6 5.6-6.4 -1-16 -1.2-17 1.5-16.8 -1.1-17 2.9-16.7 1.6-0.6 -2.5-23.4 1.4-3.7 -0.8-7.9 2.1-5.7 -19.4-1.4 -19-3.9 -1.3-5.2 4.9 0.1 -15.8-7.7 -17.5-4.1 -14.1-17.4L1007 177l0.5-20.6 19 4.4 16.3 9.8 13.6 13.5 16.1 5.1 16 3.9 15.4 6 0.1 3 4.9-1.6 20.5 5.5 1.7-4.1 5.8 5.4 8.8 0.4 0.5 2.4 0.8-2 0.1 1.1 3.2 4.7 1.6-0.3 1.5-1.1 1 0.9 0.9 1.8 1.1-2.5 10.7 16.1 -0.6 0.7 0.3 2.8 -0.4-0.9 -7.9-6.6 -3.4 2.3 -3.7-8.1 0.8 0.7 -1.8 0.8 0.4 0.6 0.1 3.4 -2.9-1.1 1.3-3.4 -8.7 3.9 1.4 2.5L1140.4 227.1zM1268.7 414.8l-8.4-13.8 -4.5-17.4 -8.8-15.5 -13.5-11.8 -16.4-4.5 -7.7-0.8 -18.8-0.3 -13.4 13.3 -2.8 18 -9.1 19.5 -15.5 14.8 -4.8 0.8 -0.9-5.3 5.9-18.9 6-18.7 8.1-18 1.5-18.1 4.8-17.2 4.3-17.4 2.8-17.7 2.5-17.8 1.7-17.8 0.6-20 4.4-18.4 11.4 7 10.3 11.1 8.3 12.8 10.4 15.2 8.7 16.2 8.1 16.5 5.6 17.6 9.4 16.1 5.1 17.8 3.9 18.8 2.9 18.9 4.8 18.9L1268.7 414.8zM1325.1 394l-8.7-15.1 -2-17.2 2.5-3.1 -2.9-1.7 0.1-2.8 -2.3 0.4 3.3-2.5 -2.6-8.3 -3.6-7.8 -1.4-3.4 1.4-1.7 -1.1-1 -3-3.3 3-5.3 -5.1-14.4 -3-19.3 -6.4-18.8 -2.1-19.5 2.1-0.5 -4.7-20 0.2-3.3 0.5-6.6 -1.4-4.3 -15.6-2.4 -15.5 2.4 -0.2-2.1 2.6-2.5 -26.1-3.9 -12.7-12.1 -8.6-15.2 2.3-18.4 18.9 3.1 16.5 11.8 17.8 5.7 18.6 1.7 0.6-0.3 3.5-2.9 19.1 8 1.6-4 10.2 2.4 15.9 3.1 1.9 1.9 1.8-2.8 2.3-1.4 6.4 6.6 2-3.1 4.5-1.2 1.1 4.7 2.2-1.5 1.4-0.5 16.6 5.5 17.5 2.6 -1.1 1.7 -3.4 2 -1.5 1.1 -20.2-4.6 -5.7 3.1 -10.8-6.9 -0.7 1.8 -0.8-0.7 5 0.9 -5.1 2.8 -2.3-1.1 -1.3-2.6 -15.5 4.7 2.7 2.3 0.2 2.2 -2.3 0.7 -9.2-1.8 -8.6-0.1 0.1 0.6 -6.4 2.4 -2.3 2.4 1.5-0.4 -0.7 4.5 1.2 14.6 2.8 3.1v19.9l0.7-0.2 0.9 1.7 2.1 13.9 0.1 14.1 -0.7 1.7 -0.5 2.6 4.6 2.1v0.1l-2.1 2.5 3.8 0.9 -4 7.9 0.4 2.6 2.1 6.3 -1.6 1.8 2.7 9.8 2.4 14.7 0.7 8.2 2.4 17 -1.7 17.1 0.3 4.7 1-0.1 3.3 12.6L1325.1 394zM1330 275.6l-2-1.5 2.8 2.8 -0.2-1.4L1330 275.6zM1337 271.1l-2.2-1.7 2.7 2.8 -0.3-1.2L1337 271.1zM1515.3 311.3l2.8 5.4L1507 328l-14 5.3 -6.1 4.2 -4.1-2.2 -13.8 7.4 -15.5 5.6 -13.4 9.4 -14.6 7.2 -14.2 8L1389 379l-19.3-4.7 -16.7-12.2 1.7-14.5 8.3-10 11.3-14 7.8-16.8 12.4-13.5 14.1-11.7 15.9-8.6 17.5 0.1 -0.1 0.8 1.4 1.7 -13 12.8 -14.4 10.8 -13.2 15.9 -11.2 17.2 -5.5 19.8 -0.2 1.5 16.2 1.3 15.7-0.7 14.2-7.4 1 2.8 1.2-2.6 -0.3 1 1-1.6 6.8-5.6 1 4 1.4-2.4 15-11.1 4.9-0.5 2.5 2.7 1.2-6.3 3.4-1.3 -1.3 5.4 7.8-10.9 2-0.3 0.4 2.6 19-18.3 0.5-5.7 -2.5-15.2 -10.6-10.9 -1.4 0.3 0.4-0.1 -12.3-7.3 -22.6-11.9 0.1 2.3 -2.1-1 -1 1.1 -1.2-1.3 -0.7 1.6 0.1-2.5 0.7-0.1 -2.1-2.8 1.3-1.2 -0.8 1.5v1.3l1 4.2 -0.4 2.5 -0.9-1.2 -2.3-3.6 0.4 3.1 -1.8-2.2 0.2-2.7 -3.4 0.5 1 0.9 -3.2-1 -2.8-2.2 2.2 2.8 -0.9 2.8 -2 0.6 -2.7-4.2 -7.6 1.7 -0.4-2.1 -1.9 1.9 -4.3 2.5 0.3-5.1 -0.6 5 -2-2.7 -8.1-2.4 -4.5 2.7 -1.3-2.1 -6.8 1.9 2.8 0.4 -0.8 2 -3.5 1.7 0.7-2.9 -6.2 0.4 0.7 4.2 -1.7-1.8 -11.2 2.6 -0.8 0.1 -2.1-1.7 -11.7 2.8 -17.5 7.3 0.9-0.5 1.2 2.1 -3.6-0.3v-3.2l-12.8 5.7 -10.8 8.7 13.1-17.1L1345 250l16.4-6.7 16.9-4.3 0.9 2.8 2.1-1.7 21.2-4.6 -0.2 1.4 9.4 0.6 1.1 0.5 6.9-2.7 5.4 1.4h4.8l4.8-0.9 5.6 0.9 0.7 0.9h1.3l16.5 1.6 1.6-0.4 -0.2-0.9 0.7 1.4 0.1-1.4 1.1 2.6 0.2 1.2 2.3 3.4 3.8-7.9 16.9 3.4 1.7 1.9 1.2-1.1 1.8-1.7 7.5 5.7 -0.5 4.8 3.6-2.6 7.5 14.9 5 15.3 3.9 15.7 -0.6 16.3L1515.3 311.3z"/><polygon points="1435.2 252.1 1439 252.5 1439.1 248.9 1436 250.7 "/><polygon points="1404.5 251.6 1407.8 251.8 1407.3 250.2 1405.5 250.8 "/><polygon points="739.1 318.3 736.7 323.2 737.1 322.7 739 318.1 "/><polygon points="655.6 306.2 655.7 306.9 655.9 307.3 654.2 306.6 "/><polygon points="715.3 380.9 716.3 379.8 716.8 381 "/><polygon points="1310.7 337.6 1311.6 341.3 1313.7 339.7 1315.1 337.1 "/><polygon points="1301.6 287.2 1301.1 293 1305.2 288.5 1302.4 286.4 "/><polygon points="722.6 372.9 721.3 373.8 721.6 373.6 720.9 372.8 "/><polygon points="717.6 376 717.6 379.7 715.9 380.3 716.1 379.1 719.8 378.1 719.7 377.2 "/><polygon points="1309 335.5 1309.3 338.1 1313 338.7 1311.6 335.7 "/></svg>
