<svg xmlns="http://www.w3.org/2000/svg" viewBox="0 0 1587.6 572.7"><path d="M495.2 244.4c0 0.8 0.4 3.2 0.4 4 1.8-0.8 2.6-2.7 4.4-3.3 0-0.8 0-0.5 0-1.4C498.2 244.4 496.9 243.6 495.2 244.4z"/><path d="M517.3 237.7c-0.7 0.1-0.4-0.1-1.2 0 0 1.6-1.3 3.1-1.3 4.7 0.7-0.2 1.6-1.2 2.2-1.3C517.1 239.5 517.3 239.4 517.3 237.7z"/><path d="M472.7 412.9c0 0.6-0.2 1.2-0.1 1.9 1.8-0.8 3.4-0.7 5.2-1.5 0-0.6-0.9-3.3-0.9-3.9C475.1 410.2 474.5 412.2 472.7 412.9z"/><path d="M527.5 226.8c-1.2 0-2.6-1.3-3.7-1.2 0 0.9 1.8 1.2 1.7 2.1 1.1-0.1 1.3 1.7 2.5 1.6C528 228.4 527.5 227.6 527.5 226.8z"/><path d="M852.7 245.3c-0.5-2.5 0.7-4 0.3-6.5 -1.9-3.7-4.2-7.5-6.6-11.1 -2.3-3.6-5.1-6.9-7.8-10.2s-6.2-5.8-9.3-8.8 -6.4-5.5-9.8-8c-3.5-2.5-6.4-6.1-10.3-7.9 -5.1-0.4-10.2-0.6-15.1 0 -4.9 0.7-9.4 2.7-14.4 3.7 2.3 3 4.7 5.8 6.3 9.3 1.6 3.4 1.2 7.6 2.2 11.3s3.7 7 4.2 10.8 -1.2 7.7-1 11.3c-1.9 6.6-1.9 10.1-3.9 16.8 0.2 2.7 0.6 3.7 0.8 6.5 3.8 2.6 5.5 5.8 8.3 8 2.7 2.1 5.9 4 9.5 7 3-1.1 7.6-1.6 12.3-3 3.7-1.1 7-4.5 11-6 3.9-1.5 7.5-3.3 11-5.2 3.9-2.2 6.9-4.3 9.3-7.3C852.2 252.7 853.3 249.8 852.7 245.3z"/><path d="M467.3 410.4c0 0.6 0.8 0.8 0.8 1.5 1.7-0.8 2.9 0.2 4.6-0.5 0-0.7-0.3-0.5-0.3-1.1C470.7 411 469 409.6 467.3 410.4z"/><path d="M459.6 363.3c0.1 2.1-0.7 3.6-0.6 5.7 1.9-2.4 3.6-4.1 5.5-6.5 -1-0.2-2.3-0.1-3.3-0.3C460.2 362.7 460.6 362.8 459.6 363.3z"/><path d="M1128.9 240.7c-0.7 0.2-0.1 0.2-0.8 0.4 -0.9 3.6-2.4 6.9-3.2 10.5 -0.8 3.6-2.6 7-3.3 10.7 -0.7 3.6-0.9 7.4-1.6 11s-2.2 7.2-2.8 10.8c-0.6 3.7-1.2 7.3-1.7 11s0.4 7.5-0.1 11.2c0.4-0.2 0.7-0.1 1.1-0.3 2.4-2.7 3.9-6.2 6.5-8.5 2.6-2.5 6.1-3.8 8.8-6 2.7-2.2 4.9-5.2 7.8-7.3 2.8-2 5.9-3.5 9-5.3 -0.3-1.5 0-1.9-0.4-3.4 -2.3-3.8-5.3-7.2-7.5-11 -2.2-3.9-4.3-7.8-6.3-11.7C1132.4 248.8 1130.7 244.8 1128.9 240.7z"/><path d="M1586.5 324.2c-1.5-2.5-1.9-2.8-4.4-4.2 -1.7-0.9-2.4-1.7-4.3-1.6 -3.9 0.3-3.7 2.2-7.5 3.2 -3.7 1-3.7 0.8-7.5 1.1 -4.1 0.4-4.3 2.6-8.4 1.8 -3.5-0.7-8.2-0.6-6.6-3.8 2.7-5 4.7-3.6 9.9-5.9s5.9-0.8 10.9-3.3c5.4-2.7 5.7-2.3 10.6-5.9 3.3-2.4 2.5-2.9 4.3-6.6 1.5-3.1 1.3-2.7 0.8-6.1 -0.6-4.7 1.6-5.6-0.7-9.7 -2.6-4.6-4.5-3.3-8.2-7.1 -5.3-5.4-4.5-6.3-10.5-10.9s-6-4.8-12.4-8.6c-7.6-4.5-8.6-2.8-16.3-7 -4.2-2.3-3.8-2.9-8-5.1s-4-2.5-8.3-4.6c-5.2-2.4-5.8-1-11.1-3.2s-4.3-4.5-9.7-6.6c-4.9-1.9-4.8-2.2-9.8-3.9s-5.7 0.5-10.7-1.3c-4.9-1.7-4.8-2-9.7-3.7s-4.8-2-9.7-3.6c-4.3-1.4-4.5-1-8.8-2.3s-4.3-1.4-8.7-2.3c-5.5-1.1-5.5-0.9-11-2.3 -8-2.1-7.2-4.4-15-7.2 -4.6-1.6-4.9-0.8-9.4-2.4s-4.5-1.9-9.1-3.4c-4.6-1.4-4.5-1.8-9.2-3s-5.2 0.9-9.9-0.3c-3.7-0.8-6.5-1.4-9.7-1.8 -2.9-0.3-5.8-1.4-9.8-2 -8.2-1.7-8.1-2.1-16.3-4 -6-1.4-6.3-0.1-12.3-1.6s-5.5-3.5-11.5-5c-5.7-1.4-5.7-1.6-11.4-3s-5.9-0.5-11.7-1.9c-5.3-1.2-5.2-1.4-10.5-2.6 -5.3-1.3-5.5-0.5-10.7-1.7s-5.4-0.7-10.7-1.8c-6.6-1.3-6.3-2.7-13-3.9s-6.5-1.9-13.2-2.9c-6-1-6.1 0.2-12.1-0.7 1.6 0.3 2.3 0.9 3.6 1.8 3.6 1.7 6.9 3.6 10.1 5.5 3.4 1.9 6.8 3.8 9.9 5.9 3.2 2.2 6 4.9 8.9 7.3 3 2.5 6.3 4.5 8.9 7.3s4.7 6.1 7 9.2c2.3 3 3.4 6.8 5.4 10.2 1.9 3.2 5.7 5.6 7.3 9.1 1.6 3.4 3.7 6.9 5.1 10.6 1 4.6-1.1 9.8-0.4 14.5 0.6 4.7 3.1 8.4 3.5 13 3.7-1.3 6.9-1.3 10.6-2.6s7-3.7 10.6-5.1c3.7-1.4 7.2-3 10.9-4.4 3.6-1.4 7.1-3.3 10.7-4.8s7.1-3.2 10.6-4.9c4-1.8 7.9-4 11.9-6.1s8.6-3.5 13-4.4c3.3-0.6 6.8-0.8 10.1-0.6 3.2 0.2 6.5 2.8 9.8 1.7 6 0.7 11.6 1.8 11.5 4.7 -0.1 3.3-4 5.7-7.5 7.1 -3.1 1.2-7 0.6-10 1.2 -4.4 0.9-8.7 1.9-12.7 3.2 -4.2 1.4-8.3 2.8-12.3 4.5s-8 3.4-11.9 5.4c-3.8 1.9-6.5 6.2-10.4 8.2 -3.8 1.9-7.7 3-11.7 4.9 3.8 1.6 8.3 1.9 13.2 3.2 4.5 1.2 8.7 3.8 13.1 5.1 4.9 1.5 9.1 3.3 12.6 5.5 3.6 2.4 8.1 5.3 11.3 9.5 3.2 4.2 4.6 9.9 7.6 12.9 2.7 2.7 5.7 5.1 8.4 7.7 2.8 2.6 6.6 3.9 9.5 6.4 2.8 2.5 4.2 6.7 7.2 9.1 2.9 2.4 7.5 2.6 10.6 4.9 3 2.3 6 4.6 9.1 6.7s5.5 5.3 8.7 7.3 6.9 3.2 10.2 5.1c0.8 0.4 0.5 2.4 1.3 2.8 4.5 1.3 7.2 0.5 11.6 1.6 0.6 1.3 1.5 2 2.1 3.3 -0.2 0.9-1 1.6-1.2 2.5 -3.7 0-7.4-0.6-10.9-1.3 -3.6-0.7-7.5-0.7-10.9-1.9 -3.4-1.2-6.5-3.4-9.9-4.9 -3.4-1.4-7.3-2.3-10.6-3.7 -0.7-1.4-0.5-2.8-1.3-4.2 -4.3-1.6-6.6-2-10.9-3.5 -0.9-0.5-2.2-0.4-3-0.9 -0.7-1.3-0.2-2.5-0.8-3.8 -1 0.3-1.5 0.5-2.5 0.8 -3.9-3.1-6.5-3.9-10.4-6.8 -0.9-0.5-0.7-1.2-1.6-1.7 -3.3-0.8-5.3-0.5-8.5-1.1 -3.9-3-6.9-6.2-10.1-8.3 -3.7-2.4-6.7-5.6-10.8-7 -3.6-1.3-7.8-1.8-12.7-2.6 -3.8-0.6-7.7-0.7-11.5-1.2s-7.7-0.4-11.5-1 -7.4-2.4-11.2-3.1c-3.8-0.7-7.8-0.1-11.6-0.9 -3.2-1.2-6.2-3.3-9.4-4.5 -3.3-1.1-6.7-1.7-10-2.9 -3.3-1.1-6.5-1.8-9.8-2.9 -1.3 0.3-3.2-0.6-4.5-0.3 0.6 4.3 3.8 8.6 4.3 12.8 0.5 4.3 0.4 8.6 0.8 12.9s-0.4 8.6-0.1 12.8c-1.3 1.2-0.2 1.7-1.5 2.9 1.4 0.5 1.7 0.6 3.2 1.1 -0.1 3.3-1.6 7.7-1.6 12 0 3.8-0.8 7.7-1 11.6 -0.2 4 1.4 8.2 0.6 11.8 -1 4.1-3.1 7.6-5.3 10.5 1.3 0.5 2.1 0.6 3.5 1.1 0.3 4.8-0.6 9.8-0.3 14.6s1.9 9.5 2.3 14.3c1.5 3.7 3.2 5.9 4.7 9.5 -2.4 0.8-4.7 2.2-7.1 3 -3.7-0.3-8-2.8-10.8-6 -2.4-2.7-4.8-6.3-6.6-9.9 -1.8-3.5-2.1-7.8-3.4-11.2 -1.7-4.3-4.2-8.2-5.3-10.8 1.2-1.2 2.3-1.1 3.5-2.3 -3.4-0.7-4.8-5-7.2-9.5 -1.7-3.3-4.5-6.6-5.8-11 -1.1-3.8-1.4-8.1-2.3-12.3 -0.9-4.1-1.7-8.2-2.3-12.3 -0.7-4.4-1.7-8.6-2.2-12.3 -0.7-5.4-0.7-10.1-1.2-12.6 -1.7-2.4-1.7-3.6-3.4-5.9 0.6-3.7 0.8-6.9 1.5-10.6 0.6-3.7 0.2-7.6 0.9-11.2 0.6-3.7 1.3-7.4 1.9-11.1s2.1-7 2.8-10.7c1-0.1-0.4-0.9 0.6-1 -0.5-1.5-0.3-1.2-0.8-2.7 -1 0.1-1.4-0.3-2.5-0.2 -0.6-3.6 0.3-6.6-0.2-9.3s-2.2-5.1-2.9-8.6c-1.8-3.8-1.8-6.1-3.7-9.8 -0.3-1.6-0.9-5.9-2.3-11.6 -0.8-3.5-2-7.3-2.9-11.6 -0.8-3.8-2.1-7.6-2.8-11.6 -0.7-4-2.2-7.9-2.5-11.7 -0.4-4.4 0.4-8.5 0.6-12 0.3-5.2 1.2-9.1 3.7-10.8 -6.8-2.2-6.9-2.3-14-3.3 -6.2-0.9-6.2-0.6-12.4-1.5 -6.2-0.9-6.4 0.6-12.6-0.2 -6.2-0.9-6.2-1-12.4-1.7 -5.7-0.7-5.6-1.7-11.4-2.1 -5.8-0.5-5.7-1-11.5-1.5s-5.9 1.1-11.7 0.7c-5.9-0.4-5.9-1.4-11.8-1.8 -5.9-0.3-6 1.5-12 1.2 -5.9-0.3-5.9-0.5-11.9-0.8 -5.9-0.3-5.9-0.6-11.8-0.8 -6.3-0.2-6.3-0.8-12.6-0.9 -6.3-0.1-6.3 0.6-12.7 0.6 -6.3-0.1-6.3-1.8-12.6-1.9 -6.3-0.1-6.3 0.1-12.7 0s-6.4 1.3-12.7 0.9c-6.5-0.4-6.4-2.2-12.9-2.9s-6.6-0.4-13.1-1.1 -6.5-1.8-13-2.1c-5.4-0.2-5.5 1-10.9 0.8 0.7-0.6 1.1-0.6 1.2-1.5 -1.8-3.9-4.6-8.1-8.6-10.8 -3.7-2.6-9.5-2.9-12.8-5.8 -3.2-2.9-6-6.3-9.2-9.2 -3.1-3-6.1-6.1-9.2-9.2 -3.1-3-6.3-6-9.4-9 -3.1-3-4.8-7.5-7.9-10.5 -2.9-2.8-6.3-5-9.2-7.8s-5.9-5.4-8.8-8.2c-2.9-2.8-6.5-4.8-9.4-7.5 -2.9-2.7-5.6-5.7-8.6-8.4 -3.7-3.3-7.7-6.3-11.5-9.5s-7.9-6-11.8-9.1c-3.1-2.5-6.1-5.2-9.3-7.6s-6.3-4.9-9.6-7.2c-4.6-3.2-8.3-8-13.3-10.5 -5.1-2.6-10.9-5-16.4-5V2.7c-0.8 0-1.4 1.7-2.2 1.9 -4.7 1.2-9 5.6-9.2 10.4 -0.1 3.1 5.2 4.5 6.2 7.4 0.7 2 0.9 5-0.8 6.3 -3.6 2.9-9.1-6.6-13.4-5 -3 1.1-3.6 5.7-5.7 8 -3.3 3.7-6.5 7.2-9.6 11.1 -1.4 1.7-4.4 2.4-5.2 4.4 -0.9 2.1-0.2 4.8-1.3 6.8 -1.7 3-3.5 6-6 8.4 -2.5 2.4-5.5 4.4-7.9 6.9 -2.1 2.2-3.4 5.4-5.7 7.5s-6.6 2.5-8.3 5.1c-1 1.5-1.3 4.3-0.8 6 1.2 4.7 14.1 5.6 11.9 9.9 -1.6 3.2-5.6-0.1-9.8-2.3 -3.5-1.8-7.3-1.7-10.2-0.5 -4.1 1.7-4.6 6.9-7.2 10.5 -3.1 4.1-7.1 7.6-10.8 11.2 -2.3 2.2-4.1 5-6.7 6.8 -2.6 1.8-6.3 2.1-8.8 4 -2.8 2.2-5.6 4.6-8.7 6.6 -3.2 2.1-7.1 3.8-8.9 7 -1 1.8 1.8 5.1 1 7 -0.7 1.7-5 2.2-5 4 0 1.4 2.6 2.5 3.8 3.2 4 2.5 8.5 4.4 13.2 5.5 4.6 1 9.6 0.8 14.1 2 4.1 1.1 7.8 3.5 11.9 4.7 4.1 1.3 8.3 2.5 12.4 3.5 4.2 1 8.9 1.5 13.2 1.6 -4.4 1.9-5.2-0.4-9.9 0.6s-4.6 1.5-9.3 2.5c-5.6 1.1-5.5 1.4-11.1 2.4s-5.6 0.8-11.3 1.8c-5.6 1-5.4 2.4-11 3.3 -6.5 1-6.6 0.5-13.1 1.4 -6.5 1-6.6 0.2-13.1 1.1 -6.5 1-6.7-0.5-13.2 0.4 -6.5 1-6.2 2.8-12.7 3.8s-6.4 1.9-12.9 2.9c-6.3 1-6.3 0.6-12.6 1.6s-6.6-1.2-12.9-0.2c-6.3 1-6.3 0.8-12.6 1.8 -5.4 0.9-5 3.5-10.4 4.3 -5.4 0.9-5.7-0.6-11.1 0.3 -5.4 0.9-5.3 1.5-10.7 2.4s-5.3 1.7-10.7 2.5c-5.4 0.9-5.5 0.9-10.9 1.6 -5.4 0.8-5.7-1.5-11.1-0.8 -5.4 0.6-5.2 2.4-10.6 3.1 -5.4 0.6-5.5 0.1-10.9 0.7 -5.4 0.6-5.4 0.8-10.8 1.4s-5.5 0.3-10.9 1c-5.9 0.8-6 0-11.9 1 -5.9 0.9-5.9 1-11.8 1.9s-5.6 2.7-11.5 3.7c-2.4 0.4-2.8-1.4-5.2-1 -0.4 0.1 1.3 0.2 0.9 0.1 -7.3-1.7-7.6-0.4-14.8-2 -3.3-1.2-6.2-3.9-9.6-5.1 -3.4-1.2-7-1.6-10.4-2.8 -5.3-1.8-11.1-1.7-16.4-3.4 -4.7-1.4-9.2-3.2-13.9-4.4 -6.5-0.8-6.4-2.1-13-1.6 -7.8 0.6-8.3-0.7-15.8 1.7 -5.4 1.7-6 1.9-10.2 5.7 -3.3 3-1.8 4.3-3.2 8.5 -0.9 2.8-1.2 2.5 0.3 5 1.8 2.9 1.2 3.8 4.3 5.3 3.9 1 8.4 0.5 12.3 1.7 3.6 1.1 9.5 2.5 13 3.7 3.6 1.3 5.7 2.3 8.8 3.8 0.5 0.5-1.1 1.4-1.8 1.5 -7.1 0.7-7.2-0.4-14.4 0.2 -7.7 0.6-7.7 0.1-15.5 0.6 -7 0.4-7 0.3-14.1 0.6s-7 0.6-14.1 0.7c-8.9 0.1-8.9 0.4-17.8-0.2 -5.9-0.4-6 0.2-11.8-0.7 -5.9-0.8-5.9-0.7-11.7-1.8 -4.5-0.8-4.4-1.3-8.9-2.3s-4.6-0.6-9.1-1.7c-4.8-1.2-4.6-2.1-9.4-3.4s-4.9-0.7-9.5-2.5c-4.5-1.8-4.5-1.7-8.7-4.1s-4.6-1.7-8.8-4c-0.2-0.1 1-1.9 0.8-2 -5.1-3.3-5.2-3-10.2-6.4s-5.2-3-10.2-6.4 -5.8-2.1-10.9-5.3c-4.9-3-5-2.7-10-5.5s-4-4.6-9-7.4 -6-0.9-11.1-3.6c-6.2-3.2-5.5-4.5-11.7-7.5 -6.3-3-6.6-2.4-12.8-5.4s-6-3.6-12.4-6.2c-4.9-2-5-1.6-10-3.2 -5-1.6-4.6-2.8-9.6-4.4 -5-1.6-5.6 0.3-10.6-1.3s-4.4-3.6-9.5-4.9c-5.6-1.4-6 0.5-11.7-0.6s-5.3-2.9-11-4 -5.8-0.2-11.5-0.9c-6.6-0.8-6.4-1.3-12.8 0.1 -4.6 1-5.1 0.2-7.1 4.5 -2.4 5.2-0.7 5.2-0.3 10.9 0.2 3.3 1.6 3.3 1.3 6.6 -0.8 7.1-2.4 6.8-2.7 13.9 -0.4 7.7 0.8 7.5 1.3 15.2 0.3 4.6-0.6 4.7-0.7 9.4s-0.7 4.6 0 9.2c0.8 4.7 0.3 4.8 3.2 8.5 2.7 3.5 8.8 1 8.1 5.3 -0.8 5-7.8-0.1-10.8 3.9 -2.8 3.6-3 5.3-2 9.7 1.9 8.3 4 7.8 7 15.8 2.3 6.2 3.9 5.6 5.6 11.9 1.1 3.9 0 4 2.6 7.2 3.5 4.3 7.4 1.5 9.2 6.7 1.3 3.5-5.2 2.5-5.3 6.2 -0.2 5.1 1.2 4.5 2.1 9.5 1.2 6.3 1.6 6.1 0.5 12.5 -1 6-1.4 5.8-3.4 11.5s-2.8 5.4-4.8 11.2 -1.4 5.9-2.1 11.9c-0.2 2.3-0.4 2.4 1.3 3.9 4.4 3.7 8.4 0.4 9 6.1 0.5 4.5-4 0.1-8.4 1.6s-6 0.1-9 3.5c-5 5.8-1.8 7.8-4.2 15.1 -2.1 6.3-2.8 6-4.3 12.5 -1.7 7.3-1.3 7.4-2.8 14.8 -1.1 5.6-2 5.4-3.3 10.9 -1.5 6.4-0.8 6.6-3.2 12.7 -1.9 5-6.9 5.1-3.4 9.2 4 4.8 5.5 0.5 11.7 0.3s6.2-0.8 12.4-0.9 6.3 1.5 12.5 1.1c5.8-0.4 5.7-1 11.5-1.7 5.7-0.6 5.8-0.5 11.5-1.1s5.7-1.2 11.4-1.8c5.7-0.6 6.1 1.2 11.8 0.2 5.8-1.1 5.5-2.6 11.2-4.1s5.3-2.9 11-4.4 6-0.3 11.7-1.9c5.7-1.5 5.8-1.2 11.4-2.9 5-1.5 4.5-3 9.5-4.6 5-1.7 5.5-0.1 10.5-1.8 5-1.7 4.6-2.7 9.6-4.4 6.8-2.4 6.9-2.3 13.7-4.7s7.2-1.2 14.1-3.4c5.8-1.9 5.5-2.7 11.4-4.4 5.8-1.8 5.5-3 11.3-4.7 5.8-1.8 6.4 0.3 12.3-1.5 1.9-0.6 1.2-2.9 3.1-3.4 5.8-1.7 6.4 0.5 12.2-1.1s5.6-2.4 11.3-4.4c0.9-0.3-2.2 1.5-1.4 1.2 5.3-2 5-2.5 10.6-3.6 5.5-1.1 5.4-2.1 11-2.5 5.6-0.5 5.7 0.5 11.3 0s5.6-0.2 11.2-0.3c6.8-0.1 6.7 0.2 13.5 0.5 6.8 0.2 6.8 0.2 13.6 0.4 6.8 0.2 6.8-0.2 13.5 0.4 5.8 0.5 5.7 0.5 11.4 1.4 5.7 0.8 5.6 1.7 11.3 2.5 5.7 0.8 5.8-0.3 11.5 1.1 5.3 1.3 4.8 2.4 9.9 4.2 5.1 1.8 5.4 1.1 10.5 2.9s4.8 2.6 9.9 4.6c-3.1-0.9-5.7-2.4-9.5-3.4 -5.1 1.5-4.9 1.7-9.6 4.1 0 0-6.9 1.8-10.3 2.5 -3.5 0.7-5 2.2-8.5 2.7 -2.1 0.3-5.7-1.2-6.9-2.1 -1.2-0.9-3.8 0.9-6.6 4.4 -4.4 5.4 1.9 7.7-0.3 12.9 -1.1 2.8-1.2 6.2-1.2 9.8 0 3-0.1 6.3-0.2 9.8 -0.2 6.1 0.7 11.6 1.2 17.7 0.5 5.9 2.2 11.5 3.5 17.3s1.5 11.9 3.3 17.6c1 3.3 2.9 6.3 4 9.5 1.2 3.2 1.7 6.6 2.6 9.9s2.7 6 4.1 9c0.6 1.3 0.6 2.5 0.7 3.9 0.3 3.7-3.7 2.3 4.6 8.2 0.1 2 0.1 4 2.2 5.4 1.6 1.2 4 1.2 5.9 1.8 2.4 0.8 4.8 1 7.3 1 3.6 0 5.1-0.5 10.3-2.4 5-1.9 4.9-2.1 9.8-4.2s6 0.3 10.9-1.8c4.9-2.2 4.6-2.8 9.6-5.1 4.9-2.2 4.6-3 9.5-5.2 5.9-2.6 6.4-1.5 12.3-4.1s6.1-2.3 11.8-5.1c5.3-2.6 4.7-3.8 9.8-6.6 5.2-2.8 4.7-3.6 9.9-6.4 4.6-2.4 4.6-2.5 9.3-4.9s5.5-0.9 10-3.4c6-3.3 6.3-2.8 12.2-6.2 5.9-3.4 5.8-3.6 11.7-7.1 4.4-2.7 3.7-3.9 8-6.7s4.6-2.4 9.1-4.8c7.3-3.9 7.7-3.3 15-7 6.5-3.4 5.5-5.5 12.4-8.1 6.4-2.5 6.8-1.9 13.6-2.8 7.1-0.9 7.2 1 14.3 0.9s7.1-2.1 14.3-1.9c6.4 0.2 6.3 1.4 12.7 2s6.4 0.7 12.8 1.3c6.4 0.6 6.4 0.1 12.8 0.6 6.4 0.6 6.3 1.2 12.7 1.8s6.4 0.8 12.7 1.5c6.1 0.7 6 1.3 12.2 2 6.1 0.8 6.3-0.9 12.4-0.1 6.1 0.8 6.3-0.3 12.4 0.5 6.1 0.8 5.8 3.3 11.9 4.1 5.4 0.7 5.8-2 11.2-1.3 5.4 0.8 5.1 2.9 10.6 3.7 5.4 0.8 5.5 0.3 10.9 1.1 5.4 0.8 5.6-0.6 11 0.1 4.2 0.5 4.3 0.6 8.3 2 1.3 0.5-1.8-0.2-2.9 0.6 -3.5 2.4-4.4 1.8-7.3 5 -2 2.2-1.7 3-2.6 5.9 -1.1 3.5-1 3.7-1.3 7.3 -0.4 5.5 2 5.6 1.9 11.1s0 5.6-2.5 10.5c-1.2 2.5-3.7-1.8-4.5 0.9 -2.6 8-0.2 8.3-1.1 16.6 -0.8 6.6-0.1 6.7-2 13.1 -2 6.7-4 6.2-5 13.1 -1.2 8.8-0.9 9 0.3 17.8 0.5 3.5 0.6 3.8 2.4 6.7 1.7 2.7 2.4 2.2 5 4 2.8 2 2.7 2.6 6.1 2.6 3.4 0 3.8 0.3 6.8-1.5 5.7-3.4 5.7-3.6 11.1-7.4s4.1-5.6 9.3-9.8c5-4.1 6.1-2.8 10.8-7.2s4.7-4.4 9.4-8.8c4.7-4.4 3.6-5.6 8.3-10.1 4.7-4.4 6.2-2.8 11-7.2s3.1-6.1 7.7-10.6c2.8-2.8 2.3-5.4 6.2-5 4.4 0.4 2.2 3.8 4.6 7.5 1.8 2.9 1.6 2.9 3.4 5.8 1.7 2.7 1.8 3 4.7 4.2 3.3 1.3 3.7 1.4 7 0.4 2.8-0.8 1.5-2.6 3.5-4.7 3.8-3.9 5.6-2.4 8.9-6.7 3.3-4.4 2.9-4.6 6.3-8.8 2.8-3.5 2.7-3.5 5.5-6.9 3.9-4.8 2.6-5.6 5.5-11 3.9-7.1 3.7-7 7.2-14.3 0.1-0.3 0.8 0.2 1.1 0.2 5.2 0.5 5.1 1.1 10.3 1.5 5.2 0.5 5.3-0.6 10.4-0.1s5.1 1 10.3 1.2c6.1 0.2 6-0.5 12.1-0.5 6.1-0.1 6.1 1.1 12.1 1 6.1-0.1 6.1 0.8 12.1 0.8 6.1-0.1 6-1.4 12.1-1.5s6.1 0.5 12.1 0.4c6.1-0.1 6-1.8 12-2 5.5-0.3 5.6 1.3 11.2 0.9 5.5-0.5 5.4-2 10.9-2.5 5.5-0.5 5.6 0.5 11.1 0.1 5.5-0.5 5.6 0.3 11.1-0.1 5.5-0.5 5.4-2.3 10.9-2.9 6.3-0.6 6.2-0.7 12.5-1.4 6.2-0.8 6.3-0.4 12.5-1.2 6.2-0.7 6.3-0.1 12.6-0.8 6.3-0.8 6.1-1.8 12.4-2.6s6.4 0.7 12.7-0.2c6-0.9 5.8-1.8 11.8-2.8s6.1 0 12.1-1 5.9-1.2 11.9-2.2 6.1-0.2 12.1-1.3c1.5-0.3 2.6-2.8 3.1-1.4 1.4 4.5-1.3 4.8-1.4 9.5s1.3 4.7 1.3 9.5c0 5.9 0.1 5.9 0.2 11.8s-1.9 6-1.7 11.9c0.3 7.2 0.1 7.4 1.9 14.4 1.3 5.1 2.6 4.7 5.8 8.8 2.7 3.3 2.3 4.4 6.3 5.8 2.6 0.9 3.5 1.2 6 0.2 3.8-1.6 3.9-2.3 7-4.9 4.5-3.7 3.5-4.8 7.6-9 4-4.2 3.6-4.6 7.4-8.9 4.3-4.9 5-4.3 9.1-9.4s3.8-5.3 7.9-10.4 5-4.3 9-9.5c3.3-4.2 2-5.2 5.1-9.5 3.1-4.4 3.5-4 6.6-8.4s3.3-4.2 6.4-8.6 1.7-5.4 4.9-9.6c2.3-3.1 2.8-2.7 6.4-4.4 7.6-3.5 8-1.8 16.2-3.7 5.4-1.2 5.3-2 10.7-3.2 5.4-1.2 5.7-0.3 11.1-1.6 5.4-1.3 5.3-1.8 10.8-3.1 5.4-1.2 5.1-2.6 10.6-3.8 5.5-1.3 5.4-1.3 10.9-2.6 5.5-1.3 5.4-1.4 10.8-2.8 5.4-1.5 5.3-1.9 10.6-3.5s5.9 0.2 11.4-1.2c5.6-1.3 5.6-0.8 11.2-1.8s5.6-1.5 11.2-2.6c0.2 0-0.9 0.2-1 0.1s0.7-0.1 0.8-0.1c8-0.8 8-0.7 15.9-2 6.2-1 5.9-2 12-3.6s6.5 0.2 12.6-1.4c5.1-1.3 5-1.5 10.1-2.8s5.1-1.2 10.2-2.5 4.8-2.6 9.9-3.9c5.5-1.4 5.8-0.6 11.3-2s5.7-0.9 11.2-2.3 5.4-2.1 10.9-3.5 5.1-3.3 10.6-4.7c5.5-1.4 6.2 1.1 11.7-0.5 4.8-1.4 4.3-2.9 9.1-4.5 4.8-1.6 4.8-1.4 9.6-2.9 4.8-1.6 4.4-2.3 9-4.3 4.7-2.1 5.2-1.1 9.7-3.7s3.8-3.8 8.3-6.3c4.5-2.6 5.2-1.3 9.4-4.4 6.7-5 7.9-3.9 13.3-10.2 2.5-2.9-0.1-4.4 1.1-8C1587.3 326.8 1588.1 326.7 1586.5 324.2zM469.7 231.6c0.1 1.4-0.4 1.4-0.3 2.8 -1 0.6 0.1 0.1-1 0.6 -0.1-1.4-0.9-0.9-1-2.4C468.5 232.1 468.7 232.1 469.7 231.6zM495.5 254c0-0.7-0.1-1.5-0.1-2.3 -5.4 3-8.8 4.4-14.6 8 0 1.5 1 3.4 1 5 0.9-0.5 0.6-0.4 1.5-0.8 -0.1 2.3 2 3.2 1.9 5.5 -0.5 7.2-2 10.6-2.6 17.8 0 1.6 1.4 2.2 1.4 3.7 0.6 4.3-0.3 7.7 0.1 10.9 0.4 3.2 0.7 6.5 1.2 10.8 -0.9 0.4 0 0.6-0.9 1 0.9 0.3 1.1 0.3 2 0.6 0.1 3.5-2.1 7.3-2 10.9 0.1 3.5 2 7 2 10.5 0.1 3.5-0.7 7-0.7 10.6 -0.8 1.2-1.8 1.5-2.6 2.6 0 0.7 1.4 0.5 1.4 1.2 1.7 0.7 2.1 1.8 3.8 2.6 -0.8 0.3-1.3 0.7-2.2 1 0.8 0.4 2.3-0.3 3.1 0.1 0 0.8-2.1 2.1-2.1 2.9 0.1 6.1-1.1 8.5-3.9 9.7 0.8 0.4 3.1 1.3 3.9 1.7 0.1 2.9-0.3 4.7-0.2 7.6 -0.8 1-1.4 1.3-2.2 2.3 1.7 3.6 3 5.4 4.6 9 -0.7 6.6-0.7 10-1.3 16.4 0.9 3.1 0.4 4.7 1.2 7.8 -0.3 3.8-2.3 7.6-2.6 11.4 -0.3 3.8 0.3 7.8 0 11.6 -0.3 3.8-0.7 7.8-1 11.7 0.8 1.5 0.7 2.2 1.6 3.7 -0.8 0.2 1.1 0.1 0.3 0.3 1.8 4.2 2.4 6.5 4.1 10.5 -1.5 0.4-3.1 0.8-4.6 1.3 -1.8-2.8-3.2-5.9-5-8.7 -1.8-2.8-4.7-4.9-6.5-7.8 -1.8-2.8-1.7-6.3-3.4-9.1 1.7-2 2.8-2.7 4.5-4.7 -0.9-0.2-2.2-0.6-3.1-0.8 1.7-2 2.5-3.5 4.2-5.5 -2.5 1-4.2 2.2-6.8 3.3 0.8-1 0.3-1.8 1.1-2.8 -0.1-3.2 0.9-5.3 0.8-8.6 -4.2 1.8-5.4 0.8-5.7-4.8 -0.1-1.4-1.2-1.9-1.3-3.3 0.8-1.1 1.2-1.6 2-2.7 0-0.7 0-1.3 0-1.9 -1.8-0.5-2.8-0.5-4.6-1 1.7-2.9 2.6-4.9 4.2-7.8 -4.5 2.1-7.5-1.1-8.1-11.6 -2.2-3.1-3.5-6.9-4.9-11 -1.3-3.7-1.1-7.8-1.9-12 -0.8-3.9-3.6-7.6-4.2-11.6 -0.5-4.1-1.7-8.1-2.2-12 -0.5-4.3 1.8-8.5 1.1-12.1 1-0.6-0.8-0.5 0.2-1 -2.3-2-2.6-5.8-3.8-10.1 -0.9-3-2.6-6.4-3-10.6 -0.1-1.5-0.4-2.3-0.5-3.8 0.5-3.3 0.2-5 0.7-8.3 0.3-2.4 1.2-2 1.5-4.4 -3.6 1.2-6.3 2.4-9.9 3.6 -3.6 1.3-7.4 2-11 3.3s-7 3-10.6 4.2c-3.6 1.3-8 0.1-11.6 1.4s-6.4 5-10 6.2 -7.6 1.7-11.3 2.9c-0.2-1.3 0.5-1.7 0.3-3.1 2.2-1.2 3-3.4 5.2-4.7 -3.8 0.5-8.2 0.7-12 1.1s-7.6 0.6-11.4 0.9 -7.5 3.1-11.3 3.2 -7.8-0.5-11.6-0.5c-3-1.9-6.5-3.4-9.5-5.5s-4.9-5.5-7.5-8c-2.7-2.5-4.9-5.2-6.8-8.2s-5-5.7-5.9-9.4c0-4.2 2-7.5 2-10.6 0-3.2-0.5-5.9-0.5-10 4 0 7.6-0.9 11.7-0.3 3.9 0.6 7.5 3.7 11.4 4.7 3.9 0.9 8.5-0.6 12.4 0.4 4 1 7.8 2.2 11.7 3.1 4 1 7.7 3.1 11.6 3.8 4.3 0 8.6-1.1 12.8-1.5 4.3-0.4 8.8 0.7 13-0.1 4.2-0.8 8.1-3.2 12.2-4.4 4.1-1.1 8-2.9 12.1-4.3 4.1-1.4 8.3-2.3 12.3-3.8s8-3.1 12-4.7c0.1 1.4-0.2 1-0.1 2.4 3.2-2.6 5.1-3 8.4-5.6 4.3-1.5 8.5-3.9 12.8-5.3 4.4-1.4 9.1-1.9 13.5-3.1 4.4-1.2 8.7-2.7 13.2-3.7 1-1.2 1.2-2.5 2.2-3.7 6.6-2.2 10.2-2.3 15.9-3.5 3.6-1.2 6.4-2 8.8-2.6 3.1-0.7 6.1-2 9.4-2.2 0.6 0.7 0.6 1.8 1.2 2.6 0.6-0.8 0.2-1.6 0.8-2.4 0.6 0 1.9 0.6 2.5 0.6 2.5 1.5 3.3 3.5 6 5.1 0.7-0.8 1.3-1.6 2-2.3 1.4 0 2-0.3 3.5-0.3 0.7 0.8 1 0.5 1.7 1.3 0.7-0.7 1.3 0.2 2-0.6 0.7 0 1-1.2 1.7-1.2 3.9 1.1 7.6 3.3 11.6 4.4 3.9 1.1 8 1.7 12 2.8 3.9 1.1 8.1 1.8 12.1 3 0 0.7-1.3 1-1.3 1.6 -1.6 1.2-0.7 4-2.2 5.2 -0.9-0.1-2.1-0.5-3-0.6 -4.4-0.7-7.6-2.4-10.8-2.9 -3.4-0.5-6.7 0.8-11 0.2 -2.2 0.6-3.6 0.6-5.8 1.3 -4.5-2.4-6.2-5.1-10.3-7.4 -0.7 0-2.2-0.4-2.9-0.4 0 0.8 1.4 1.3 1.4 2.1 1.4 0 1.8 0.7 3.2 0.7 -1.5 1.5-2.1 2.4-3.6 4 -1.3 0-1.2-0.7-2.5-0.6 0-2.3-0.8-2.7-0.7-5 -5.9 4-7.1 6.5-13.4 11.4 0.7 0.7 1.2-0.4 1.8 0.3 0 0.8-0.1 2.4-0.1 3.2 -0.7 0.1-2 0.8-2.7 0.9 -4.1-0.1-6.3-1.4-11.1-0.6C503.6 249 500.8 250.3 495.5 254zM733 374.2c-1.6 0.8-2.9 1.1-5.1 1.9 -0.3 3-0.5 3.8-0.9 6.8 -2.2-1.2-2.7-0.6-5.3-1.7 -0.6 3.7-4.2 6.2-8.5 9 -3.3 2.2-6.3 6.2-10.4 7.9 -4.1 1.7-8.8 2-12.6 3.3 -5.2 1.7-9.4 4.4-11.9 5.3 -3.6 0.8-5.9-0.1-9.7 0.8 -0.4-1-0.6-1.6-1.1-2.7 -0.7 1.3-0.3 3-1.1 4.3 -1.3 0.3-2.5 0.5-3.9 0.8 -4.2 0.9-8.6-0.5-12.6 0 -4.2 0.6-8.2 2.7-12.2 2.9 -4.2 0.1-8.4-0.8-12.4-1.2 -4.2-0.4-8.2-1.5-12.2-2.4 -4.1-0.9-8.7-0.3-12.5-1.7 -3.9-1.4-7.5-4-11.1-5.9 -3.6-2-7.1-4.4-10.4-6.9 -3.3-2.5-7.3-4.4-10.3-7.3 -2.9-2.9-3.8-7.6-6.3-11 -2.4-3.3-4.3-6.8-6.4-10.5 -2-3.5-6-6.2-7.7-10.1 -1.6-3.7-2.7-7.8-4-11.9 -1.2-3.9-2-7.7-2.9-11.9 -3.5 0.1-6.7 0.8-10.2 0.9s-7 0.6-10.5 0.7 -7.2-0.8-10.7-0.8c0-2.9 1.3-3.7 1.4-6.6 4-2.2 4.7-3.3 8.2-5.2 4.1 0.8 6.3 1.4 11.2 2.1 5.7-0.7 9.5-0.8 16.1-1.6 -0.1-4-1.2-9.1-0.2-12.8 1.1-3.8 2.9-7.4 4.9-10.8 1.9-3.4 4.8-6.2 7.3-9.2s5.5-5.5 8.4-8.1c3-2.7 5.2-6.3 8.1-8.5 3.5-2.6 8-3 10.8-4.8 2.9-1.8 6.5-3.9 10.2-6.7 3-2.2 5.7-5.4 9.1-8 3-2.4 6.3-4.8 9.6-7.4 3.1-2.5 5.8-5.6 9-8.1s5.9-5.5 9.2-8c3.2-2.4 7.4-3.6 10.7-5.9 3.3-2.4 7-4.1 10.3-6.3 3.5-2.3 6.5-5.4 9.9-7.3 0.1-10.4 1.5-15.6 3-15.1 3 1 5.4 3.6 7.9 7.3 1.8 2.8 3.7 6 5.3 9.6 1.4 3.3 2.3 6.9 3.5 10.4 1.3 3.6 3.2 6.9 4.2 10.2 1.3 4 1.9 7.6 3 10.4 -3 4.2-5.4 4.8-8 8.1 -4.7-0.8-6.9 0.9-12.3-0.3 -4.2-0.1-7.8 0.9-11.6 1.6 -4.1 0.7-8.7-0.8-12.3 0.7 -3.7 1.6-6 5.7-9.3 8 -3.2 2.3-7.3 3.7-10.1 6.6 -2.8 2.8-4.5 6.7-6.9 9.9 -2.4 3.2-4.3 6.6-6.4 10.1 -2 3.4-3.5 7.1-5.3 10.7s-3.2 7.1-4.8 10.7c0.2 1.3-0.9 0.3-0.7 1.6 4.4-0.4 7.3-0.1 10.6-0.4s6.5-1 10.9-1.3c2.1-0.2 6.5 2.2 12 2 3.5-0.2 7.4-3 11.7-3.3 3.8-0.3 7.9 0.2 11.9-0.3s8.2 0.3 12-0.4c4.1-0.8 8.2-1.7 11.7-2.8 4.3-1.4 8.4-3.1 11.1-5.1 3.6-2.7 6.1-6.4 5.6-10.5 3.2-1.7 3.2-4.3 5.9-6.5 6.5 1.6 9.7 5.9 10.9 11.6 0.8 3.8 2.1 7.8 2.6 11.9 0.5 4-0.8 8.2-1 12.2 -0.3 4.1-1 7.7-2.5 11.4 -1 0.1-0.9 1.5-2.1 1.6 -4 0.2-8.2-1.6-12.2-1.4s-8 0.8-12 0.9 -8 1.9-12 2 -8.1-2.2-12.1-2.1 -8 2.7-12.1 2.7c-4 0-8.1-0.2-12.1-0.2s-8-1.4-12.1-1.5c-4-0.1-8.1 0.7-12.1 0.6s-8.4-2-12.4-2.1c0.2 1.2 0.8 3 0.9 4.2 2.9 2.5 6.4 4.4 9.6 6.5 3.2 2.2 6.2 4.6 9.7 6.4 3.4 1.8 6.9 3.5 10.5 5s7.6 1.6 11.3 2.7 7.3 2.8 11.1 3.5 7.7 0.2 11.6 0.5c3.9 0.2 7.7 1.2 11.6 1 3.9-0.2 7.7-1.1 11.5-1.8 3.3-0.6 7.3-1.8 11.4-2.3 3.8-0.5 7.7-0.1 11.4-1 3.9-1 7.4-2.3 10.4-4.5s4.4-5.5 5.6-9.5c0.3 1.3 1.1 2.1 1.4 3.4 0.9-2.8 1.2-5.2 2-8.3 0.8 2.4 2.4 4.8 3.2 7.4 -0.1 3.6-1.4 7.4-1.5 11.2 -0.1 3.7 0.2 7.4-0.5 11C736.2 367.8 735 371.1 733 374.2zM737.3 338.6c-0.2 0.1 1-0.1 0.8 0 -0.2-1.3 0.3-1.7 0.1-3 0-2.8-1.4-4.2-1.4-7.1 0.2-0.1-0.7 0.1-0.5 0 0.2 1.4 2.6 1.8 2.8 3.2C739.1 334.5 737.3 335.9 737.3 338.6zM977.1 438.7c-3.3 1.1-4.8-2.8-6.5-12.4 -1.8-4-3.1-8.4-4.8-12.5s-4.5-7.7-6.1-11.9c-1.5-4.2-2.8-9.2-4.3-13.4 -3.2 2.6-6.3 6.9-9.9 8.7 -3.6 1.8-7.9 2.3-11.8 3.6 -3.8 1.3-7.7 3.8-11.6 5 -1.1-1-1.7-2.9-2.9-3.9 -4.2 1.3-6.3 1.8-10.6 2.8 -0.9 0-2 1.2-2.9 1.2 -1.1-1.1-1.1-1.7-2.2-2.8 -0.7 1.1-1-0.6-1.8 0.4 -4.7-1.2-7.3-0.1-12-1.6 -1-0.1-1.3-1-2.3-1.1 -3.4 0.8-5 0.6-8.4 1.3 -3.7-1.7-7.9-1.7-11.4-3.5 -3.6-1.9-6.7-4.6-10-6.7 -3.4-2.1-6.7-4.5-9.9-6.8 -3.3-2.3-7.2-3.8-10.3-6.3s-4.6-6.9-7.5-9.7c-2.9-2.7-5.4-5.7-8.2-8.6 -2.8-2.8-7.2-4.2-9.9-7.2 -2.6-3-4.9-6.3-7.5-9.5 -2.1-3.3-4-6.7-6-9.9 -2.1-3.3-4.4-6.3-6.5-9.6s-4.3-6.2-6.3-9.5c-0.8-0.1-0.1-0.9-0.9-1 0.2 3.9-1.2 7.9-1 11.8s1.3 7.8 1.5 11.7 0.3 7.8 0.6 11.8c0.2 3.9-0.1 7.9 0.2 11.8 0.2 3.9 2.7 7.9 2.9 11.8 -0.8 1.1-1.4 1.5-2.1 2.6 0.9 1.3 0.6 2 1.5 3.4 0 2.9-0.1 6.9 0.2 11.2 0.3 3.5 2 7.2 2.2 11.1 0.2 3.7-1.8 7.6-1.8 11.3 -0.1 4-0.6 7.6-1.3 11 -0.8 4.2-1.2 8-3.3 10.5 1.2 1.5 1.7 2.4 2.6 3.6 0.2 3.6 1.2 7.1 1.4 10.7s1.1 7.2 1.4 10.8c0.2 3.6-1.2 7.4-1 11 1 4.5 0.9 6.3 2 10.4 -1.6-0.5-1-0.7-2.6-1.3 -2.9-2.5-5.3-5.6-7.3-9.2 -1.9-3.3-3.2-7-4.5-10.9 -1.2-3.7-2.4-7.5-3.3-11.4 -0.9-3.9-1.1-8-1.8-11.7 -0.8-4.2-2.2-8-3-11.5 0.7-0.6 1.6-1 2.4-1.6 -2.3-3.4-2.4-7.7-3.3-12 -0.8-4.2-3.5-8.2-4-12.2 -0.6-4-1.8-8-2.2-12.1 -0.5-4.1 2-8.4 1.6-12.5s-3.1-7.9-3.5-12c-0.3-4.1 1-8.3 0.7-12.3 -0.3-4.1-1.7-8.1-2-12.1 -0.3-4.1-0.8-8.1-1.1-12.1 -0.8-3.8-1.7-5.7-2.5-9.4 0.2-3.9 0.3-8 0.5-12 0.3-3.9 0.6-7.8 0.9-11.8 0.3-3.9 1.1-7.8 1.4-11.7 0.3-3.9 0.1-7.9 0.4-11.8 0.3-3.9 3.2-7.6 3.5-11.6 0.3-3.9-2-8.1-1.6-12 0.3-3.9 1.5-7.8 1.8-11.7s2-7.6 2.4-11.5c1.4-3 2.2-4.4 3.7-7.4 -0.1-1.3-1.1-3.6-1.2-4.9 -3.6 1.2-7.8 3.8-10.1 6.7 -2.2 2.7-1.6 7.4-2.9 11 -1.2 3.4-2.6 6.8-3.3 10.4 -0.7 3.7-0.6 7.5-0.9 11 -0.4 4.1-2.2 7.9-2.5 10.9 0.9 6.8 1.2 10.3 2.1 17.3 0.1 2.5 1.9 3.8 2 6.2 -1.3 4-3.7 5.3-4.8 9.2 -1.7 0.7-1.6 1-3.1 1.8 -3.3-0.3-6.6-1.9-8.5-6 -1.5-3-0.4-7.4-1.3-11.1 -0.9-3.6-4.1-6.8-4.7-10.2 -0.8-4.6-1.1-8.6-1.6-10.9 -0.2-1.9 1-3 0.8-4.9 0-3.8-0.4-7.8 0.5-11.6 0.8-3.7 3.8-6.8 5.3-10.4 1.5-3.6 1.8-7.6 3.7-11s3.4-7.1 5.5-10.3c2.2-3.4 4.9-6.2 7.2-9.1 0.3-4.1 1.6-7.7 3.6-10.8 2-3.2 4.1-6.9 7.3-9.2 3.1-2.2 7.1-3.2 10.8-4.6 3.6-1.3 7.3-3.2 11.1-3.7 4-0.6 8.2 0.2 11.7 0.5 5.8 1.5 8.8 2.2 14.1 4.7 3.1 2.1 6.9 3.9 10.1 6.4 3 2.4 5.4 5.7 8.4 8.5 2.9 2.6 5.7 5.5 8.4 8.4s6.1 5.2 8.6 8.3 4.3 6.7 6.5 10c2.3 3.3 5 6.4 6.8 9.8 1.9 3.5 3 7.5 4.4 11.1 1.5 3.8 1.3 7.9 2.1 11.7 0.9 4.3 1.2 8.1 0.3 11.7 -1 3.9-2.6 7.6-5.2 10.7 -2.4 3-5.1 6.3-8.4 8.8 -3.2 2.4-7.4 3.4-10.9 5.3 -3.6 2-6.7 4.9-10.2 6.5 -3.9 1.8-8.3 2.6-11.6 4 1.8 3.4 4.2 6.8 6.2 10.3 1.9 3.4 4.3 6.6 6.5 10 2.1 3.3 2.4 7.8 4.7 11.1 2.2 3.3 6.7 4.9 9.1 8.1 2.4 3.2 4.4 6.6 7 9.6s4.3 6.8 7.1 9.6c2.8 2.8 6.9 4.3 9.8 6.8 3 2.6 5.8 5.3 9 7.6 3.2 2.3 5.7 5.8 9.1 7.7 3.5 2 6.8 4.4 10.4 5.9 3.7 1.5 8.1 0.7 12 1.7 3.8 1 7.5 2.4 11.5 2.8 3.9 0.4 7.8 0.4 11.8 0.2 3.9-0.2 8 0.6 12-0.1 0.8-0.1 0.9-1.4 1.6-1.5 3.4-1.7 4.7-3.6 7.9-5.2 0-0.1-0.5 1.2-0.5 1.1 -1.3-3.5-2.4-6.1-3.5-8.7 -1-2.6-2.2-5.3-3.6-8.8 0.2-0.4 1.6-1 1.8-1.4 -0.4-0.3-1.6-0.2-1.9-0.5 -0.9-3.7-1.3-6.6-2-9.4s0.5-6-0.4-9.7c-1-4-3.2-7.7-4-11.8 -0.8-4.1-0.8-8.2-1.4-12.3 -0.6-4.1-1.3-8.1-1.7-12.2 -0.5-4.1-1.2-8.2-1.5-12.3 -0.3-4.1 0.1-8.3-0.1-12.4 -0.2-4.1 0.5-8.2 0.5-12.4 -0.1-4.1-0.5-8.2-0.4-12.3 0-4.1-0.9-8.3-0.8-12.4 1 0 1.5 0.1 2.6 0.2 2.8 2.5 4.9 5.8 7.5 8.6s6.7 4.3 9 7.4c2.3 3 4.4 6.4 6.3 9.7 1.9 3.3 3.2 6.9 4.6 10.5 2.1 2.3 2.5 6.1 3.9 9.5 1.3 3.1 3.5 6.1 4.4 9.4 0.9 3.7 0.5 7.5 0.9 10.3 0.5 3.7 0.3 7.6 0.5 11.6 0.2 3.8 0.6 7.6 0.6 11.6 0 3.8 0.5 7.7 0.5 11.6 -0.1 3.9 0.8 7.8 0.7 11.7 -0.1 3.9-1.1 7.8-1.1 11.6 0 4 0.4 7.9 0.5 11.6 0.1 4.4-1 8.3-0.9 11.4 0.2 6.6 0.6 10.4 0.2 11.3 0.4 0.9 2.2 1.3 2.6 2.2 0.3 3.4 0.1 5.5-0.4 5.7 0.3 0.3-0.6 0.2-0.4 0.4 0.7 4.2 0.6 6.3 1.2 10.5 -0.3 1.1 1.2 1.5 0.9 2.6 0.4 0.9-0.6 1.4-0.2 2.3C978.1 435.1 978.2 438.3 977.1 438.7zM1074 281.9c-0.1-0.1-0.9-0.3-1-0.4 -1.1 1.9-2.3 2.6-3.4 4.5 -0.6 1.3 0.2 2.6-0.4 3.9 -1.8 3.9-4 6.5-5.4 9.4s-0.8 7-2.7 10.9c-0.6-0.3-1.8-1.2-2.4-1.6 0.3 0.9 1.7 1.8 1.9 2.7 -1.7 2.9-4.6 5.4-6.3 8.3 -1.7 2.9-3.4 5.8-5.1 8.7 -1.6 2.9-2.2 6.7-3.8 9.7 -1 0.4-1.9 0.7-2.9 1.1 -0.4 0.6-2.3 0-2.6 0.6 0.6 1.9 2.6 2.7 3.2 4.6 -0.6-0.3-1.7-0.6-2.3-0.9 0.3 1-0.2 1.5 0.1 2.5 -0.4 0.7 1.2 1.6 0.8 2.2 -2.8 5.3-6.2 7.2-8.2 6.2 0.3 0.9 0.6 1.1 0.9 2 -1.3 2.6-0.9 4.6-2.2 7.2 -0.9 0.4-3.4-0.6-4.3-0.3 -0.7 4.4-1.4 6.5-2 10.9 -3.2 5.5-2.5 9.2-5.5 14.8 -0.8 3.5-1.5 5-2.3 8.5 -1.8 3.6-3.8 7.2-5.5 10.8 -1.7 3.6-3 7.4-4.6 11.1s-2.8 7.4-4.3 11.1c-0.1 2.1-1.1 3-1.2 5.1 -0.5-0.2-2.4-0.7-2.9-0.8 -0.6 5.6-0.1 8.5-0.7 13.9 -0.9-0.4-0.2-0.5-1.1-0.8 0.2-4.2 0.9-8.3 1-12.6 0.2-4.2-1.9-8.6-1.8-12.8 0.2-4.2 0.6-8.7 0.8-13 1.5-0.9 3-1.1 4.5-2 -0.4-0.9-0.3-1.2-0.7-2.1 1.6-0.8 1-1.3 2.6-2.1 -1.7-0.8-0.6-1.8-2.3-2.5 0.8-0.4 1.5 0.5 2.3 0.1 1.1-3.3 1-5.7 2.2-9 -2.8-1.4-3.1-4.6-1.1-10.3 0.5-1.4 0.1-2.4 0.6-3.8 0.8-0.3 0.8-1 1.6-1.3 0.3-0.7 1.7-0.5 2-1.2 -0.7-1.9-0.5-2.3-1.2-4.2 2-1.4 2-2.5 4-3.9 -2-1.1-2.7-4-1.6-8.6 0.6-2.5 1.8-5.4 3.3-8.8 0.4-4.3 1.1-8.6 2.3-13 1.1-4.2 3-8.2 4.6-12.3 1.6-4.1 2.6-8.4 4.5-12.4 1.9-4 4.3-7.7 6.2-11.6 2-4 4.9-7.2 6.7-11 0.7 0.4-0.9-0.5-0.1-0.1 0.2-4.1 0.9-9 3.5-14.4 0-4.3 3.2-7.8 4-11.6 0.9-4.2-0.1-8.5 1.8-12.1 -0.5-3.7-0.7-7.4-3.2-10.7 -2.2-3-5.8-5.1-8.8-7.7 -3-2.6-6.2-4.8-9.3-7 -3.5-2.5-7.1-4.4-9.7-6.5 -3.3-2.4-6.6-4.6-9.9-7 -3.3-2.4-6.5-4.9-9.7-7.3 -3.3-2.4-6.2-5.2-9.5-7.6 -3.3-2.4-6.8-4.4-10.1-6.8 -3.3-2.4-5.1-6.8-8.4-9.2 -3.3-2.4-8.1-2.6-11.4-5 -3.3-2.4-6.1-5.4-9.4-7.7 -3.3-2.3-5.8-5.8-9.1-8.1s-6.6-4.8-9.9-7.1c-3.3-2.3-6.5-4.8-9.8-7.2 -3.3-2.3-6.5-4.8-9.8-7.1s-8.2-2.6-11.5-4.9c-0.2-0.8 0.5-2.4 0.3-3.2 3.7 1.1 7.7 2 11.4 3.6 3.6 1.5 6.5 4.7 10 6.5s6.8 3.9 10.2 5.8c3.4 2 7.7 2.6 11 4.6 3.4 2 5.8 5.8 9.1 7.7 3.4 1.9 6.9 3.5 10.3 5.4 3.3 1.9 7.5 2.4 10.8 4.4 3.3 1.9 5.5 5.9 8.8 7.9 3.3 1.9 8 1.6 11.3 3.6s6.6 4.1 9.9 6c3.3 2 6 5.1 9.3 7.1s7.1 3.2 10.4 5.2c3.3 2 5.7 5.6 9 7.6s7.4 2.8 10.7 4.8c3.3 2 6.9 3.5 10.2 5.6 3.3 2 6.3 4.5 9.6 6.6 3.3 2 6.4 4.1 9.7 6.2 3.7-3.1 6.3-7.2 9.5-11 3.1-3.8 6.5-7.2 8.4-11.7 1.4-3.4 1.9-7.1 3.2-10.5 1.3-3.4 3.3-6.5 4.4-10s1.8-7.1 2.9-10.5c1.1-3.5 1.3-7.2 2.4-10.7 1-3.5 3-6.7 4.1-10.2 0.1 0 1.1-0.1 1.2-0.2 0.1 0.6 1.2 1.1 1.4 1.7 -0.2 4.9-1.1 8.6-1.2 12.4 -0.2 3.7 0.3 7.5 0.1 12.5 -0.5 3.9-1.9 7.7-2.5 11.6 -0.6 3.9-2.7 7.5-3.4 11.3 -0.8 3.9-1.1 7.8-2 11.6s-1.4 7.7-2.4 11.5 -1.4 7.8-2.6 11.5c-1.1 3.7-3.6 7.1-4.9 10.8s-1.4 7.8-2.9 11.5c-1.5 3.6-4 6.8-5.6 10.4 -1.6 3.5-2.8 7.4-4.7 10.8C1074.9 282.4 1074.5 281.8 1074 281.9zM1198 371.4c-1.6-2.7-3.2-6.5-6-10.9 -2.1-3.3-4-7.3-6.5-11 -2.3-3.4-6-6.1-8.6-9.5s-4.7-7.3-7.6-10.3c-3-3.2-7.7-4.5-10.8-7 -3.6-2.9-6.4-6.1-10-7.5 -4.2-1.7-7.9-0.9-12 0.1 -2.7 0.9-4.3 0.1-6.8 1.1 -3.5 1.4-6.6 3.2-9.4 5.4 -2.8 2.3-4.2 5.8-6.3 8.7 -2.1 3-3.8 5.8-5.1 9.2 -1.3 3.4-4.4 6.3-4.9 9.9 -0.6 3.6 1 7.5 1.2 11.1 -1.1 3.2-3 6.6-4.1 10.3 -1.1 3.4-2.7 6.7-4 10.1 -1.3 3.5-1.1 7.6-2.8 10.7 -1.8 3.3-4.8 6-7.3 8.4 -1.1 0.4-1.9 0.5-3 0.8 0-1.5-1.3-2.6-1.3-4.1 0.6-3.9 3.6-7.4 4.4-11.2 0.8-3.8 2.1-7.5 3-11.3s-0.4-8.2 0.6-12 2.4-7.5 3.4-11.3 2.2-7.5 3-11.4c0.9-3.8 1.4-7.6 2.2-11.4 0.8-3.8 1.3-7.6 2-11.4 0.8-3.8 2.4-7.4 3.1-11.2 0.7-3.8 3-7.3 3.7-11.1 0.6-3.8 0.4-7.8 1-11.6 0.6-3.8 1.2-7.6 1.8-11.5 0.5-3.8 1.5-7.6 2-11.4s-1.3-7.9-0.9-11.8c0.4-3.8 1.1-7.6 1.4-11.5 0.4-3.8 1.4-7.6 1.8-11.5 0.5-3.7 1.3-7.3 1.8-10.9 0.5-3.7-0.4-7.5 0.1-11.2s3.1-7 3.6-10.7 1-6.5 1.6-10.1c3.4 0.3 5.6 1.5 8.7 4 2.7 2.2 5.1 4.9 7.6 7.8 2.4 2.8 5.3 5.3 7.5 8.1 2.5 3.3 5.4 5.8 7.5 8 2.9 2.9 4.5 7 7.2 10s4.9 6.5 7.5 9.7 6 5.7 8.4 8.9c2.5 3.3 4.9 6.5 7.3 9.8 2.3 3.3 4.5 6.8 6.7 10.3 2.2 3.4 4.5 6.8 6.6 10.3s3.7 7.3 5.7 10.9 4.6 6.8 6.5 10.4 3.2 7.5 5 11.2c0.6 3.1 0.1 7 0.7 11.2 0.5 3.5 3.2 7 3.5 10.9 0.3 3.7 1.1 7.6 1 11.3 -0.1 3.8-3.3 7.3-3.9 10.9 -0.7 3.8 0.6 8.1-0.8 11.4 -1.5 3.5-5 5.8-7.6 8.4C1204.5 368.3 1201.9 370.2 1198 371.4zM1512.3 289.8c-1.3 4-3.3 8-5.2 12.2 -1.8 4-4.2 7.7-6.3 11.8 -2 4-2.9 8.6-4.9 12.5 -2.1 4.1-5 7.7-6.8 11.6 -1.5 3.1-0.6 6.9-1.7 9.2 -2.2 4.7-4.6 7-5.3 7.4 0 0.9 1.4 1.7 1.4 2.6 -1 2.6-3 3.5-3.5 3.3 0.2 0.4 0.2 0.4 0.4 0.8 -0.8 3.5 0 5.7-0.8 9.2 -0.7 0.6-1.2 0.9-1.8 1.6 0.1 0.9-2 0.6-2 1.5 -1.8 6.1-2.5 9.9-3.7 9.5 -3.6-1.3-4.3-6.9-2.5-15 -0.3-4.2 0.1-8.5 0-12.8 -0.1-4.2-1.8-8.5-1.7-12.8 0.2-4.2 1.3-8.5 1.6-12.7 0.5-0.7 0.8-1 1.3-1.7 0.2-5.9-1-9-0.9-14.8 0.3-0.1 2.9 0.1 3.2 0 -0.2-0.4 0.1-0.6-0.1-1 1.2-5.4-0.5-8.5 0.7-13.8 0.8-3.7 2.2-7.3 3.4-10.9 1.2-3.6 2.7-7.1 4.1-10.6s2.7-7.1 4.3-10.5c1.6-3.4 3.1-6.9 4.9-10.2 1.8-3.3 4.5-6.2 6.3-9.4 1.9-3.3 5-5.4 7-8.6 1 0.2 0-0.2 0.9 0 2.3 2.4 4 5.4 5.6 8.7 1.5 3.2 2 6.6 2.7 10.1 0.7 3.7 3.2 6.9 2.9 10.2 0.9 0.4 1.2 5 0.2 11.6C1515.6 282.1 1513.6 285.6 1512.3 289.8z"/></svg>
