<svg xmlns="http://www.w3.org/2000/svg" viewBox="0 0 1000 1000"><style type="text/css">  
	.st0{fill:#819FB7;}
	.st1{fill:#D9DADA;}
	.st2{fill:#030404;}
</style><path class="st0" d="M721 698c-6 0-12 0-18 0 -0.3-3.5-2.2-4.7-5.7-4.2 -2.1 0.3-4.3 0-6.5 0.1 -1.3 0.1-2.9-0.7-3.7 0.7 -1.2 1.9 1.6 2.1 1.8 3.5 -3 0-6 0-9 0 -1-2.7-2.7-4.2-5.9-4.2 -14.1 0.2-28.2 0.1-42.2 0.2 -0.3-0.3-0.6-0.6-0.9-1 13.6 0 27.3 0 40.9 0 2.7 0 5 0.1 2.5-3.6 -9.3-13.7-15.3-29.1-21.7-44.3 -4.6-10.8-9.7-21.6-7.6-34 1.9-10.8 3.9-21.6 5.4-32.4 0.7-5.5 2.6-4.2 5.7-1.9 9.9 7.3 19.1 15.5 26.7 25.2 0.4 14.7 0.8 29.4 1.1 44.1 -4.4-4.1-10.5-6.5-13-12.6 -0.6-1.5-1.8-1.5-3.3-0.9 -4.1 1.6-4.7 4.3-2.5 7.8 7.7 12.6 13.9 26 19.7 39.5 0.5 4-0.2 8.8 1.8 11.6 2.5 3.5 7.7 0.8 11.7 1.4 0.2 0 0.3 0 0.5 0 2.6 0.3 3-0.9 2.7-3.3 -0.9-6.6-1.7-13.2-2.2-19.9 -1.9-26.9-5.3-53.7-1.7-80.7 0.5-3.6 0-7.1-3.7-9.1 -1.7-0.9-2-2.8-1.3-3.8 3.9-6 1.5-12.3 1.2-18.5 -1.1-23.6-0.7-47.3-4.1-70.7 -1.3-8.6 1-17.8-3.4-26 -2.3-4.2-4.3-8.1-1-13 1.3-1.9 0.6-5.2 0.7-7.8 0.2-8.8-3.1-16.9-4.7-25.4 -1.4-7.4-2.5-14.8-5.4-22.8 -3.3 11-2.1 21.5-3.1 31.8 -0.7 8.2 0.6 16.6 0.8 24.9 0.1 3.7 0.3 7 5.5 6.4 -3.4 7.8-4.8 13.3-2.9 20.1 3.8 13.8 4.3 27.8 5.3 41.9 1.4 19.3 1.4 38.6 0.9 57.9 -4.9-5.6-10.7-9.9-17-13.7 -11.5-6.9-11.3-6.9-9.4-20.3 3.6-25 5.7-50.1 7-75.3 0.5-10.3 0.4-20.6 1.1-30.9 1.2-15.9 0.5-31.5-3.5-47 -3.3-12.7-7.8-25.1-11-37.8 -3.8-15.2-3.9-31-7.8-46.1 7.7 0 15.3 0 23 0 4.1 12.8 8.4 25.5 13.6 37.9 4.2 10.1 9.7 19.7 8.9 31.5 -0.5 7 1.5 14.2 1.6 21.3 0.4 17.5 5.2 34.1 9 50.9 0.4 1.6 1.3 3.1 1.9 4.6 1.1 2.9 3.1 3.5 6 2.5 5.7-2 10.8-5 15.8-8.3 3.1-2.1 5.1-4.7 5.3-8.5 2-1 2.7-2.6 2.8-4.7 0-2.9 0.1-5.8 0.1-8.8l-0.1 0.2c1.2-2.2 2.1-2.3 2.9 0.3 0.5 1.8-0.6 4 1.5 5.6 1.8-3.5 3.3-7 5.2-10.2 0.7-1.1 1.2-1.9 0.6-3.1 -1.6-3.5-1-7.2-1.2-10.8l0-0.2c0.4-0.6 0.7-1.2 1.1-1.7 3.6-6 7.8-11.7 12.9-16.6 1.7 10.1 5.6 19.9 3.6 30.5 -0.1 0.7 0.3 1.6 0.7 2.3 1.8 3.1 4.8 6 7.9 4.9 3-1 6.5-3.5 6.6-7.9 0.3-7.9 1.4-15.9-3.7-23.1 -1.5-2.1-2.6-5.3 1.3-6.5 4-1.3 7.6-1.8 11.2 2 5.1 5.3 10.9 9.7 16.6 14.4 3 2.4 5.6 5.5 9.3 7.2 1-5.8 1-5.8 5.1-3.7 0.2 0.1 0.6 0 0.9 0 3.8-0.4 5.2 1.4 3.2 4.7 -3.2 5-0.8 8.7 2.2 12.1 1.4 1.6 4 2.1 6.1 3.1 0.4 8.5 0.3 17.1-0.2 27 -0.9-3.1-0.8-6.3-4.1-4.2 -2.6 1.7-3.7 14.4-1 15.8 3 1.6 2.3 3.6 2.2 5.7 -0.9 15.8-1.9 31.5-2.8 47.3 -0.3 4.9 2.1 6.6 6.9 5.3 -0.6 8.9-1.2 17.8-1.9 27.6 -2.2-3-4.2-4.1-5.6-0.6 -1.1 3-0.8 6.3-1.4 9.3 -1 4.7 3.3 4.6 6 7 -4.3-0.2-7.4 0.3-7 4.9 0.4 4.2 2.7 6.2 7 6 5.3-0.3 6.8 3.3 6.6 7.4 -0.5 8.2-0.5 16.5-0.9 24.7 -0.4-0.8-0.6-1.5-0.7-2.3 -0.2-1.6 0.3-3.8-2.1-3.9 -2.7-0.1-2.3 2.3-2.5 4 -0.1 1.2 0 2.3 0 3.5 -0.2 20.6 0.5 41.3 1.4 61.9 0.1 2.4 0.3 4.9-2.1 7.2 -2.4-6-0.2-12.6-3.4-18.1 -0.7-1.3-0.7-3-2.7-2.8 -1.8 0.2-1.7 1.8-1.6 3.1 0.4 4.8 0.6 9.6 1.4 14.4 1.9 11.3 5.9 14.1 17.3 12.5 1.6 1.6 4.8 0.3 5.9 3.6 0.5 1.4 4 1 6.1 0.3 1.8-0.6 1.2-2.6 1.2-3.9 -0.1-3.2-0.7-6.3-0.7-9.4 0-18.1 0.1-36.3 0.5-54.4 0.6-31.6 1.9-63.3-1.9-94.8 -0.7-5.6 1.1-7.3 5.9-8.4 5.5-1.3 6.6-0.7 6.5 4.9 -0.2 15.5 1.4 30.8 2.9 46.3 0-4.7 0-9.5 0-14.2 0.4 0 0.8 0 1.2 0 1.6 14.8 0.8 29.6-2.2 44.2 -0.6 2.7-2.5 2.5-4.6 1.1 -2.6-1.8-4.2-0.7-5.3 2.1 -2 5-0.8 7.6 4.3 8.8 1.9 0.4 4 0.4 6 0.2 3.2-0.3 4.5 0.9 4.7 4.1 1.4 20.9 3.4 41.7 3.2 62.7 -0.1 13.2-2.9 10.9 11.7 11.3 3 0.1 4-1.1 4.2-4.1 1.6-23.2 4-46.3 7.9-69.3 0.2-1.4 0.5-2.6 2.3-2.7 0 0.8 0 1.6-0.1 2.4 -2.6 17.3-4.1 34.7-5.3 52.1 -0.3 4.7 2 8.7 1.9 13.2 -0.1 2.7-3.6 5.7-0.9 7.7 1.9 1.4 5.4 0.5 8.3 0.6 1.2 0 2.4 0.2 3.5 0 2.1-0.4 4.9 1.5 6.3-1.3 1.1-2.1-2.2-8.7-4.7-9.8 -1.2-0.6-2.5-0.8-4.7-1.5 5.3-1.2 7.3-4.8 9.8-8.8 1 4 1.8 7.2 2.6 10.4 2.8 10.9 2.8 10.7 14.2 10.9 3.6 0.1 4.1-1.2 4.2-4.2 0.6-10.5 1.7-20.9 3.2-31.2 3.2-22.2 10.4-43.4 17.3-64.6 3 3.1 4.5 1.7 5.1-1.8 1-5.8 2.4-11.5 4.8-17.8 0.6 1.9 1 3 1.2 4.1 2.4 13.2 4.8 26.4 5.5 39.9 1.2 24.2 1 48.1-5.8 71.6 -0.9 3.3 0.1 4.2 3.2 4.2 8-0.1 16 0 24 0 8.1 0 8.1 0 8.4-8.2 0-0.2 0.3-0.3 0.6-0.5 1.1 1.8-0.3 4.1 1.3 5.7 0 1.3 0 2.7 0 4 -11.7 0-23.4 0-35.1-0.1 -3.1 0-4.6 1.2-4.9 4.1 -9.7 0-19.3 0-29 0 0.5-3-0.2-4.7-3.9-4.1 -1.9 0.3-4 0.2-5.9-0.1 -3.5-0.5-4.8 0.8-4.2 4.2 -2 0-4 0-6 0 0.2-3.2-1.1-4.4-4.4-4.2 -4.1 0.3-8.3 0.2-12.5 0 -3.2-0.2-4.8 0.9-4.1 4.2 -1.7 0-3.3 0-5 0 0.3-3.2-1.2-4.4-4.3-4.1 -2.3 0.2-4.6 0.3-6.9 0 -3.2-0.3-4 1.4-3.8 4.1 -6.7 0-13.3 0-20 0 0-6.9-5.1-3.1-8.1-4 -5.9 1.4-11.9 2.7-18 2.1 -1.5-0.1-2.6 0.2-2.9 1.9 -12.7 0-25.3 0-38 0 -3.1-5.5-8.4-3.8-13.1-4.1 -3.2-0.2-4.1 1.4-3.9 4.1 -2.3 0-4.7 0-7 0 0.4-3.2-0.8-4.3-4.1-4.2 -8.8 0.2-17.6 0.2-26.3 0C721.1 693.7 720 694.7 721 698zM757.1 482c-2.6-0.1-2-2.2-2.2-3.7 -1.3-8.7-2.6-17.4-3.8-26.1 -0.2-1.3-0.1-2.8-1.9-3.1 -1.7-0.3-2.2 1.1-2.9 2.2 -6.6 10.5-1.6 20.4 1.9 30.3 0.6 1.7 1.5 4.2 4.1 4.7 0.3 2.1 0.7 4.1 1.1 6.5 2.4-1.9 4.4-3.5 6.4-5.1 1.3 3.1-1.7 4.7-2.3 7.1 -2.8 11.4 3.7 23.4 15.5 26.4 4.1 1 5.2 0.5 4.8-4 -1.5-14.5-2.6-29-3.8-43.5 0.8-2.4 1-4.8 1-7.3 0-1.3-0.3-1.8-1.6-1 -0.1-4.5-0.1-8.9-0.4-13.4 -0.1-2.3-0.2-4.8-2.4-6.2 -3.4-2.1-6.9-4-10.4-6 -2.4-1.4-3.1-0.2-2.8 2 1.6 12.7-0.2 25.6 1.7 38.4C758.6 481.1 758.1 481.8 757.1 482zM776 544.9c0.7-5-1.6-9.8-1.1-14.8 0.2-1.6-1.1-2.3-2.4-2.7 -5.3-1.5-10.3-3.6-13.8-8.4 -2.9 4.2-0.3 8-0.7 11.7 -1.7-0.1-2.4 0.8-3.2 2.3 -2.7 5.5 1.6 8.3 4.1 11.8 -0.3 0.7-0.9 1.5-0.9 2.2 -0.5 23.1 1.1 46.1 1.1 69.2 0 2.1 1.2 2.9 2.9 4 5.5 3.4 9.4-0.4 13.8-2.4 2.9-1.3 4.3-3.1 3.3-6.6 -1.9-6.8-4.4-13.2-4.7-20.6 -0.4-8.7 1.3-17.2 0.6-25.8 10.4 12.5 20 25.7 29.6 38.9 4.3 5.9 6.4 12.7 7.2 19.8 1 9.3 3.3 18.3 5.3 27.3 0.3 1.5 0.1 4.4 2.8 3.7 2.3-0.6 2.4-3.1 1.7-5.1 -5.8-16.3-2.9-33.6-5.1-50.3 -0.8-5.8-1.1-10.1-5.9-14.7C798 572.5 789.3 556.7 776 544.9zM732.9 597.1c2.3-9.1 0-17.6-0.9-26.2 -0.9-8.8 0.8-17.6 0.7-26.4 -0.2-15.5-0.1-30.9-0.7-46.4 -0.6-14.8-2-29.4-3.6-44 -0.6-5-2.5-6.3-7.4-5 -2.3 0.6-4.3 1.8-6.1 3.3 -2.1 1.6-4 3.6-6.3 4.6 -8.7 3.9-10.9 8.6-7.8 17.6 3.3 9.6 5.4 19.5 6.2 29.6 1 12.1 1.4 24.3 1.4 36.4 0 6.2 3.3 11.7 2.3 18.1 -1.2 7.8-1 15.9-1.4 23.9 -0.4 8.5 2.1 12.2 9.1 13.3C723.3 596.6 728.3 596.7 732.9 597.1zM737.4 693c4.7 0 9.3 0 14 0 1.3 0 2.8 0.4 3.3-1.4 0.4-1.5-0.1-2.5-1.7-3 -1.4-0.4-2-1.8-1.9-3.2 0.4-6-1.9-11.4-3.2-17.1 -3-13.1-1.2-26.8-4.8-39.9 -2.2-8-3.7-16.2-3.2-24.6 0.1-1.5 0-3.2-1.9-3.6 -2.1-0.4-2.2 1.5-2.8 2.8 -0.9 2-1.6 4-2.6 5.9 -3.5 6.2-4.9 6.3-9.3 0.8 -2.5-3.1-4.5-6.7-8.2-8.6 -4.4-2.2-6.2-1.1-6.1 3.7 0.2 25.4 3.8 50.3 11 74.7 0.8 2.7 1.4 5.2 0.1 8.1 -1.2 2.8-0.6 5.6 3.8 5.3C728.4 692.8 732.9 693 737.4 693zM759.9 643.1c1.7 13.4 0.7 26.9 1.9 40.4 0.9 10 0.5 9.9 10.2 9.6 3-0.1 4.2-1 4-4.1 -0.7-19-0.1-37.9 3.3-56.7 0.6-3.1-0.9-4.2-3.8-4.3 -3.8-0.1-7.6 0.4-11.4-0.7 -1.9-0.6-2.5 0.9-3.1 2.4C759.5 634.1 760.1 638.6 759.9 643.1zM861.6 681.5c0.7-10.1-0.1-20.2 1.2-30.2 0.2-1.8 0.1-3.6-1.1-5.2 -0.9-1.1-1.1-3.1-3.1-2.6 -1.8 0.5-1.6 2.3-1.6 3.8 0 8.1 0 16.3 0 24.4 0 1.3-0.1 2.9 1.2 3.6C860.8 676.5 861 678.9 861.6 681.5z"/><path class="st0" d="M129 304c28.3 0 56.7 0 85 0 -0.1 2.1-0.1 4.2-0.2 6.3 -4.8 0.3-3.7 3.8-3.4 6.6 1.5 15.4 3 30.8 2.3 46.3 -0.7 13.6-1.7 27.2-0.6 40.9 0.2 2.1 0.1 4.3-1.3 6.2 -5.4 7.3-9.2 15.8-17 21.2 -3.4 2.4-5.5 6.2-8 9.5 -11 15-8.7 32.5-9.7 49.4 -0.1 1.2 0.5 2.3 1.8 2.7 1.5 0.4 2-0.8 2.7-1.7 2-2.6 1-5.8 1.6-8.7 1.8-7.5 5.4-14 8.6-20.9 5.4-11.5 15.9-19.4 20.6-31.2 0.2 7.1 0.3 13.8 0.1 20.6 -0.4 14.8-2.5 30 9.6 42.3 4.8 4.9 8.8 10.8 13.7 15.8 3.9 4.1 8.9 6.9 12.2 11.7 0.1 3.4-2.3 5-4.6 6.6 -5.2 3.6-7.6 3.2-11.6-1.5 -0.6-0.7-1.8-1.7-2.4-1.5 -4.8 1.6-9.7-1.8-14.4 0.5 -0.4-1.6-0.7-3.7-2.7-3.7 -2.1 0-2 2.3-2.4 3.8 -1.7 7.3-4 14.3-8 20.8 -4.1 2.3-3.6 6.9-4.8 10.5 -3.3 9.4-4.7 19.3-8.3 28.6 -3.5-3.9-5.7 0.2-6.8 2 -5 8.5-11.6 15.8-17.4 23.6 -7.7 10.3-13.2 21.5-15.4 34.2 -1.1 6.5-1.8 13-2.6 19.6 -1.4-5.2-2.1-10.4-3-15.6 -0.3-1.9-0.6-4.3-3.1-4.6 -2.3-0.3-2.8 1.8-3.9 3.3 -0.5 0.7-0.5 2.8-2 1.5 -1.9-1.6-3.4-0.4-5.1 0.1 -5 1.2-10.1 2.3-15.3 2 -2.1-0.1-4 0-5.1 2.2 -4.8-3.8-5.8-8.4-3-13.8 0.5 1.2 1.1 2.4 1.6 3.6 0.4 1.1 0.9 2.3 2.4 1.9 1.3-0.3 1.8-1.5 1.8-2.7 0-1.3-0.3-2.6-0.7-3.9 -1.6-5.7-3.6-11.4-4.8-17.2 -0.9-4.4-3.9-8.9-0.4-13.6 0.7-0.9 0-2.7-1.1-3.5 -2.4-1.7-2.6-4.4-2.4-6.7 0.9-12.8-0.5-25.5-0.9-38.3 1.6 1.7 1.5 4 2.1 6 5.8 22.7 12.1 45.3 18.8 67.8 0.5 1.7 0.3 4.2 2.8 4 2.7-0.2 2-2.9 2.5-4.7 1.3-5.1-3.1-8.1-4.2-12.3 -5.5-20.6-11.2-41.1-16.8-61.6 -0.4-1.6-0.5-3.7-2.5-3.8 -2.7-0.2-2.1 2.5-2.7 4 -1-5.5-1.9-11.1-2.9-16.6 -0.4-2.3-0.4-5.6-1.8-6.5 -3.5-2.4-2.8-5.6-3.1-8.7 -0.2-1.7-0.3-3.3-0.5-5 -1.2-15.3-2.4-30.5-3.5-45.8 -0.1-1.7-1.2-4.5 2.6-3.4 8.3 2.2 16.6 3.3 25.2 1.9 1.5-0.2 2.9 0 2.6 1.9 -0.9 4.9 1.1 9.5 1.2 14.3 0.7 28.6 2.3 57.2 4.8 85.7 0.8 8.6 0.8 17.2 3.1 25.7 2.3 8.3 5.3 16.5 5.3 25.3 0 9.9-6.7 16.5-15.4 15.2 -2.4-0.3-4.4-0.6-4.8 2.5 -0.4 3.1 1.9 3.4 4.1 3.8 8.2 1.5 16.5-4 19.3-13 2.2-7.1 1.5-14.2-0.5-21.2 -2.8-9.4-4.6-19-5.6-28.8 -3-28.8-4.2-57.7-5.7-86.6 -0.6-11.5 1-22.9-0.2-34.4 -0.7-6.3-0.7-6.3-6.4-3.9 -7.8 3.4-15.6 5.7-24 1.9 -1.6-0.7-3.5-1.2-5.2-1.5 -2.4-0.4-4.2 0.1-4.5 3.1 -0.4 4.5-0.7 8.9-0.3 13.4 1 12.1 1.7 24.2 2.5 36.3 -2.2 1.2-1.8 3.3-2 5.3 -0.7 6.6-1.7 13.1-5.1 18.9 -1.7-9.8-2.9-19.5-3.2-29.2 -0.5-17.3-1.7-34.5 0.9-51.9 1.8-12.4 3.3-25 4.4-37.5 1.6-17.8 3.8-35.6 5.6-53.4 0.9-8.8 1.3-17.6 1.9-26.7 -2.6 0.2-3.3 3.2-5.7 2.5 2.3-4.8 5.6-9 9.1-13 1.7-2 2.1-5.1 0.7-6.4 -2.1-1.8-2.8 1.8-4.3 2.7 -0.4 0.2-0.7 0.7-1 1.1 -10.1 13.4-20.9 26.4-30.2 40.4 -9.2 13.8-22.8 24.5-27.8 41.5 -1.5 5-6.8 9.4-10.2 14.6 -1.3-4-0.9-11.6 1.2-20.3C29.6 369 40.2 336.3 52 304c24.3 0 48.7 0 73 0 -0.2 4.5-0.4 9-0.5 13.5 -0.9 37-1 74-3.4 111 -0.2 3.6-1.1 6.9-3.1 9.8 -2.4 3.5-5.8 4.8-9.9 4.7 -3.9-0.1-5.1-2.8-6.3-5.9 -1.6-4.3-3.8-8.5-5.3-12.9 -1.1-3.2-2.5-6.5-2.2-10.1 1.4-18.1 2.6-36.2 4.3-54.2 1.3-13.7-0.2-27.6 3-41.3 -2.5 6.4-6.3 12-6.6 19.5 -1.3 34.9-4.7 69.7-7.6 104.5 -0.4 5.2 1.3 7.8 5.9 9.4 5 1.7 10 2.5 15.2 2 9-1 15.2-6.5 16.4-14.8 0.5-3.9 0.8-7.9 1.1-11.9 1.5-20.6 1.4-41.2 2-61.9C128.5 344.9 128.7 324.5 129 304zM108.8 351.3c0-12.7 0-25.3 0-38 0-2-0.4-4-0.7-5.9 -0.2-1.2-0.7-2.3-2.2-2.2 -1.5 0.1-1.9 1.2-1.9 2.4 0 1.8-0.1 3.7 0 5.5 1.5 26.8 0.8 53.6-0.1 80.4 -0.2 4.8-0.6 9.6-0.9 14.4 -0.1 1.4 0.4 2.8 2.1 2.9 1.7 0.2 2.2-1.3 2.5-2.6 0.2-1 0.2-2 0.3-3C109.1 387.3 109.1 369.3 108.8 351.3zM104 534.2c-1.3-8.3-0.8-17-1.1-25.6 -0.4-10.1-1-20.2-2.8-30.2 -0.2-1.3-0.3-2.9-2.1-2.9 -2 0-2.1 1.8-2.1 3.3 0 1.2 0 2.3 0.2 3.5 2.4 17.3 2.4 34.8 3 52.2 0.1 2.3-1.2 6.4 2.7 6.2C105.3 540.5 103.4 536.7 104 534.2z"/><path class="st0" d="M547 304c12.7 0 25.3 0 38 0 0.6 10 1.1 20 1.7 30 -4.2-0.7-5.3 1.6-5.7 5.4 -1.2 11.3-2.7 22.6-4.2 33.9 -0.9-0.8-1.2-2.7-3-2 -1.9 0.7-1.7 2.5-1.9 4.2 -1.1 17.2-1.2 34.5-1.2 51.8 0 2-0.2 4.1 2.3 4.9 0 6.1-0.3 12.2 0.8 18.4 2.6 14.2 5 28.5 4.1 43 -0.2 2.6-0.8 5.9 0.5 7.8 3.7 5.7 1.5 12.6 4.5 18.3 -4.9 0.3-9.3 2.7-14.1 3 -5.3 0.4-5.8 3.9-5.7 7.6 0.2 5.8 4.3 8.7 10.2 7.9 1.1-0.1 2.1-1.1 3.2 0 0.6 0.6 1.3 15.5 0.5 16.1 -2.1 1.8-1.6 4-1.1 6 2.6 10 2.8 20.4 4.3 30.6 3.9 27.9 2.7 56-0.7 84 -1.4 11.2 4.4 18 15.5 18 3.3 0 6.7-0.2 10 0 6 0.4 11.5-0.9 16.6-4.2 0.1 1.5 0.1 3.1 2.2 3.3 -0.6 1.9-2.7 1.5-3.9 2.4 -1.2 1-3.8 0.8-3.2 3.4 -5.3 0-10.7 0-16 0 0.6-2.9 0-4.7-3.6-4.2 -2.5 0.3-5 0.1-8.9 0.1 3 2 4.7 3.1 6.5 4.2 -11.3 0-22.7 0-34 0 0.5-3.2-0.7-4.6-4-4.2 -1.6 0.2-3.3 0.1-4.9 0 -4.2-0.3-4 1.5-2.1 4.2 -14 0-28 0-42 0 0.4-3.2-1.2-4.6-4.2-4.1 -3.4 0.6 0.2 2.9-0.8 4.1 -14.7 0-29.3 0-44 0 -3.7-6.5-10-3.4-15.2-4.1 -3.8-0.5-3.6 1.6-2.8 4.1 -11.3 0-22.7 0-34 0 0.2-2.9-0.7-4.6-4.1-4.2 -2.6 0.3-5.2 0-7.9 0.1 -1.1 0.1-3.1-0.8-2.9 1.4 0.1 2.1 1.8 1.9 3.3 1.7 1.3-0.2 3.2-2.1 3.5 1 -8.7 0-17.3 0-26 0 0.4-3-0.8-4.2-3.9-4.1 -13.1 0.1-26.2 0.1-39.3 0 -3.1 0-4.7 1.1-4.9 4.1 -8.3 0-16.7 0-25 0 1.5-2.8 1-4.1-2.5-4.2 -3.9-0.1-7.9 1.1-11.6-0.9l0 0.1c4.2 0 8.3-0.2 12.5 0.1 3.2 0.2 4.8-1.1 6.1-3.9 3.8-8.3 7.6-16.7 10.8-25.2 0.4-1.2 0.6-3 2-3.2 1.7-0.2 2.4 1.6 2.9 2.9 3 8 6.1 15.9 5.8 24.6 -0.1 3.8 1.2 4.8 4.8 4.8 12.3-0.2 24.7-0.2 37 0 4.2 0.1 5.9-1.2 5.2-5.4 -2.8-15.5-0.4-31.2-1.9-46.7 1.7 1.2 3.5 2.4 5.2 3.7 2.2 1.5 4.5 3.3 7.2 1.9 2.7-1.4 4.2-0.9 5.5 1.6 0.6 1.2 1.6 2.4 3.1 1.7 1.6-0.7 1.9-2.2 1.6-3.8 -0.4-1.8-0.7-3.7-2.2-4.9 -3.5-2.6-5.2-6.2-6.5-10.1 1.5-1.1 1.9-2.8 1.8-4.4 -0.5-13.1-1-26.1-1.5-39.2 0-1.2-0.2-2.3-0.4-3.5 -0.1-0.9-0.7-1.5-1.6-1.6 -0.9-0.1-1.7 0.5-1.8 1.4 -0.3 1.4-0.4 2.9-0.4 4.4 0.3 12.9 0.6 25.8 1 38.7 -4.3-5-8.6-9.9-12.9-14.9 2.7-5.2 1.4-10.9 1.7-16.4 0.8-17-0.9-33.9-1.6-50.9 -1.1-23.8 0.8-47.6 1.5-71.4 0.8-24.6 0.1-49.3 1.3-73.9 0.1-2.9 1-6-0.9-8.7 3.7-2.9 6.9-6.3 9.8-10 -0.2 4.3-0.5 8.6-0.7 12.9 -0.5 14.5 0.4 28.9-0.9 43.4 -0.4 4-0.1 8-0.1 12 0 1.4 0.6 2.7 2.3 2.8 1.6 0 2.3-1.2 2.4-2.6 0.1-0.8 0.1-1.7 0.1-2.5 0.4-17.4 0.8-34.9 1-52.3 0.1-5.6 0.9-11.3-0.8-16.8 1.3 0.1 2.6 0.2 4 0.4 9.3 1.4 11.5 4.3 11.8 13.6 0.5 13.3-1.2 26.6-1.4 39.8 -0.3 14.5 1.1 28.9 2 43.3 0.2 4-1 5.4-4.9 5.4 -6.4-0.1-11.2-2.7-14.4-8.2 -0.6-1-1.2-2.2-2.6-1.7 -1.4 0.5-1.7 1.9-1.6 3.3 0.1 1.6 0.9 2.9 1.7 4.1 4.6 6.5 10.9 9.7 18.9 8.7 3.1-0.4 3.7 0.5 3.6 3.3 -0.4 6-0.5 12-0.7 17.9 -0.1 1.7-0.6 3.7 1.4 4.3 2.2 0.8 2.6-1.5 3.4-2.8 0.7 0 1.4 0 2.1 0.1 0 5.9 0 11.8 0 17.7 -1.8-0.3-2.1-1.6-1.8-3.6 0.3-2.1 0.4-4.3 0.3-6.5 -0.1-1.6-0.6-3.6-2.8-3.4 -1.9 0.2-1.9 2-1.9 3.5 -0.5 16.5-4 32.7-4.7 49.1 -0.1 1.3 0.6 3.5-1.4 3.6 -1.8 0.1-4-0.5-4.7-2.9 -0.3-0.9-0.7-1.8-1.3-2.6 -1-1.4-2.7-1.3-4.1-1.1 -1.3 0.2-1.8 1.3-2.1 2.5 -1 4.9 4.8 12.3 9.8 12.5 7.4 0.3 7.8 0.6 8.3 8.1 1.4 21.6 1.9 43.2 0 65 -1.9-1.8-4.2-3.5-4.8 0.5 -1.5 10.2-2.4 20.4-0.6 30.7 0.7 3.9 3 8.1-3 10.5 2.8 0.3 5.1 0.3 7.4 0.3 7.3 0 7 0 7.4-7.6 0.3-7-1.8-13.7-1.9-20.6 -0.2-11.3 0.6-22.6 1-33.9 8.9 2.6 14 8.5 16.5 17.5 3.4 12 7.5 23.8 12.4 35.3 4.2 9.6 4.1 9.6 14.8 9.3 3.5-0.1 4.7-1 2.7-4.3 -11.9-20.2-19.8-42.5-31.8-62.6 -0.8-1.3-1.1-2.8-0.9-4.3 7.3 3.1 14.8 6.5 22.7 6.8 8.6 0.3 13.2 4.6 17.6 11.2 6.2 9.4 12.9 18.4 14.7 30 0.6 3.5 3 5.8 6 7.4 -0.4 2.2-2.6 4.9 1.7 5.7 -0.5 3.8 1.8 4.9 5 5.1 2.4 0.1 4.7-0.3 6.4-2 3.2-3.2 5.2-1.7 5.6 1.9 0.5 4.5 2.9 4.9 6.4 4.1 1 0.2 2.6 1.3 2.6-0.7 0.1-6.5 2.2-12.7 2.7-19 0.8-9-0.3-18.3-1-27.4 -0.9-12.2 0.3-24.1 2.2-36.1 0.5 22.1 1.3 44.2 3.3 66.2 0.2 1.8-0.4 4.7 2.3 4.6 2.3-0.1 2.5-2.6 2.3-4.7 -3.3-34-3.5-68-3.5-102.1 0-1 0.1-2 0-3 -0.3-2.9-1.8-3.3-4.1-1.9 -0.5-10.7 0.6-21.5-1-32.2 -0.7-4.6-0.8-9.2-1.2-13.8 -0.2-2.8 0-4.6 3.7-2.4 5.1 3 10.9 2.9 16.6 2.3 0.6 0.3 1.2 0.9 1.7 0.9 5.3-0.8 5.2 2.2 5 6.2 -0.5 9.6-0.9 19.3-0.6 28.9 0.2 7 1.1 13.9 0.4 20.9 -1.2 11.6-3.9 23.1-2.9 34.9 0.6 6.3 1 12.6-0.8 18.8 -0.4 1.4-0.3 2.9 0.2 4.4 4.3 11.4 8.2 23 10.8 35 1.2 5.7 1.2 11.5 2.6 17.1 0.9 3.6 6.7 5.6 11.4 3.7 4.2-1.7-0.4-3.6-0.2-5.5 0.1-0.6-0.3-1.3-0.2-2 1.2-8.1-1.4-15.8-3.2-23.5 -5.1-22.2-4.5-44.9-5.2-67.3 -0.7-19.4 0.3-39.2 1.4-58.7 0.6-9.5-1.2-19.2-2-28.8 -0.1-1.3-0.4-2.5 0.1-3.9 2.1-5.5 1.7-11.1 0.8-16.8 -1.1-7.3-1.9-14.5-1.6-21.9 0.8-16.8 1.1-33.6 0.6-50.4 -0.4-13-3-25.8-2.5-38.8C548.1 351.6 548.1 327.8 547 304zM383.7 495.7c0.2-2.8-0.5-4.5-2-4.4 -2.5 0.3-2.5 2.3-2.7 4.1 -1.2 15.9-1.8 31.9-0.1 47.8 0.2 1.6-0.3 3.9 1.9 4 2.6 0.1 3.1-2.4 3.1-4.3 0-2.8-1.1-5.5-1.1-8.4C383 521.6 382.4 508.7 383.7 495.7zM385.9 693.1c1.5-0.9 4.9 1.5 4.9-1.9 0-3.1-3.2-3.1-5.6-3.3 -2.2-0.2-4.2 0.5-4 3C381.3 694 384.1 692.6 385.9 693.1z"/><path class="st1" d="M371 390.9c1.9 2.7 1 5.8 0.9 8.7 -1.2 24.6-0.5 49.3-1.3 73.9 -0.7 23.8-2.6 47.6-1.5 71.4 0.8 17 2.5 33.9 1.6 50.9 -0.3 5.4 1 11.1-1.7 16.4 -7.9-7.9-16.2-15.2-25.5-21.5 -1.1-0.7-2-1.7-2.8-2.8 -12.3-17.5-23.9-35.5-30.8-56 -0.6-1.8-0.3-4.5-4.1-3.1 -3.4 1.2-3.3 3.1-2.6 5.7 2.1 7.8 4.1 15.7 6.1 23.5 -2.1 0.4-2.8 2.2-3.9 3.6 -5.2 7.1-10.4 14.3-15.6 21.4 -1.7-2.4-2.1-5-2.2-7.9 -0.3-10.8-0.1-21.6-0.1-32.4 0.1-29.8-1.4-59.6-0.6-89.4 0.1-3.6 0-7.2-1.1-10.7 -0.8-2.5-2.1-2.7-4.1-1.4 -1-0.2-1.9-0.4-2.9-0.6 -7.9-1.5-13.2-7.3-19.4-11.7 -4-2.9-4.7-2.5-5.9 2.1 -2 8-1.7 16-0.9 24.1 -2 1.5-2 3.6-2 5.8 -0.3 11.6 0.8 23.1 2.6 34.6 0.9 5.6 1.8 11.3 2.7 16.9 -0.3 0.1-0.7 0.1-1 0.2 -1.8-3.5-3.5-7-5.3-10.5 1.7-13.4-2.9-26.2-4.1-39.3 -1.4-15.9-1.8-31.7-0.8-47.6 0.1-2.5 0.8-4.9 1-7.4 0.2-3-0.6-4.8-4-2.5 -1.5 1-3.3 1.6-4.8 2.6 -2.5 1.6-6.7-0.2-7.9 2.8 -1.1 2.6-0.4 5.9-0.5 8.9 -0.1 2-0.4 4-0.5 5.9 -0.6 10-0.8 19.9 0 29.9 0.7 9 0.9 17.9 0.5 26.9 -10.2-3.4-13.5-5.9-13-17 0.8-18.3 0.6-36.6 1.1-54.9 0.3-11.8-1-23.6-0.5-35.3 0.4-11.5 1.1-23 0.4-34.4 -0.6-10.1-0.7-20.3-2.9-30.2 0.1-2.1 0.1-4.2 0.2-6.3 5 0 10 0 15 0 0.1 32.7-1 65.4 0.4 98.8 3.1-2 6.2-2.5 9.2-3.3 4.5-1.3 7.3-10.1 3.6-12.8 -3.6-2.5-3.2-5.5-3.2-8.7 -0.1-5.2-0.2-10.3 0-15.5 0.2-3.7-1.7-8.2 3.4-10.4 0.5-0.2 0.5-1.8 0.5-2.8 -0.6-15.1 1-30.3-1.1-45.4 2.3 0 4.7 0 7 0 0.3 9.9 0.6 19.8 1 29.7 0.2 4.4-1.1 8.9 1 13.2 -0.9 4.1-1.4 8.2-1 12.4 1.4 13.3 2.3 26.6 4.9 39.8 -0.5 3.4 1 6.4 3.2 8.6 8.1 7.7 14 18 25.6 21.7 3.9 1.3 5 1.6 5.2-2.5 0.4-7.6 0.5-15.3 0.7-22.9 0.1-2.2 0-4.5-2.8-5.1 -0.2-2.8-0.6-5.6-0.5-8.4 0.4-12.5-3.4-24.7-2.3-37.2 0.6-6.1 0.9-12.2 0.9-18.4 -0.1-10.3 0-20.6 0-30.9 28.7 0 57.3 0 86 0 0 8.3 0 16.6-0.1 25 -0.1 7.2-0.3 14.3-2.9 21.1 -2.6 6.8-3.6 13.8-2.9 21.1 -36.2 23.8-49.6 59.1-51.2 100.5 -0.1 2.4 0.5 4.8 2.8 5.1 2.5 0.3 3.4-2.4 3.9-4.4 0.8-2.9 1.7-5.7 2.8-8.5 8.7-20.8 19.8-40.2 32.6-58.8C360.2 399.3 364.9 394.4 371 390.9zM303 444.3c2.5-0.5 3.2-2.3 4.2-3.7 17-23.6 28.3-49.7 33.5-78.3 1.7-9.2 3-18.4 2.4-27.8 -0.3-5.8-1.6-6.4-6.7-3.6 -6.3 3.5-11.2 8.2-14.3 14.8 -3 6.4-5.4 12.9-7.2 19.7C308 391.2 309 418.2 303 444.3zM350.9 448.9c-12.8 10.4-22 22.5-30.8 34.9 -6.4 9-7.4 18.7-5.7 29 0.6 3.8 0.4 7.6 0.8 11.4 0.2 1.4 0.7 2.8 2.2 3 2.2 0.3 1.5-1.7 1.8-2.8 1.9-8.4 5.1-16.2 10-23.2 5.8-8.3 12.2-16.3 19.3-23.5 1.9-1.9 3.8-3.9 3.4-6.9C350.8 464 351.3 457 350.9 448.9z"/><path class="st1" d="M624 692.1c-2.1-0.2-2-1.8-2.2-3.3 7.1-5.7 8.7-14.1 7.4-21.9 -1.9-12-5.1-23.7-4.1-36 0.3-4.3 0.8-8.6 0.8-12.9 0.1-41.7-1.4-83.5-3.5-125.1 -0.1-2.2-0.3-4.5-2.5-5.6 -2.1-1-3.8 0.6-5.4 1.8 -4.9 3.7-9.2 3.8-14.1 0.2 -2.4-1.8-4.8-3.6-7.6-4.7 -5.8-2.2-7.4-1.2-7 5 0.5 7.7 4.1 14.6 5.5 22.1 1.5 7.7 3.1 15.4 2.1 23.3 -1.6 14.1-1.5 28.2 0.1 42.3 1.6 13.9 4 27.7 2.4 41.7 -0.1 1.3 0.5 2.9-1.8 4.7 -1.2-9.8-6-18-7-27.1 -1.8-16.5-4.8-33-2.5-49.7 0.8-5.9 1.1-11.9 1.6-17.9 0.3-3.5 0.7-7.1-3.3-9.1 -3-5.7-0.9-12.6-4.5-18.3 -1.2-1.9-0.6-5.2-0.5-7.8 0.9-14.6-1.5-28.8-4.1-43 -1.1-6.2-0.8-12.3-0.8-18.4 2.8-1.3 2-3.9 2-6.1 0-17.6 0.3-35.2 1.7-52.8 1.4-11.3 2.9-22.6 4.2-33.9 0.4-3.8 1.4-6.1 5.7-5.4 0.4 5.6 1.5 11.3 1.2 16.9 -1 18.7 2 37.2 3.7 55.7 1.3 14.8 2.1 29.4-2 44 -1.7 6.3-2.7 12.8-2.1 19.5 0.3 3.1 1.8 5.3 4.6 5.7 8.7 1.1 17.5 1.9 25.1-4.2 5.5-4.5 5.9-6.4 3.7-13.6 -2.4-8.2-2.6-16.8-1.2-25.1 1.1-6.6 2.1-13.3 0.8-19.8 -3.4-17.3-2.8-34.8-3.4-52.2 -0.6-18.9-1.2-37.9 0.9-56.9 8 0 16 0 24 0 4 15.1 4 30.9 7.8 46.1 3.2 12.8 7.7 25.1 11 37.8 4 15.4 4.7 31.1 3.5 47 -0.8 10.3-0.6 20.6-1.1 30.9 -1.3 25.2-3.4 50.3-7 75.3 -1.9 13.4-2.1 13.4 9.4 20.3 6.3 3.8 12.1 8.1 17 13.7 0.1 9 0.2 17.9 0.4 26.9 -7.7-9.7-16.8-17.9-26.7-25.2 -3.1-2.3-4.9-3.5-5.7 1.9 -1.5 10.8-3.5 21.6-5.4 32.4 -2.2 12.4 3 23.1 7.6 34 6.4 15.2 12.3 30.6 21.7 44.3 2.6 3.7 0.2 3.6-2.5 3.6 -13.6 0-27.3 0-40.9 0C628.8 691.9 626.4 691.7 624 692.1z"/><path class="st2" d="M832.7 688.7c-11.4 1.5-15.4-1.2-17.3-12.5 -0.8-4.7-1-9.6-1.4-14.4 -0.1-1.3-0.2-2.9 1.6-3.1 2-0.3 2 1.5 2.7 2.8 3.2 5.5 1 12.1 3.4 18.1 2.4-2.4 2.2-4.8 2.1-7.2 -0.9-20.6-1.6-41.2-1.4-61.9 0-1.2-0.1-2.3 0-3.5 0.1-1.8-0.2-4.1 2.5-4 2.3 0.1 1.9 2.3 2.1 3.9 0.1 0.8 0.2 1.6 0.7 2.3 0.3-8.3 0.4-16.5 0.9-24.7 0.2-4-1.3-7.7-6.6-7.4 -4.2 0.2-6.6-1.8-7-6 -0.4-4.5 2.7-5.1 7-4.9 -2.7-2.4-7-2.3-6-7 0.6-3 0.3-6.3 1.4-9.3 1.4-3.5 3.4-2.4 5.6 0.6 0.7-9.8 1.3-18.7 1.9-27.6 -4.8 1.4-7.1-0.3-6.9-5.3 0.9-15.8 1.9-31.5 2.8-47.3 0.1-2.1 0.8-4.1-2.2-5.7 -2.7-1.4-1.7-14.1 1-15.8 3.3-2.1 3.2 1.1 4.1 4.2 0.5-9.9 0.6-18.4 0.2-27 -0.6-13.9 2-27.7-4.7-41.4 -6.2-12.6-9.8-26.4-14.7-39.9 -19.1 11.6-36.5 25-51.6 41.2 -5.1 4.9-9.3 10.5-12.9 16.6 -0.4 0.6-0.7 1.2-1.1 1.7 0 0 0 0.2 0 0.2 -3.8 5.7-8.3 10.9-9 18.2 0 0 0.1-0.2 0.1-0.2 -2.6 4.2-3.5 8.7-2.9 13.5 -0.2 3.8-2.2 6.4-5.3 8.5 -5 3.3-10.2 6.3-15.8 8.3 -2.8 1-4.8 0.4-6-2.5 -0.6-1.5-1.5-3-1.9-4.6 -3.8-16.8-8.7-33.4-9-50.9 -0.1-7.1-2.1-14.3-1.6-21.3 0.8-11.7-4.7-21.4-8.9-31.5 -5.2-12.4-9.5-25.1-13.6-37.9 9.7 0 19.3 0 29 0 0.9 4.5 4.8 7.8 5.4 12.5 1.3 11.4 6.8 21.7 9.9 32.6 3.7 13.9 7.4 27.7 7.9 42.2 0.1 4.5 0.9 9.2 3.6 14 1.4-9.6 4.6-17.8 8.6-25.6 5.9-11.3 13-21.9 19.7-32.7 2.7-3.9 5.3-7.7 8-11.6 5.7-7.4 11.4-14.8 17.1-22.2 4.1-2.2 7.3-5.4 9.9-9.2 29.7 0 59.3 0 89 0 -0.4 1.9-0.4 1.9-2.3 2.7 -8.4 3.5-16.8 7.1-24.6 12.1 -2.4 1.5-3.8 3.3-4.3 6.2 -1.7 8.5-3.6 17.1-3.2 25.7 0.4 8.4-1.3 16.6 0.3 25.1 1.5 7.6 0.7 15.6 1 23.4 0.1 1.4-0.2 2.7 1.2 4 3.6 3.2 7 6.7 10.4 10 0.4 0.3 0.8 0.7 1.2 1 0 0 0 0 0 0 1 2.6 4.2 3.6 4.6 6.8 3.9-4.2 7.3-8.3 11.1-12.1 11.8-11.6 24.4-22.2 38.5-30.9 2.7-1.7 3.2 0.1 3.5 2 0.4 2.2-1.3 3.6-2.5 5.2 -7.9 10.7-15.8 21.4-23.6 32.1 -1 1.3-2.5 2.5-2.2 4.3 0.5 3.2-1.6 4.9-3.5 6.7 -9 8.6-14.7 19.6-20.7 30.2 -2.3 2.3-3.7 5.2-5 8.1 -3.8 5.4-7 11.2-9.9 17.1 -3.6 4.8-5.2 10-5 16.2 0.5 15.2-1.3 30.2-3.8 45.1 -0.6 3.7-2.6 7.5-1.4 11.1 1.3 4.1 0 5.9-3.8 6.8 -1.1 0.3-2.3 0.7-2.7 2.3 5.2 1.3 9 4.9 8.1 10.1 -1 6-0.5 11.9-0.1 17.8 0.6 8.6-1 17.2-0.7 25.7 0.8 19.5 2.5 39.1 4.2 58.6C838.4 682.8 837.4 686.4 832.7 688.7zM850.4 431.4c4.8-6.5 4.8-6.5-0.3-11.3 -1.1-1-2.1-2.1-3.2-3.1 -0.3-0.3-0.7-0.5-1-0.8 -0.1-0.3-0.4-0.5-0.7-0.6 -1.1-2.1-2.7-3.5-5.3-5.3 1.2 11.1 2.3 21.2 3.5 32.6 2-3.1 3.2-5 4.4-6.9C848.7 434.5 849.5 432.9 850.4 431.4zM829.8 347.8c-0.1 4.6-0.5 9.2-0.2 13.7 0.2 2.4-1.3 7.1 1.7 7 3.7-0.1 2.6-4.8 3.1-7.7 0-0.3-0.3-0.6-0.4-0.9 -0.2-10 0.1-19.9 2.1-29.8 0.2-1 1.2-2.4-0.2-3.1 -1.2-0.6-2.5-0.2-3.8 0.6 -1.7 1-2 2.4-2 4.2C830 337.2 829.9 342.5 829.8 347.8zM833.7 420.9c0 10.2 0 20.4 0 30.5 3.1-6.1 4.6-12.9 3.2-20.3 0.6-5.7-0.7-11.3-1.1-16.9 -0.8-12-1-24-1.1-36.2 -6.6 3.9-7.3 4.3-4.6 9.2 3.2 6 2.5 12.1 3 18.3C833.6 410.7 832.6 415.8 833.7 420.9zM824.5 366.6c0.3 0 0.5-0.1 0.8-0.1 0-11.4 0-22.7 0-34.6 -3.1 1.9-5.7 3.6-8.5 5.1 -1.7 1-2.3 2.1-1.6 4.1C818.4 349.5 821.4 358 824.5 366.6zM827 464c-3.6 12.1-2 24.6-3.2 36.8 0.9-0.5 1.3-1 1.4-1.6 2.2-9.3 6.5-18 5.8-28.1C830.8 467.8 831.8 465 827 464z"/><path class="st1" d="M482.8 683c-4.2-0.8-2.1-3.5-1.7-5.7 5.3 2.2 9.7-0.1 13.7-3.1 4.2-3.2 4.2-8 0.3-10.2 -2.3-4.7-5.3-9.3-6.9-14.2 -3.7-12-10.6-22-18.1-31.7 -1.4-1.8-2.7-3.8-4.4-5.4 -5.5-5.5-6.2-11.8-4.2-19.2 3.6-13.5 7.9-26.7 13.9-39.4 3.9-8.4 8.1-16.7 9.7-26 2.6-14.9 4.1-30 5.9-45 0.5-4 1-7.9 1.4-11.9 0.2-1.6-0.1-3.1-1.7-3.8 -1.8-0.7-1.8 1.3-2.7 2 -2.8 2.3-3.5 5.5-4.8 8.5 -14.3 34.5-28 69.2-41.8 105.1 -3.4-9.1-6.5-17.4-9.5-25.6 8.9-11.9 14.8-24.9 17.9-39.6 3.8-17.7 8.7-35.2 14.3-52.4 6-18.3 7.5-37.8 14.6-55.8 0.9-2.3 1.2-4.9 1.3-7.3 0.6-17.4-0.4-34.9 0.9-52.3 1.1-15.3 0-30.6-0.9-45.8 6.7 0 13.3 0 20 0 0.5 7 0.1 13.9 0.5 20.9 0.9 15.6 4.3 30.9 3.5 46.7 -0.7 12.6-0.3 25.3 2.3 37.8 -0.9 9.6 1.2 19 1.7 28.6 -1.2 6.4 0 12.8 0.4 19.2 0.9 14.1 0.9 28.3 0.1 42.4 -0.4 7.4 5.4 15 13 15.3 1.6 0.7 3.3 2.2 4.9 2 4.5-0.6 5.3 1.6 4.9 5.2 -5.7 0.5-11.5 0.7-16.6-2.3 -3.7-2.2-3.8-0.4-3.7 2.4 0.3 4.6 0.5 9.3 1.2 13.8 1.6 10.7 0.4 21.5 1 32.2 -0.1 3.3-0.3 6.6-0.4 9.9 -1 6.7-1.2 13.4 0.2 20.1 0 3.6 0 7.3 0 10.9 -1.9 12-3.1 24-2.2 36.1 0.7 9.1 1.8 18.3 1 27.4 -0.5 6.3-2.6 12.5-2.7 19 0 2-1.6 0.9-2.6 0.7 -1.3-3.5-2.5-7.1-3.9-10.6 -0.9-2.2-2.9-5.2-4.8-4.2C492.8 679.7 487.9 681.5 482.8 683z"/><path class="st0" d="M480 304c0.8 15.3 2 30.6 0.9 45.8 -1.3 17.5-0.3 34.9-0.9 52.3 -0.1 2.5-0.4 5.1-1.3 7.3 -7.2 18-8.6 37.5-14.6 55.8 -5.6 17.2-10.5 34.7-14.3 52.4 -3.1 14.6-9 27.7-17.9 39.6 -5.4-13.2-11.7-26-14.5-40.2 -0.3-1.3-0.2-3.1-1.1-3.7 -2.8-2-1.1-3.2 0.3-4.8 12.6-14.2 26.2-27.5 37.9-42.5 1.7-2.1 2.8-4.5 3.7-7 0.6-1.5 0.5-3.2-1-4 -1.8-1-2.6 0.5-3.3 1.9 -3.3 6.4-8.8 10.2-15.1 13.3 -10.1 5.1-21.4 7.3-31.2 13.1 -2.4 1.5-2.3-0.5-2.4-2 -0.7-19.3-3.1-38.5-2.1-57.9 0.2-3.7 0.7-7.3 1.1-10.8 4.1 3.8 8.2 7 11.6 10.9 7.6 8.5 17.3 15.3 21.6 26.6 0.3 0.9 1 2 2.2 1.5 1.7-0.6 2.1-2.2 1.9-3.7 -0.6-4.4-1.3-8.8-2.9-13.1 -3.3-8.7-8.7-16.1-13.8-23.6 -6-8.7-11.8-17.3-14.1-27.9 -0.2-0.9-0.3-2.2-1.4-2.5 -4.1-0.9-2.2-3-1.2-5 2.9-5.7 4.3-11.9 4.1-18.3 -0.1-1.3 0.4-3.1-0.8-3.8 -3.3-1.8-2.8-4.9-3.2-7.7 -2.2-14-2.6-28.2-3-42.3C430 304 455 304 480 304z"/><path class="st1" d="M996 690c-1.6-1.6-0.2-3.9-1.3-5.7 -0.2 0.2-0.5 0.4-0.6 0.5 -0.3 8.2-0.3 8.2-8.4 8.2 -8 0-16-0.1-24 0 -3.1 0-4.2-0.9-3.2-4.2 6.8-23.5 7-47.4 5.8-71.6 -0.7-13.5-3.1-26.7-5.5-39.9 -0.2-1.1-0.6-2.2-1.2-4.1 -2.4 6.3-3.7 12-4.8 17.8 -0.6 3.5-2.1 4.9-5.1 1.8 0.2-1.8 0.3-3.6 0.6-5.4 4.6-28.3 5.7-56.8 3.5-85.3 0.8 0.1 1.8-0.1 2.4 0.3 1.6 0.9 3.6 2.5 5 1.5 1.7-1.1 0.1-3.3-0.1-5.1 -3.7-22.9-7.4-45.9-11.3-68.8 -1.9-11.4-3.2-23-6-34.3 0.1-3.9 0.2-7.8 0.4-11.7 3.5 0.4 3.3 3.2 3.7 5.6 2.8 17 5.5 34.1 8.4 51.1 0.3 1.8-0.3 5 2.9 5 4.4 0 9 1.3 13.2-0.8 0.5-0.2 0.6-1.5 0.6-2.3 -0.2-5.1 0.3-10.3-0.5-15.4 -1.6-10.5-4.6-20.8-4.4-31.5 0.4-18.5-3.1-36.7-4.6-55.1 -1-12.2-3.1-24.4-3.4-36.7 1.3 0 2.7 0 4 0 2.1 18.9 4.2 37.8 6.2 56.6 5.7-18.5 8.7-37.4 9.8-56.6 5.2 0 10.3 0.1 15.5-0.1 2.2-0.1 2.6 0.4 2.6 2.6 -0.1 10.5-0.1 21-0.1 31.5 -1 0.6-1 1.6-1.3 2.6 -3.6 16.9-7 33.9-9.7 50.9 -1.4 8.7-1.3 17.2 1 25.7 3.3-10.8 5-22 10-32.3 0 64 0 128 0 192 -0.2-0.4-0.6-0.8-0.7-1.3 -5-15.6-11-30.9-14.9-47 -2.6-10.6-4.1-21.1-5.6-31.8 -1.5-11.2-2.9-22.7-15.5-27.9 -0.6 0.7-0.1 1.6 0 2.6 3.9 23.8 7.8 47.6 11.8 71.3 2.3 13.4 3.8 27.1 7.3 40.2 4.9 18.2 10 36.2 13.8 54.6 1.2 5.8 1.1 11.8 3.8 17.3C996 666.7 996 678.3 996 690z"/><path class="st2" d="M405 304c0.4 14.1 0.8 28.3 3 42.3 0.4 2.8-0.1 5.9 3.2 7.7 1.2 0.6 0.7 2.4 0.8 3.8 0.3 6.5-1.1 12.6-4.1 18.3 -1.1 2.1-2.9 4.1 1.2 5 1.1 0.2 1.2 1.6 1.4 2.5 2.3 10.5 8.2 19.2 14.1 27.9 5.2 7.5 10.5 15 13.8 23.6 1.6 4.2 2.3 8.6 2.9 13.1 0.2 1.5-0.2 3.1-1.9 3.7 -1.2 0.4-1.8-0.6-2.2-1.5 -4.2-11.2-14-18-21.6-26.6 -3.4-3.8-7.5-7.1-11.6-10.9 -0.4 3.4-0.9 7.1-1.1 10.8 -1 19.3 1.4 38.6 2.1 57.9 0.1 1.5 0 3.4 2.4 2 9.8-5.9 21.1-8.1 31.2-13.1 6.2-3.1 11.8-6.9 15.1-13.3 0.7-1.4 1.5-2.9 3.3-1.9 1.5 0.8 1.6 2.5 1 4 -0.9 2.5-2 4.8-3.7 7 -11.7 15-25.3 28.3-37.9 42.5 -1.4 1.6-3.1 2.8-0.3 4.8 0.8 0.6 0.8 2.4 1.1 3.7 2.7 14.1 9 27 14.5 40.2 3.1 8.2 6.1 16.4 9.5 25.6 13.9-35.9 27.5-70.6 41.8-105.1 1.2-3 2-6.2 4.8-8.5 0.9-0.7 0.8-2.7 2.7-2 1.6 0.7 1.9 2.2 1.7 3.8 -0.4 4-0.9 7.9-1.4 11.9 -1.8 15-3.3 30.1-5.9 45 -1.6 9.3-5.8 17.6-9.7 26 -5.9 12.7-10.2 25.9-13.9 39.4 -2 7.4-1.3 13.6 4.2 19.2 1.6 1.6 2.9 3.6 4.4 5.4 -0.2 1.7 0.6 4.1-1.7 4.7 -1.8 0.5-2.7-1.6-3.7-2.8 -1.9-2.3-4-4.6-5.5-7.1 -2-3.4-3.9-3.1-6.4-0.5 2.4 1.8 4.2 3.6 5.8 5.9 3.5 5.3 4.3 12.8 12 14.8 0.4 0.1 0.6 1.1 0.9 1.7 6.1 10.2 9.4 21.6 13.7 32.5 0.5 1.3-0.1 3.8 2.3 3.8 2.3 0 4.2-1.1 5.4-3 0.8-1.2 1.4-2.6 2.1-3.9 3.9 2.2 4 7-0.3 10.2 -4 3-8.4 5.3-13.7 3.1 -3.1-1.6-5.5-3.9-6-7.4 -1.9-11.5-8.5-20.6-14.7-30 -4.4-6.6-9-10.9-17.6-11.2 -7.9-0.3-15.4-3.7-22.7-6.8 -1.5-1.3-3-2.6-5-3l0 0.2c-0.3-0.4-0.7-0.9-1-1.3 -2.5-2.8-4.9-5.6-7.7-8.8 0 6 0 11.6 0 17.1 0 1.6 0 3.3 0 4.9 -0.4 11.3-1.2 22.6-1 33.9 0.1 6.8 2.2 13.6 1.9 20.6 -0.4 7.6-0.1 7.6-7.4 7.6 -2.3 0-4.6 0-7.4-0.3 6-2.4 3.7-6.6 3-10.5 -1.9-10.3-0.9-20.5 0.6-30.7 0.6-3.9 2.9-2.3 4.8-0.5 1.9-21.8 1.4-43.4 0-65 -0.5-7.5-0.9-7.8-8.3-8.1 -5.1-0.2-10.9-7.6-9.8-12.5 0.2-1.2 0.8-2.3 2.1-2.5 1.5-0.2 3.1-0.3 4.1 1.1 0.6 0.8 1 1.7 1.3 2.6 0.7 2.4 2.9 3 4.7 2.9 2-0.1 1.3-2.3 1.4-3.6 0.7-16.5 4.2-32.6 4.7-49.1 0-1.6 0.1-3.3 1.9-3.5 2.2-0.2 2.7 1.7 2.8 3.4 0.1 2.1 0 4.3-0.3 6.5 -0.3 1.9-0.1 3.2 1.8 3.6 0-5.9 0-11.8 0-17.7 5.8-4.7 10.8-10.3 15.9-15.8 4.6-4.9 9.1-9.7 13.7-14.6 -7.6 2-14.7 4.9-21.8 7.5 -7.2 2.7-11.2 7.2-9.9 15.3 0.4 2.4 0 5 0 7.5 -0.8 1.4-1.2 3.6-3.4 2.8 -2-0.7-1.5-2.7-1.4-4.3 0.3-6 0.4-12 0.7-17.9 0.2-2.8-0.5-3.7-3.6-3.3 -8 1.1-14.3-2.2-18.9-8.7 -0.9-1.2-1.7-2.5-1.7-4.1 -0.1-1.4 0.2-2.8 1.6-3.3 1.4-0.5 2 0.7 2.6 1.7 3.2 5.5 8 8.1 14.4 8.2 3.9 0.1 5.2-1.4 4.9-5.4 -0.9-14.4-2.2-28.8-2-43.3 0.2-13.3 1.9-26.5 1.4-39.8 -0.3-9.3-2.5-12.2-11.8-13.6 -1.3-0.2-2.6-0.3-3.9-0.4 -1.6 0-1.6 0-3.3 3.3 -2.9 3.7-6.1 7.1-9.8 10 -6.1 3.6-10.9 8.4-14.9 14.3 -12.8 18.5-23.9 38-32.6 58.8 -1.2 2.8-2.1 5.6-2.8 8.5 -0.5 2-1.5 4.7-3.9 4.4 -2.3-0.3-2.9-2.7-2.8-5.1 1.6-41.4 15-76.7 51.2-100.5 4.9-2.6 9.7-5.4 12.9-10.2 2-1.5 3.3-3.4 4.1-5.7 1.8-1.6 2.2-4 3.4-6 1.2-1.9 0.6-6.1 3.9-5.3 3.6 0.9 1.5 4.6 1.3 6.9 -0.6 6.8-2.6 13.5-5 21.2 6.8-2.5 13-7.4 17.9 1.2 2.3-3.8 3.3-6.9 2.5-11.1 -4-19.1-5.7-38.5-5-58C402.3 304 403.7 304 405 304zM429.9 430.1c0.1 0.4 0.2 1 0.8 0.6 0.1-0.1-0.1-0.8-0.1-1.2 -6.5-12.6-16.6-22.9-22.1-36.5 -1.4 2.3-1.2 4.6-1.7 6.6 -0.6 2.5-1.7 5 0.7 7.4C415 414.6 422.5 422.4 429.9 430.1zM406.9 551.5c-1.7 5.8-0.8 11.8-1.4 17.7 -1.1 11.6 9.6 27.1 20.6 30.5 1.3 0.4 2.9 0.8 3.7-0.2 0.9-1.1-0.1-2.5-1-3.5 -2.4-2.5-4.1-5.2-3.5-8.9 1.7-2.6 3.8-5 6.2-7 2.2-1.8 1.3-10.3-1.1-11.7 -0.4-0.2-0.8-0.4-1.2 0.1 -2.9 3.4-3.9 0-5.1-1.6 -8.1-11-13-23.3-16-36.7C407 537.4 406.6 544.4 406.9 551.5zM484.9 488.4c-1.9 1-2 2.7-2.5 4 -11.5 28.9-23 57.7-34.4 86.7 -3.5 8.8-3.3 8.8 5 13.4 2.8 1.6 3.7 1.4 4.4-1.9 3.4-15 8.6-29.3 15.5-43 5.3-10.5 8.7-21.6 9.7-33.3C483.4 505.7 485.7 497.3 484.9 488.4zM446.7 623.2c-1.9-4.6-6.6-6.3-8-9.4 -1.6-3.6-3.7-4.7-6.7-5.3 -9.2-1.9-16.5-6.6-22.2-14.1 -0.9-1.2-1.6-3.2-3.4-2C410 615.3 427.5 619.9 446.7 623.2z"/><path class="st0" d="M73 698c-6 0-12 0-18 0 -0.3-1.9-0.3-4.3-3.2-3.9 -2.5 0.3-1.5 2.5-1.8 3.9 -2.3 0-4.7 0-7 0 0.8-6-3.8-3.9-6.6-4.1 -3.4-0.3-3.2 1.8-2.4 4.1 -7.7 0-15.3 0-23 0 1.1-23 2.8-46 7.9-68.5 3.2-8.9 4.2-18.2 4.2-27.7 2.1 0.3 3 1.4 3.3 3 0.3 5.1-0.2 10.3 0.5 15.3 3.3 23 5.6 46.1 6.2 69.3 0.1 3.9 2.2 3.6 4.8 3.7 2.7 0.1 3.8-0.3 4.1-3.7 0.9-10.2 2.6-20.3 3.9-30.4 0.3 0.7 0.9 1.5 0.9 2.2 0.8 8.8 1.4 17.5 2.2 26.3 0.2 2.1-0.7 5.5 2.8 5.2 3.6-0.3 2.2-3.8 1.8-5.6 -1-5.5-0.6-10.9 0.2-16.3 0.4-2.4 1.1-4.8 0.9-7.4 -0.7-11.9-2.7-23.5-0.8-35.7 1.8-11.4 0.2-23.4-1.9-35.1 -0.3-1.4 0-3.1-1.9-3.6 0.3-3 0.6-6 0.9-9.1 2.4 0.3 4.5-0.7 6.7-1.2 2.5-0.5 6.8-3.2 7 2.6 1.1 24.1 3.8 48.1 4.3 72.2 0.2 11.9 0.4 23.9 2.7 35.7 0.5 2.7 1.5 3.8 4.2 3.7 4.5-0.1 9 0 13.5 0 5.9 0 5.9 0 3.8-5.3 -9.4-23.5-17.7-47.4-21-72.7 -0.8-6.3-1.9-12.5-1.3-18.9 0.2-2.3 0.7-5.4 3.2-5.6 2.8-0.2 2.2 3.1 2.7 5 2.6 9.8 4.5 19.7 8.1 29.2 3.7 9.9 10.3 17.8 15.3 26.8 1.8 3.2 4 5.6 7.6 6.5 1.3 3.2 0.1 7.3 2.8 10 6.2 6.2 7.7 14.4 10.3 22.2 0.8 2.3 1.9 3.6 4.3 2.8 2.4-0.8 1.7-2.8 1.1-4.6 -2.3-6.6-4.5-13.2-6.6-19.8 -0.4-1.2-1.9-3.4 0.4-3.6 7.9-0.5 13.6-4.6 18.5-11.2 0.9 5.3 1.7 9.7 2.4 14.1 1.3 7.5 2.6 15.1 3.8 22.7 0.3 1.9 1.3 2.5 3.1 2.4 1.2-0.1 1.8-0.7 1.7-1.9 -1.1-8.3 1.3-16.4 1-24.6 -0.9-27.6 12.5-49 30-68.5 0.1-0.1 0.6 0 1.2 0.1 2.1 15 3.3 30 0.6 45.1 -2.7 15.4-7.6 30.3-11.7 45.4 -0.4 1.4-1.6 3-0.4 4.2 1.5 1.6 2.9-0.7 4.5-0.8 1.1 1.3 2.7 1.1 4.2 1.1 11.3 0 22.5-0.1 33.8-0.1 0 0.4 0.1 0.7 0.1 1.1 -13 0-26 0-38.9 0 -3.5-0.9-5.6 0.2-5.9 4 -5.7 0-11.3 0-17 0 -1.1-1.4-0.1-4.7-3.6-4.2 -3.4 0.5-0.9 2.8-1.4 4.2 -2.3 0-4.7 0-7 0 0.1-2.1 0.1-4.1-2.8-4 -3 0.1-1.8 2.5-2.2 4 -1.7 0-3.3 0-5 0 -0.5-2.5-1.1-4.7-4.6-4.2 -3.3 0.5-0.5 3-1.4 4.2 -8.7 0-17.3 0-26 0 0.1-2.9-1.3-4.2-4.3-4.1 -5.3 0.1-10.7 0.1-16 0C73.7 693.8 72.3 694.9 73 698zM137.8 692c-1.1-4.4-1.8-7.6-2.7-10.7 -0.3-1.2-1-2.2-2.5-1.8 -1 0.3-1.6 1.2-1.6 2.3 -0.1 3.5 1 6.8 2.1 10.1 0.5 1.3 1.8 1.3 3 1.2C137.4 692.8 137.8 692 137.8 692z"/><path class="st2" d="M942.2 384.1c-0.1 3.9-0.2 7.8-0.4 11.7 -0.2 0.8-0.5 1.6-0.6 2.4 -2 14.5-1.1 29.4-5.2 43.7 -2.2 7.8-2.4 16.1-5.8 23.6 -2.6 5.9-11.4 10-17.4 7.7 -2.2-0.8-3.4-2.3-2.8-4.5 2.3-8.9 2.4-18.1 3.5-27.1 1.1-8.8 1.8-17.6 2.7-27 -5.4 4-8.1 8.8-10.2 14.1 -3.5 8.7-5.5 17.7-7.4 26.9 -6.4 31.3-12.6 62.5-16.9 94.2 -3.3 17.5-5.3 35.1-7.6 52.7 -1 7.4-1.7 14.9-2.6 22.3 -0.2 1.6-0.6 3.6-2.6 3.8 -2.1 0.1-1.9-1.8-2-3.3 -0.6-6.6-1.3-13.2-1.8-19.9 -1.8-20.7-2-41.5-2-62.3 0.7-7.9 1.2-15.9 2-23.8 3-29.5 9.7-58 22.9-84.8 1.2-2.4 0.9-8 6.6-5.2 0.2 0.1 0.9-0.9 1.3-1.4 4.4-5.2 8.9-10.4 13.3-15.5 1-1.1 1.9-2.4 3.1-3.2 1.8-1.2 2.3 2.1 4.3 1.4 3.1-35.5 5.9-71 5.4-106.6 7.3 0 14.7 0 22 0C941.2 330.7 942.4 357.4 942.2 384.1z"/><path class="st0" d="M922 304c0.6 35.7-2.3 71.1-5.4 106.6 -2 0.8-2.6-2.6-4.3-1.4 -1.2 0.8-2.1 2.1-3.1 3.2 -4.5 5.2-8.9 10.3-13.3 15.5 -0.4 0.5-1.2 1.5-1.3 1.4 -5.8-2.9-5.5 2.8-6.6 5.2 -13.2 26.7-19.9 55.3-22.9 84.8 -0.8 7.9-1.4 15.9-2 23.8 -4 1-2.9-1.9-2.9-3.8 0-26.9 0.3-53.7-2.2-80.5 6.1-10.7 11.7-21.6 20.7-30.2 1.9-1.8 4-3.5 3.5-6.7 -0.3-1.8 1.2-3 2.2-4.3 7.8-10.7 15.8-21.4 23.6-32.1 1.2-1.6 2.9-3 2.5-5.2 -0.3-1.9-0.8-3.7-3.5-2 -14.2 8.7-26.8 19.3-38.5 30.9 -3.8 3.7-7.2 7.8-11.1 12.1 -0.3-3.3-3.6-4.2-4.6-6.8 2.8-0.4 6.8-0.7 5.8-4.3 -1.4-5 1-8.5 2.4-12.7 10.8-31.1 19.6-62.8 32-93.3C902.7 304 912.3 304 922 304z"/><path class="st2" d="M51.2 579.9c-0.3 3-0.6 6-0.9 9.1 -0.6 2-1 4.2-2 6.1 -3.9 7.7-12.9 8.2-17.7 1.2 -1.5-2.2-1.4-4.7-1.6-7.2 2.7-4.8 3.5-9.9 2.1-15.3 -1.5-6.1-2.4-12.4-4.2-18.3 -2.6-8.5-5.8-16.7-12-23.3C13 526.1 11.2 520 7 515c0-17 0-34 0-51 1.8-0.9 1.7 0.7 1.9 1.5 6.2 22.7 13.3 45.2 18.2 68.3 1 4.8 1.4 9.9 3.3 14 0-10 0.4-20.3-0.1-30.6 -1.2-28.2 1.3-56.6-4.2-84.6 -0.4-1.9-0.3-3.6-2.7-4.3 -2.5 4.6-3.6 9.6-4.4 14.7 -0.3 1.7-0.3 3.6-2.4 3.9 -2.4 0.3-2.2-2-2.6-3.5 -1.5-5.4-1.9-10.9-0.9-16.4 2.5-14.7 3.9-29.6 8.5-44 4.5-14.2 8.4-28.7 12.5-43 0.2-0.2 0.5-0.5 0.5-0.5 -0.3-0.5-0.7-0.3-1 0.1 -1.7 0.5-3.5 1-5.2 1.5 -7 2.2-14 4.8-21.5 4.8 0-6.7 0-13.3 0-20 8.9-0.2 17.4 1.8 25.5 5.3 3.9 1.6 4.9 0.6 6-3 2.6-8.2 5.6-16.2 8.5-24.3 1.7 0 3.3 0 5 0 -11.8 32.3-22.4 65-30.5 98.5 -2.1 8.7-2.5 16.3-1.2 20.3 3.4-5.1 8.7-9.6 10.2-14.6 5-16.9 18.6-27.7 27.8-41.5 9.3-14 20-27 30.2-40.4 0.3-0.4 0.6-0.9 1-1.1 1.5-0.9 2.2-4.5 4.3-2.7 1.4 1.2 1.1 4.3-0.7 6.4 -3.5 4-6.7 8.2-9.1 13 0 0 0 0 0 0 -1.7 0.8-2.6 2.2-3 4l0 0c-0.7 0-0.9 0.5-0.9 1.1l0 0c-0.9 0.2-1.3 0.9-1.4 1.7 -0.3 0.4-0.6 0.8-0.9 1.2 -8.5 10.8-17.2 21.5-24.8 32.9 -0.6 0.1-0.9 0.6-0.9 1.2l0 0c-2.1 1.2-2.5 3-1.5 5.1 0.7 1.6 0.8 3.2 0.6 4.9 -1.6 13.6-1.6 27.3-1.7 40.9 -0.4 46.1-3 92.2 1.9 138.2C51.2 575.4 51.2 577.6 51.2 579.9zM43.6 536.9c0-46.1 0.6-92.1 2.5-138.9 -2.3 1.9-2.2 3.9-2.6 5.6 -4.2 16.3-8.7 32.7-7.2 49.6 2 21.5 3.8 43 4.6 64.6C41.2 524.1 41.3 530.6 43.6 536.9z"/><path class="st2" d="M531.1 522c0.4-3.6-0.4-5.8-4.9-5.2 -1.5 0.2-3.2-1.3-4.9-2 -1.4-2.3-2.9-4.5-2.9-7.3 0-1.5 0.1-3.1 1.5-4 1.6-1.1 2.4 0.6 3.4 1.3 4.9 3.1 8.2 2.7 11.5-2.1 3.9-5.6 6-11.7 4.5-18.8 -4.7-23.6-7.3-47.3-5.5-71.4 1.6-21.5 2.2-43.1 1.1-64.7 -0.4-7.1-1.4-14.2-2.2-21.3 -1-8.7-6-14.2-14.1-16.9 -2.7-0.9-5.4-1.7-8-2.9 -1-0.5-3.1-0.5-2.7-2.7 13 0 26 0 39 0 1.1 23.8 1.1 47.6 0.1 71.4 -0.5 13 2.1 25.8 2.5 38.8 0.5 16.8 0.1 33.6-0.6 50.4 -0.3 7.4 0.5 14.6 1.6 21.9 0.8 5.6 1.3 11.3-0.8 16.8 -0.5 1.4-0.2 2.5-0.1 3.9 0.8 9.6 2.6 19.3 2 28.8 -1.2 19.6-2.1 39.3-1.4 58.7 0.8 22.4 0.1 45.1 5.2 67.3 1.8 7.7 4.4 15.3 3.2 23.5 -0.1 0.6 0.3 1.3 0.2 2 -0.2 1.9 4.4 3.8 0.2 5.5 -4.8 1.9-10.6-0.1-11.4-3.7 -1.4-5.6-1.4-11.4-2.6-17.1 -2.6-12-6.4-23.6-10.8-35 -0.6-1.5-0.6-3-0.2-4.4 1.8-6.2 1.3-12.5 0.8-18.8 -1-11.8 1.7-23.3 2.9-34.9 0.7-7-0.2-14-0.4-20.9 -0.3-9.7 0.1-19.3 0.6-28.9 0.2-4 0.2-7-5-6.2C532.4 522.9 531.7 522.3 531.1 522zM532.9 516.8c4.9 0.6 7.7-1.1 10.1-3.5 -0.2-0.4-0.4-0.9-0.7-1.3C539.5 513.4 536.7 514.8 532.9 516.8z"/><path class="st0" d="M508 304c-0.4 2.2 1.6 2.2 2.7 2.7 2.5 1.2 5.3 2 8 2.9 8.2 2.7 13.1 8.2 14.1 16.9 0.8 7.1 1.8 14.2 2.2 21.3 1.1 21.6 0.5 43.2-1.1 64.7 -1.8 24.1 0.8 47.8 5.5 71.4 1.4 7.1-0.7 13.2-4.5 18.8 -3.3 4.8-6.5 5.2-11.5 2.1 -1-0.7-1.8-2.3-3.4-1.3 -1.4 0.9-1.5 2.5-1.5 4 0 2.8 1.6 5 2.9 7.3 -7.6-0.3-13.5-7.9-13-15.3 0.8-14.1 0.8-28.2-0.1-42.4 -0.4-6.4-1.6-12.8-0.4-19.2 0.3 0.8 0.7 1.5 0.8 2.3 0.3 3.8 0.5 7.6 0.9 11.4 0.1 1.3 0.5 2.9 2.2 2.9 1.9 0 2.3-1.6 2.2-3.2 -0.1-2.3 0-4.7-0.3-7 -1.4-11.3-3.7-22.6-2.7-34.1 0.1-1.2 0.1-2.5-1.2-3 -1.9-0.7-2.5 1.1-3.5 2.1 -2.6-12.5-3-25.2-2.3-37.8 0.9-15.8-2.5-31.1-3.5-46.7 -0.4-7 0-14-0.5-20.9C502.7 304 505.3 304 508 304zM514.9 365.9C515 365.9 515 365.9 514.9 365.9c-0.3-7.1-0.6-14.2-1.1-21.4 -0.5-6.8-1.1-13.5-1.7-20.3 -0.1-1.3 0.1-3-1.7-3 -1.9 0-2.3 1.6-2.4 3.2 0 0.7-0.1 1.3 0 2 1 15.4 2 30.8 3.1 46.1 0.1 1.3 0.1 3 1.9 3 1.9 0 2.5-1.7 2.5-3.1C515.5 370.2 515.1 368 514.9 365.9zM517 390.4c-0.4-1.7-0.6-3.1-1-4.6 -0.3-1-0.9-1.8-2.1-1.6 -1.1 0.2-1.9 1-1.8 2 0.1 3.8-0.7 7.5-1.2 11.2 -0.2 1.2 0.3 2.3 1.8 2.5 1.1 0.1 1.9-0.5 2.2-1.6C515.7 395.7 516.4 393 517 390.4z"/><path class="st2" d="M618 304c-2 18.9-1.5 38-0.9 56.9 0.6 17.4 0 34.9 3.4 52.2 1.3 6.5 0.3 13.1-0.8 19.8 -1.4 8.3-1.3 16.9 1.2 25.1 2.2 7.2 1.8 9.1-3.7 13.6 -7.6 6.2-16.4 5.3-25.1 4.2 -2.8-0.4-4.3-2.6-4.6-5.7 -0.6-6.7 0.4-13.2 2.1-19.5 4-14.6 3.3-29.2 2-44 -1.7-18.5-4.7-37-3.7-55.7 0.3-5.6-0.8-11.3-1.2-16.9 -0.6-10-1.1-20-1.7-30C596 304 607 304 618 304z"/><path class="st0" d="M221 698c-1 0-2 0-3 0 -0.4-1.8-1.1-3.7-1.1-5.5 -0.3-19.1 1.1-38.3-0.9-57.3 -1.3-12.3-0.8-24.5 0.4-36.7 1.8 13.1 0.6 26.4 2.2 39.6 1.9 16.8 1.8 33.8 2.3 50.8 0.1 4.9 3.1 4 6 4.2 3.3 0.2 4.9-0.4 5.2-4.5 1.1-15.7-2.1-31.3 0-47.2 1.3-10.2-1.4-20.8-1.8-31.3 -0.3-8.8-2.5-17.7-1.1-26.3 1.3-8 1.6-15.8 1.8-23.8 0.2-6.6-0.6-13.3 0.7-19.9 0.2-1.1-0.1-2.7 1.4-2.9 6.8-0.7 12.5-3.7 17.8-9.7 0 3.6 0.1 5.5 0 7.5 -0.3 8.1-0.9 16.3-1 24.4 -0.1 6.2-0.5 12.7 1 18.6 1.3 4.9 2.1 9.6 2 14.6 0 2.3-0.1 4.6 0 6.9 0.8 30.4 2.2 60.8 4 91.2 0.1 1.1-0.3 2.5 1.5 2.5 1.4 0 2.3-0.8 2.4-2 0.2-2.6 0.3-5.3 0.1-8 -1-20.8-2-41.5-2.9-62.3 -0.3-6.7 0-13.4 0-21.1 4.3 7 7 13.6 6.8 20.9 -0.2 8 1 15.8 2.8 23.6 3 13.2 6 26.5 8.9 39.7 1 4.7 1.6 9.4 2.5 14.1 -6 0-12 0-18 0 -0.9-1.3 1.4-3.8-1.8-4.2 -3.4-0.4-2.9 2.2-3.2 4.2 -8 0-16 0-24 0 0.5-3.3-1.1-4.4-4.2-4.1C224.9 694.2 220.8 692.5 221 698z"/><path class="st1" d="M893 304c-12.4 30.5-21.3 62.2-32 93.3 -1.4 4.1-3.8 7.7-2.4 12.7 1 3.7-3 3.9-5.8 4.3 0 0 0 0 0 0 -0.1-0.7-0.5-1-1.2-1 -3.5-3.4-6.8-6.9-10.4-10 -1.5-1.3-1.2-2.6-1.2-4 -0.3-7.8 0.5-15.8-1-23.4 -1.7-8.5 0-16.7-0.3-25.1 -0.4-8.6 1.5-17.2 3.2-25.7 0.6-2.9 2-4.7 4.3-6.2 7.7-5 16.1-8.6 24.6-12.1 1.9-0.8 1.9-0.8 2.3-2.7C879.7 304 886.3 304 893 304z"/><path class="st2" d="M279 698c-0.8-4.7-1.4-9.4-2.5-14.1 -2.9-13.3-5.8-26.5-8.9-39.7 -1.8-7.8-2.9-15.6-2.8-23.6 0.1-7.3-2.5-13.8-6.8-20.9 0 7.8-0.2 14.5 0 21.1 0.9 20.8 2 41.5 2.9 62.3 0.1 2.7 0 5.3-0.1 8 -0.1 1.3-1 2-2.4 2 -1.8 0-1.5-1.3-1.5-2.5 -1.8-30.4-3.2-60.8-4-91.2 -0.1-2.3 0-4.6 0-6.9 3.2-4.1 7.2-6.1 11.8-2.7 4 3 8.7 2.9 13.2 4.1 5.4 1.7 7.5 6 5.3 11.4 -1.4 3.5-1.6 6.9-1.3 10.5 -2.2 5.9 2.7 9.6 4.5 14.5 8.9-13.7 18.4-27 25.2-41.9 0.7-1.5 1.2-3.3 3.5-2.6 1.8 0.5 2.8 1.7 2.9 3.6 0 1 0.2 2 0.1 3 -0.4 8.8-0.7 17.6-1.5 26.4 -1 11.7-5 22.8-9.7 33.3 -3.7 8.2-9.4 15.7-14.9 22.9 -4.1 5.4-7.2 10.7-6.4 17.7 0 0 0-0.1 0-0.1 -2.4 1.1-2.7 2.9-1.9 5.1C282.3 698 280.7 698 279 698zM312.7 598c-6 11.8-12.3 21.7-19.3 31.3 -3.8 5.3-6.9 11-7.2 17.8 -0.3 8.6 0.1 17.3-0.9 25.8 -0.1 1.1-0.6 2.8 0.6 2.9C303 652.9 315.6 628.7 312.7 598z"/><path class="st0" d="M34.1 340.1c-4.1 14.4-8 28.8-12.5 43 -4.6 14.4-6 29.3-8.5 44 -0.9 5.4-0.6 11 0.9 16.4 0.4 1.5 0.3 3.8 2.6 3.5 2-0.2 2.1-2.2 2.4-3.9 0.8-5.1 1.9-10.1 4.4-14.7 2.4 0.6 2.3 2.4 2.7 4.3 5.6 28 3 56.4 4.2 84.6 0.4 10.3 0.1 20.6 0.1 30.6 -2-4.2-2.3-9.2-3.3-14 -4.9-23.1-11.9-45.6-18.2-68.3 -0.2-0.9-0.2-2.5-1.9-1.5 0-39.3 0-78.7 0-118 7.5-0.1 14.5-2.6 21.5-4.8 1.7-0.5 3.5-1 5.2-1.5C33.8 339.8 34 340 34.1 340.1z"/><path class="st0" d="M942.2 384.1c0.2-26.7-1-53.5 1.8-80.1 4.7 0 9.3 0 14 0 0.4 12.3 2.4 24.4 3.4 36.7 1.5 18.4 5 36.5 4.6 55.1 -0.2 10.7 2.8 21 4.4 31.5 0.8 5.2 0.3 10.3 0.5 15.4 0 0.8-0.1 2.1-0.6 2.3 -4.3 2.1-8.8 0.8-13.2 0.8 -3.2 0-2.6-3.1-2.9-5 -2.9-17-5.6-34.1-8.4-51.1C945.5 387.3 945.7 384.5 942.2 384.1z"/><path class="st1" d="M749.1 347c-6.7 10.8-13.9 21.4-19.7 32.7 -4.1 7.8-7.2 16-8.6 25.6 -2.7-4.9-3.5-9.6-3.6-14 -0.5-14.5-4.2-28.3-7.9-42.2 0.9-3.5 1.8-7 4.2-9.8 2.8-3.1 2.9-6.9 2.4-10.7 -1.2-8.2-2.1-16.3-1.8-24.6 11.3 0 22.7 0 34 0 -3.4 4-4.8 8.4-3.9 13.7C745.9 327.5 747.4 337.2 749.1 347z"/><path class="st0" d="M996 655c-2.7-5.4-2.6-11.5-3.8-17.3 -3.8-18.4-9-36.5-13.8-54.6 -3.5-13.1-5.1-26.7-7.3-40.2 -4-23.8-7.9-47.5-11.8-71.3 -0.2-0.9-0.6-1.9 0-2.6 12.6 5.2 14 16.7 15.5 27.9 1.4 10.7 3 21.2 5.6 31.8 3.9 16.1 9.9 31.3 14.9 47 0.1 0.5 0.5 0.9 0.7 1.3C996 603 996 629 996 655z"/><path class="st0" d="M378 360.9c-3.2 4.8-7.9 7.6-12.9 10.2 -0.7-7.2 0.3-14.2 2.9-21.1 2.5-6.8 2.8-14 2.9-21.1 0.1-8.3 0.1-16.6 0.1-25 10 0 20 0 30 0 -0.7 19.5 1.1 38.9 5 58 0.9 4.2-0.1 7.3-2.5 11.1 -4.9-8.6-11.1-3.7-17.9-1.2 2.4-7.7 4.4-14.4 5-21.2 0.2-2.3 2.3-6-1.3-6.9 -3.3-0.8-2.7 3.4-3.9 5.3 -1.2 2-1.6 4.4-3.4 6 -0.8-11.1-0.2-22.2 0.9-33.3 0.2-1.6 0.4-3.8-1.7-4.1 -2.4-0.4-2.3 2-2.5 3.5C376.9 334.4 376.1 347.6 378 360.9z"/><path class="st2" d="M129 304c-0.3 20.5-0.5 40.9-1.1 61.4 -0.6 20.6-0.5 41.3-2 61.9 -0.3 4-0.6 8-1.1 11.9 -1.1 8.3-7.4 13.9-16.4 14.8 -5.2 0.6-10.2-0.2-15.2-2 -4.6-1.6-6.3-4.2-5.9-9.4 2.9-34.8 6.3-69.6 7.6-104.5 0.3-7.5 4.1-13.1 6.6-19.5 -3.3 13.6-1.7 27.5-3 41.3 -1.7 18.1-2.9 36.1-4.3 54.2 -0.3 3.6 1.1 6.9 2.2 10.1 1.5 4.4 3.7 8.5 5.3 12.9 1.2 3.1 2.3 5.8 6.3 5.9 4.1 0.1 7.5-1.2 9.9-4.7 2-3 2.9-6.3 3.1-9.8 2.4-37 2.5-74 3.4-111 0.1-4.5 0.4-9 0.5-13.5C126.3 304 127.7 304 129 304z"/><path class="st0" d="M255 399.1c-2.6-13.1-3.5-26.5-4.9-39.8 -0.4-4.2 0.1-8.3 1-12.4 4.1 0.3 3.5-2.7 3.4-5.1 -0.3-12.6-0.4-25.2-1.5-37.8 6.3 0 12.7 0 19 0 -0.6 7-2.4 14.2-0.5 20.8 1.9 6.8 0.1 12.6-1.1 18.8 -0.8 3.9-1.6 8-1.2 11.9 1.1 12-0.5 23.9-0.2 35.9 0.2 7.2-2 8.9-9.1 7.1C258 398 256.5 397.4 255 399.1z"/><path class="st1" d="M7 515c4.2 5 6 11.1 7.9 17.1 2.2 13.2 4.5 26.3 6.7 39.5 1.1 6.4-0.2 13.8 7.4 17.5 0.2 2.5 0.1 5 1.6 7.2 4.8 7 13.8 6.5 17.7-1.2 1-1.9 1.3-4.1 2-6.1 1.9 0.5 1.7 2.2 1.9 3.6 2.1 11.6 3.7 23.7 1.9 35.1 -1.9 12.2 0.1 23.9 0.8 35.7 0.2 2.6-0.5 4.9-0.9 7.4 -0.8 5.4-1.2 10.8-0.2 16.3 0.3 1.8 1.8 5.3-1.8 5.6 -3.5 0.3-2.7-3.1-2.8-5.2 -0.8-8.8-1.4-17.5-2.2-26.3 -0.1-0.8-0.6-1.5-0.9-2.2 0.2-6.3 0.1-12.5 0.6-18.8 0.9-11.5-0.6-23.2-0.4-34.9 0-2.4-1.9-3.1-3.3-1.9 -3.6 3.2-6.8 1.1-9.6-0.6 -3.4-2.1-5.4-1.4-7 1.9 -0.3-1.6-1.2-2.7-3.3-3 0 9.5-1 18.8-4.2 27.7 -1.1-1.1-1.7-2.9-3.8-2.1 0.2-1.3 0.4-2.6 0.7-3.9 4.9-17.3 3.1-33.3-8.8-47.5 0-7.3 0-14.7 0-22 2.8 4.4 5.6 8.8 8.6 13.6 1-3.1-0.2-5.5-0.6-7.9C12.8 547.3 11 534.9 7 523 7 520.3 7 517.7 7 515z"/><path class="st2" d="M255 399.1c1.4-1.7 3-1.1 4.8-0.6 7.1 1.8 9.3 0.2 9.1-7.1 -0.3-12 1.3-23.9 0.2-35.9 -0.4-3.9 0.4-8 1.2-11.9 1.2-6.2 3-12 1.1-18.8 -1.8-6.6-0.1-13.9 0.5-20.8 1.7 0 3.3 0 5 0 -1.8 7.7-2 15.6-0.8 23.2 0.6 3.9 2.4 7.7 2.5 12 0.3 18.3-0.2 36.6 1.2 54.9 0.5 6.2 0.5 6.3 7.1 4.8 2.9 0.6 2.9 2.9 2.8 5.1 -0.2 7.6-0.4 15.3-0.7 22.9 -0.2 4.1-1.3 3.8-5.2 2.5 -11.6-3.8-17.5-14-25.6-21.7C256 405.5 254.6 402.5 255 399.1z"/><path class="st2" d="M216.4 598.5c-1.2 12.2-1.7 24.4-0.4 36.7 2 19 0.6 38.2 0.9 57.3 0 1.8 0.7 3.7 1.1 5.5 -1.7 0-3.3 0-5 0 0-1.3-0.1-2.7-0.1-4 0-0.4-0.1-0.7-0.1-1.1 -0.2-7.6-0.4-15.3-0.7-22.9 0-1.1 0.6-2.7-0.8-3.1 -3.7-1.2-2.8-3.9-2.4-6.5 2-14.1 0.8-28.3-0.6-42.2 -2.4-24.1-7.6-47.9-7.3-72.2 4-6.4 6.3-13.5 8-20.8 0.4-1.6 0.2-3.8 2.4-3.8 2 0 2.3 2.1 2.7 3.7 -0.7 2.3-0.2 4.6 0.1 6.9C216.9 554.1 217.7 576.2 216.4 598.5zM210.8 598.8c2.5-19.5 1.7-39-1.1-58.4C201.8 560 209 579.4 210.8 598.8z"/><path class="st0" d="M242 304c2.1 15.1 0.5 30.3 1.1 45.4 0 1 0 2.6-0.5 2.8 -5.2 2.2-3.3 6.7-3.4 10.4 -0.2 5.2-0.1 10.3 0 15.5 0 3.2-0.4 6.1 3.2 8.7 3.7 2.6 0.9 11.4-3.6 12.8 -3 0.9-6.1 1.3-9.2 3.3 -1.5-33.4-0.3-66.1-0.4-98.8C233.3 304 237.7 304 242 304z"/><path class="st0" d="M47 304c-2.9 8.1-5.9 16.1-8.5 24.3 -1.1 3.5-2.1 4.6-6 3 -8.1-3.4-16.6-5.5-25.5-5.3 0-7.3 0-14.7 0-22C20.3 304 33.7 304 47 304z"/><path class="st0" d="M287 398.9c-6.6 1.5-6.7 1.3-7.1-4.8 -1.4-18.3-0.9-36.6-1.2-54.9 -0.1-4.3-1.9-8-2.5-12 -1.2-7.7-1-15.6 0.8-23.2 2.7 0 5.3 0 8 0 0 10.3 0 20.6 0 30.9 0 6.1-0.3 12.3-0.9 18.4 -1.1 12.5 2.7 24.7 2.3 37.2C286.4 393.3 286.8 396.1 287 398.9z"/><path class="st0" d="M714 304c-0.3 8.3 0.6 16.4 1.8 24.6 0.6 3.8 0.4 7.6-2.4 10.7 -2.5 2.8-3.4 6.3-4.2 9.8 -3.1-10.9-8.5-21.1-9.9-32.6 -0.6-4.8-4.4-8-5.4-12.5C700.7 304 707.3 304 714 304z"/><path class="st0" d="M978 304c-1.1 19.2-4 38.1-9.8 56.6 -2.1-18.9-4.2-37.8-6.2-56.6C967.3 304 972.7 304 978 304z"/><path class="st0" d="M7 576c11.9 14.2 13.7 30.2 8.8 47.5 -0.4 1.3-0.5 2.6-0.7 3.9 -1.4 4.3-5.3 6.5-8 9.6C7 616.7 7 596.3 7 576z"/><path class="st0" d="M749.1 347c-1.6-9.8-3.2-19.5-4.9-29.3 -1-5.3 0.5-9.7 3.9-13.7 3.7 0 7.3 0 11 0 0.1 1.8 0.3 3.6 0.1 5.4 -0.6 8.7-1.4 17.4-2.1 26C754.4 339.3 751.7 343.2 749.1 347z"/><path class="st2" d="M7 637c2.8-3.1 6.7-5.3 8-9.6 2.1-0.8 2.8 1 3.8 2.1C13.8 652 12.1 675 11 698c-3.4 0.8-4.1-0.6-4.1-4C7.1 675 7 656 7 637z"/><path class="st0" d="M996 385c-5 10.2-6.7 21.4-10 32.3 -2.3-8.5-2.4-17.1-1-25.7 2.7-17.1 6.1-34 9.7-50.9 0.2-1 0.3-2 1.3-2.6C996 353.7 996 369.3 996 385z"/><path class="st1" d="M757.1 335.4c0.7-8.7 1.4-17.3 2.1-26 0.1-1.8-0.1-3.6-0.1-5.4 5.3 0 10.7 0 16 0 -0.1 3.1-1.4 6.1-0.9 9.2C768.4 320.6 762.7 328 757.1 335.4z"/><path class="st2" d="M253 304c1.1 12.6 1.2 25.2 1.5 37.8 0.1 2.3 0.7 5.4-3.4 5.1 -2.2-4.2-0.8-8.8-1-13.2 -0.5-9.9-0.7-19.8-1-29.7C250.3 304 251.7 304 253 304z"/><path class="st1" d="M325 698c0.2-3 1.8-4.2 4.9-4.1 13.1 0.1 26.2 0.1 39.3 0 3.1 0 4.3 1.2 3.9 4.1C357 698 341 698 325 698z"/><path class="st1" d="M631.8 694c14.1 0 28.2 0 42.2-0.2 3.3 0 4.9 1.4 5.9 4.2 -16 0-32 0-48 0C630.9 696.7 632.1 695.3 631.8 694z"/><path class="st0" d="M7 523c4 11.9 5.8 24.3 7.9 36.7 0.4 2.4 1.6 4.7 0.6 7.9 -3-4.8-5.8-9.2-8.6-13.6C7 543.7 7 533.3 7 523z"/><path class="st1" d="M956 698c0.3-3 1.8-4.2 4.9-4.1 11.7 0.2 23.4 0.1 35.1 0.1 0.8 3.4-0.6 4.2-4 4.1C980 697.8 968 698 956 698z"/><path class="st1" d="M212.9 694c0 1.3 0.1 2.7 0.1 4 -13.3 0-26.7 0-40 0 0.3-1.3 0.6-2.7 0.9-4C186.9 694 199.9 694 212.9 694z"/><path class="st2" d="M721 698c-1-3.3 0.1-4.3 3.5-4.2 8.8 0.2 17.6 0.2 26.3 0 3.3-0.1 4.5 1.1 4.1 4.2C743.7 698 732.3 698 721 698z"/><path class="st1" d="M73 698c-0.7-3.1 0.7-4.2 3.7-4.1 5.3 0.1 10.7 0.1 16 0 2.9-0.1 4.4 1.2 4.3 4.1C89 698 81 698 73 698z"/><path class="st2" d="M886 698c-0.6-3.4 0.9-4.4 4.1-4.2 4.2 0.2 8.3 0.2 12.5 0 3.3-0.2 4.6 1 4.4 4.2C900 698 893 698 886 698z"/><path class="st2" d="M631.8 694c0.3 1.3-1 2.7 0.2 4 -5 0-10 0-15 0 -0.6-2.7 2-2.5 3.2-3.4 1.2-0.9 3.3-0.5 3.9-2.4 2.4-0.4 4.7-0.2 6.9 0.9C631.3 693.4 631.5 693.7 631.8 694z"/><path class="st1" d="M284 698c-0.8-2.2-0.5-4 1.9-5.1 3.7 2.1 7.7 0.8 11.6 0.9 3.5 0.1 4 1.4 2.5 4.2C294.7 698 289.3 698 284 698z"/><path class="st1" d="M441 698c-0.8-2.5-1-4.6 2.8-4.1 5.2 0.7 11.5-2.4 15.2 4.1C453 698 447 698 441 698z"/><path class="st1" d="M762 698c-0.2-2.8 0.7-4.3 3.9-4.1 4.7 0.3 10-1.4 13.1 4.1C773.3 698 767.7 698 762 698z"/><path class="st2" d="M689 698c-0.2-1.4-3-1.6-1.8-3.5 0.8-1.3 2.4-0.6 3.7-0.7 2.2-0.1 4.4 0.2 6.5-0.1 3.4-0.5 5.4 0.7 5.7 4.2C698.3 698 693.7 698 689 698z"/><path class="st1" d="M866 698c-0.2-2.7 0.6-4.4 3.8-4.1 2.3 0.2 4.6 0.2 6.9 0 3.1-0.3 4.6 0.9 4.3 4.1C876 698 871 698 866 698z"/><path class="st2" d="M913 698c-0.6-3.4 0.7-4.8 4.2-4.2 1.9 0.3 4 0.4 5.9 0.1 3.6-0.6 4.3 1.1 3.9 4.1C922.3 698 917.7 698 913 698z"/><path class="st2" d="M817 698c0.3-1.7 1.4-2 2.9-1.9 6.2 0.6 12.1-0.6 18-2.1 0.5 1.3 2.2 2.2 1.1 4C831.7 698 824.3 698 817 698z"/><path class="st2" d="M399 698c-0.3-3.2-2.2-1.3-3.5-1 -1.6 0.3-3.2 0.4-3.3-1.7 -0.1-2.2 1.8-1.3 2.9-1.4 2.6-0.1 5.3 0.2 7.9-0.1 3.4-0.4 4.3 1.3 4.1 4.2C404.3 698 401.7 698 399 698z"/><path class="st0" d="M774.1 313.2c-0.6-3.2 0.8-6.1 0.9-9.2 3 0 6 0 9 0C781.4 307.9 778.2 311 774.1 313.2z"/><path class="st2" d="M550 698c-2-2.7-2.1-4.5 2.1-4.2 1.6 0.1 3.3 0.2 4.9 0 3.3-0.4 4.5 1.1 4 4.2C557.3 698 553.7 698 550 698z"/><path class="st1" d="M221 698c-0.2-5.5 3.9-3.8 6.8-4.1 3.1-0.3 4.7 0.8 4.2 4.1C228.3 698 224.7 698 221 698z"/><path class="st2" d="M595 698c-1.7-1.1-3.4-2.2-6.5-4.2 3.8 0 6.4 0.2 8.9-0.1 3.6-0.4 4.2 1.3 3.6 4.2C599 698 597 698 595 698z"/><path class="st2" d="M34 698c-0.8-2.3-1-4.5 2.4-4.1 2.8 0.3 7.3-1.9 6.6 4.1C40 698 37 698 34 698z"/><path class="st1" d="M839 698c1.1-1.7-0.6-2.7-1.1-4 2.9 0.8 8.1-2.9 8.1 4C843.7 698 841.3 698 839 698z"/><path class="st2" d="M173.9 694c-0.3 1.3-0.6 2.7-0.9 4 -1.7 0-3.3 0-5 0C168.3 694.2 170.5 693.1 173.9 694z"/><path class="st2" d="M123 698c0.9-1.2-1.9-3.6 1.4-4.2 3.5-0.6 4 1.7 4.6 4.2C127 698 125 698 123 698z"/><path class="st2" d="M503 698c1-1.2-2.6-3.5 0.8-4.1 3-0.5 4.6 0.9 4.2 4.1C506.3 698 504.7 698 503 698z"/><path class="st2" d="M256 698c0.3-2-0.1-4.5 3.2-4.2 3.1 0.3 0.9 2.9 1.8 4.2C259.3 698 257.7 698 256 698z"/><path class="st2" d="M146 698c0.5-1.4-2-3.7 1.4-4.2 3.5-0.5 2.5 2.7 3.6 4.2C149.3 698 147.7 698 146 698z"/><path class="st1" d="M134 698c0.4-1.5-0.8-3.9 2.2-4 2.9-0.1 2.9 2 2.8 4C137.3 698 135.7 698 134 698z"/><path class="st1" d="M50 698c0.3-1.5-0.8-3.6 1.8-3.9 2.9-0.4 2.9 2 3.2 3.9C53.3 698 51.7 698 50 698z"/><path class="st2" d="M951.9 502.1c2.2 28.6 1.1 57-3.5 85.3 -0.3 1.8-0.4 3.6-0.6 5.4 -6.9 21.2-14.1 42.4-17.3 64.6 -1.5 10.4-2.6 20.8-3.2 31.2 -0.2 3-0.7 4.3-4.2 4.2 -11.3-0.2-11.3 0-14.2-10.9 -0.8-3.2-1.6-6.4-2.6-10.4 -2.5 3.9-4.6 7.6-9.8 8.8 2.1 0.7 3.5 0.9 4.7 1.5 2.5 1.1 5.8 7.7 4.7 9.8 -1.4 2.7-4.2 0.8-6.3 1.3 -1.1 0.2-2.3 0.1-3.5 0 -2.8-0.1-6.4 0.8-8.3-0.6 -2.8-2 0.8-5 0.9-7.7 0.1-4.5-2.2-8.5-1.9-13.2 1.2-17.4 2.7-34.8 5.3-52.1 0.1-0.8 0.1-1.6 0.1-2.4 3.5-13.2 5.1-26.8 7.5-40.3 0.8-4.5 2.4-8.9 2.1-13.6 0.4-2.1 0.9-4.2 1.1-6.4 3-24.5 4-49.1 6-73.6 0.4-5.4 3.6-7.4 8.5-5.5 3.1 1.3 6.4 2 9.8 1.5 3.5-0.5 4.7 0.9 5.2 4.2 1.5 9.6 1.1 19.1-2.7 28 -5.1 11.8-7.4 24.1-9.2 36.6 -1.4 10.1-2.6 20.2-2.2 30.5 8.5-20.2 20.3-38.9 25.3-60.4 1.2-5 5.6-8.8 4.5-14.7C947.6 500.8 950.4 501.8 951.9 502.1zM913.1 493.3c-0.1 0-0.2-0.1-0.3-0.1 -0.6 7.9-1.3 15.7-1.7 23.6 -1.5 28.6-5.2 57-10.9 85.1 -4.6 22.9-7.6 46-8.5 69.3 -0.1 1.3-0.9 3.4 1.5 3.5 2.3 0.1 1.9-1.8 1.9-3.3 0.2-4.7 0.2-9.3 0.5-14 1.8-27.5 9.9-54 12.1-81.4 1.5-18 6.6-35.7 5.5-54C912.6 512.4 913.1 502.8 913.1 493.3zM920.4 591.8c-0.4-0.1-0.8-0.2-1.2-0.3 -0.4 0.9-0.8 1.7-1.1 2.6 -4.9 17.3-6.9 35.1-10.1 52.7 -0.4 2.1 0.4 3.9 1.5 5.5C916.2 632.7 916 611.9 920.4 591.8z"/><path class="st1" d="M901.9 563.1c0.3 4.7-1.3 9.1-2.1 13.6 -2.5 13.4-4 27-7.5 40.3 -1.8 0-2 1.2-2.3 2.7 -3.9 23-6.3 46.1-7.9 69.3 -0.2 3-1.2 4.1-4.2 4.1 -14.6-0.4-11.8 1.9-11.7-11.3 0.2-21-1.8-41.8-3.2-62.7 -0.2-3.2-1.5-4.4-4.7-4.1 -2 0.2-4 0.2-6-0.2 -5.2-1.1-6.3-3.7-4.3-8.8 1.1-2.7 2.7-3.9 5.3-2.1 2.1 1.5 4.1 1.6 4.6-1.1 3.1-14.6 3.9-29.4 2.2-44.2 -0.4 0-0.8 0-1.2 0 0 4.7 0 9.5 0 14.2 -1.4-15.4-3.1-30.8-2.9-46.3 0.1-5.5-1-6.2-6.5-4.9 -4.8 1.1-6.5 2.8-5.9 8.4 3.8 31.5 2.6 63.2 1.9 94.8 -0.4 18.2-0.5 36.3-0.5 54.4 0 3.1 0.5 6.3 0.7 9.4 0.1 1.4 0.7 3.3-1.2 3.9 -2 0.7-5.6 1.2-6.1-0.3 -1.1-3.4-4.3-2-5.9-3.6 4.6-2.3 5.7-5.9 5.2-10.9 -1.7-19.5-3.4-39-4.2-58.6 -0.4-8.5 1.3-17.1 0.7-25.7 -0.4-5.9-0.9-11.7 0.1-17.8 0.9-5.2-2.9-8.8-8.1-10.1 0.4-1.7 1.6-2.1 2.7-2.3 3.8-0.9 5.2-2.6 3.8-6.8 -1.2-3.7 0.8-7.4 1.4-11.1 2.4-15 4.3-30 3.8-45.1 -0.2-6.2 1.4-11.4 5-16.2 3 2 1.7 5.2 1.7 7.8 0.2 8.5 0.1 16.9 0.1 25.4 0 1.6 0.5 4.3 2.4 3.2 2.5-1.5 5.9-2.8 6.5-6.3 0.6-3.9 1.5-8 0.9-11.9 -1.7-11.7-1.6-23.5-1.8-35.3 1.3-2.9 2.7-5.8 5-8.1 2.5 26.8 2.2 53.7 2.2 80.5 0 1.9-1.1 4.8 2.9 3.8 0 20.8 0.2 41.6 2 62.3 0.6 6.6 1.2 13.2 1.8 19.9 0.1 1.4-0.1 3.4 2 3.3 2-0.1 2.4-2.1 2.6-3.8 0.9-7.4 1.6-14.9 2.6-22.3 2.3-17.6 4.3-35.3 7.6-52.7 2.1 0.3 3.3 2 4.7 3.3C891 557.2 895.8 561.1 901.9 563.1z"/><path class="st2" d="M732.9 597.1c-4.6-0.4-9.6-0.5-14.5-1.2 -7.1-1-9.5-4.8-9.1-13.3 0.4-8 0.2-16.1 1.4-23.9 1-6.5-2.3-11.9-2.3-18.1 0-12.1-0.4-24.3-1.4-36.4 -0.8-10.1-2.9-20-6.2-29.6 -3.1-9-0.9-13.6 7.8-17.6 2.3-1.1 4.2-3 6.3-4.6 1.9-1.4 3.8-2.7 6.1-3.3 4.9-1.2 6.8 0 7.4 5 1.6 14.6 3.1 29.2 3.6 44 0.6 15.5 0.5 30.9 0.7 46.4 0.1 8.8-1.6 17.6-0.7 26.4C732.9 579.5 735.2 588 732.9 597.1z"/><path class="st2" d="M682.9 602c-0.1-9-0.2-17.9-0.4-26.9 0.5-19.3 0.5-38.6-0.9-57.9 -1-14.1-1.5-28.2-5.3-41.9 -1.9-6.7-0.5-12.2 2.9-20.1 -5.2 0.6-5.4-2.7-5.5-6.4 -0.2-8.3-1.6-16.7-0.8-24.9 0.9-10.3-0.2-20.8 3.1-31.8 2.9 8 4.1 15.4 5.4 22.8 1.6 8.5 4.9 16.6 4.7 25.4 -0.1 2.7 0.6 5.9-0.7 7.8 -3.4 4.9-1.3 8.8 1 13 4.5 8.2 2.2 17.3 3.4 26 3.4 23.5 3 47.1 4.1 70.7 0.3 6.2 2.7 12.5-1.2 18.5 -0.7 1.1-0.3 2.9 1.3 3.8 3.6 2 4.1 5.5 3.7 9.1 -3.6 27-0.2 53.8 1.7 80.7 0.5 6.6 1.3 13.3 2.2 19.9 0.3 2.4-0.2 3.5-2.7 3.3 -0.2 0-0.3 0-0.5 0 -4-0.6-9.2 2-11.7-1.4 -2-2.9-1.3-7.7-1.8-11.6 -0.3-11.3-0.6-22.6-0.9-33.9C683.7 631.4 683.3 616.7 682.9 602z"/><path class="st1" d="M752.9 385.9c15.1-16.2 32.5-29.7 51.6-41.2 4.9 13.6 8.5 27.3 14.7 39.9 6.7 13.6 4.1 27.5 4.7 41.4 -2.1-1-4.6-1.5-6.1-3.1 -3.1-3.4-5.4-7.1-2.2-12.1 2.1-3.3 0.6-5.1-3.2-4.7 -0.3 0-0.7 0.1-0.9 0 -4.1-2.1-4.1-2.1-5.1 3.7 -3.8-1.7-6.3-4.8-9.3-7.2 -5.7-4.6-11.6-9.1-16.6-14.4 -3.6-3.8-7.3-3.3-11.2-2 -3.9 1.2-2.8 4.4-1.3 6.5 5.1 7.2 4 15.2 3.7 23.1 -0.2 4.4-3.7 6.8-6.6 7.9 -3.1 1.1-6.1-1.8-7.9-4.9 -0.4-0.7-0.8-1.6-0.7-2.3C758.5 405.9 754.6 396 752.9 385.9z"/><path class="st2" d="M737.4 693c-4.5 0-9-0.2-13.5 0.1 -4.4 0.2-5-2.6-3.8-5.3 1.3-3 0.7-5.4-0.1-8.1 -7.3-24.4-10.8-49.3-11-74.7 0-4.8 1.8-5.9 6.1-3.7 3.7 1.9 5.7 5.5 8.2 8.6 4.5 5.5 5.9 5.4 9.3-0.8 1-1.9 1.7-4 2.6-5.9 0.6-1.3 0.8-3.2 2.8-2.8 1.9 0.4 2 2.1 1.9 3.6 -0.6 8.4 1 16.7 3.2 24.6 3.6 13.1 1.8 26.8 4.8 39.9 1.3 5.6 3.6 11.1 3.2 17.1 -0.1 1.4 0.5 2.8 1.9 3.2 1.6 0.5 2.1 1.5 1.7 3 -0.5 1.8-2.1 1.4-3.3 1.4C746.7 693 742.1 693 737.4 693z"/><path class="st2" d="M759 544.9c-2.5-3.5-6.8-6.4-4.1-11.8 0.8-1.5 1.4-2.4 3.2-2.3 6 4.7 12 9.4 18 14.2 13.3 11.8 22 27.6 34.6 39.8 4.7 4.6 5.1 8.9 5.9 14.7 2.3 16.7-0.6 34 5.1 50.3 0.7 2 0.6 4.5-1.7 5.1 -2.7 0.7-2.5-2.2-2.8-3.7 -2-9.1-4.3-18.1-5.3-27.3 -0.8-7.1-2.9-13.9-7.2-19.8 -9.6-13.2-19.2-26.4-29.6-38.9C769.7 558.3 764.3 551.6 759 544.9z"/><path class="st1" d="M759 544.9c5.4 6.7 10.7 13.4 16.1 20.1 0.7 8.6-0.9 17.1-0.6 25.8 0.3 7.4 2.8 13.8 4.7 20.6 1 3.5-0.4 5.3-3.3 6.6 -4.4 2-8.3 5.8-13.8 2.4 -1.7-1.1-2.9-1.9-2.9-4 0-23.1-1.7-46.1-1.1-69.2C758.1 546.4 758.6 545.6 759 544.9z"/><path class="st1" d="M759.9 643.1c0.2-4.5-0.4-9 1.1-13.4 0.5-1.6 1.2-3 3.1-2.4 3.8 1.2 7.6 0.7 11.4 0.7 3 0.1 4.4 1.2 3.8 4.3 -3.4 18.8-4.1 37.7-3.3 56.7 0.1 3.1-1 4-4 4.1 -9.7 0.3-9.3 0.4-10.2-9.6C760.6 670 761.6 656.5 759.9 643.1z"/><path class="st1" d="M773.9 473.7c1.2 14.5 2.3 29 3.8 43.5 0.5 4.5-0.7 5.1-4.8 4 -11.8-3-18.2-15-15.5-26.4 0.6-2.4 3.6-4 2.3-7.1C764.5 483.1 769.2 478.4 773.9 473.7z"/><path class="st1" d="M759 480.2c-1.9-12.7-0.1-25.6-1.7-38.4 -0.3-2.2 0.5-3.3 2.8-2 3.5 2 7 3.9 10.4 6 2.2 1.4 2.3 4 2.4 6.2 0.3 4.4 0.3 8.9 0.4 13.4C769.1 470.9 764.2 475.7 759 480.2z"/><path class="st1" d="M684.1 646c0.3 11.3 0.6 22.6 0.9 33.9 -5.8-13.5-12-26.9-19.7-39.5 -2.1-3.5-1.6-6.2 2.5-7.8 1.5-0.6 2.7-0.6 3.3 0.9C673.6 639.5 679.6 642 684.1 646z"/><path class="st1" d="M752.3 486.3c-2.6-0.5-3.5-2.9-4.1-4.7 -3.4-9.9-8.5-19.7-1.9-30.3 0.7-1.1 1.1-2.5 2.9-2.2 1.8 0.3 1.7 1.8 1.9 3.1 1.3 8.7 2.5 17.4 3.8 26.1 0.2 1.5-0.4 3.6 2.2 3.7C755.5 483.4 753.9 484.9 752.3 486.3z"/><path class="st1" d="M776 544.9c-6-4.7-12-9.4-18-14.2 0.4-3.7-2.2-7.5 0.7-11.7 3.5 4.8 8.5 6.8 13.8 8.4 1.3 0.4 2.6 1.1 2.4 2.7C774.4 535.2 776.7 539.9 776 544.9z"/><path class="st2" d="M752.3 486.3c1.6-1.5 3.2-2.9 4.8-4.4 1-0.2 1.5-0.9 1.9-1.8 5.2-4.5 10.1-9.3 14.4-14.8 1.3-0.8 1.5-0.3 1.6 1 0 2.5-0.2 4.9-1 7.3 -4.7 4.7-9.4 9.4-14.1 14 -2 1.6-4 3.2-6.4 5.1C752.9 490.4 752.6 488.4 752.3 486.3z"/><path class="st1" d="M861.6 681.5c-0.5-2.5-0.7-5-3.4-6.3 -1.3-0.7-1.2-2.3-1.2-3.6 0-8.1 0-16.3 0-24.4 0-1.5-0.2-3.3 1.6-3.8 2-0.6 2.2 1.5 3.1 2.6 1.3 1.6 1.4 3.4 1.1 5.2C861.5 661.3 862.2 671.4 861.6 681.5z"/><path class="st1" d="M729.9 422.6c0.7-7.2 5.2-12.5 9-18.2 0.2 3.6-0.4 7.3 1.2 10.8 0.5 1.2 0 2-0.6 3.1 -1.9 3.2-3.5 6.7-5.2 10.2 -2-1.6-1-3.8-1.5-5.6C732.1 420.3 731.2 420.4 729.9 422.6z"/><path class="st1" d="M727.1 435.9c-0.7-4.9 0.3-9.4 2.9-13.5 0 2.9-0.1 5.8-0.1 8.8C729.8 433.3 729.1 435 727.1 435.9z"/><path class="st1" d="M738.9 404.2c0.4-0.6 0.7-1.2 1.1-1.7C739.6 403.1 739.3 403.7 738.9 404.2z"/><path class="st1" d="M51.2 579.9c0-2.3 0-4.5 0-6.8 9.5 0.1 13.8-4.3 14.1-13.7 0.2-6.8-1.4-13.3-2.2-19.9 -1.3-10.7-0.8-21.7-2.5-32.3C58 492.1 58.9 477 58.7 462c-0.2-13.6-1.2-27.2-2.1-40.7 -0.3-5.1 0.7-10.6-1.2-15.3 -2.9-7.2-3.1-14.5-3.4-21.9 0 0 0 0 0 0 0.6-0.1 0.9-0.6 0.9-1.2 7.6-11.4 16.3-22.1 24.8-32.9 0.7-0.1 1-0.5 0.9-1.2 1.1 0 1.5-0.7 1.4-1.7 0 0 0 0 0 0 0.6-0.1 1-0.5 0.9-1.1 0 0 0 0 0 0 2.5-0.2 3.4-1.6 3-4 0 0 0 0 0 0 2.4 0.7 3-2.3 5.7-2.5 -0.6 9-1.1 17.9-1.9 26.7 -1.8 17.8-3.9 35.6-5.6 53.4 -1.2 12.5-2.6 25.1-4.4 37.5 -2.6 17.4-1.4 34.6-0.9 51.9 0.3 9.8 1.5 19.5 3.2 29.2 3.4-5.8 4.4-12.4 5.1-18.9 0.2-2-0.2-4.1 2-5.3 0.3 2.6 0.8 5.2 1 7.9 1.2 12.9 2.5 25.7 3.6 38.6 1.4 16.9 4.4 33.5 6.6 50.2 -0.7 6 0.2 11.9 1.6 17.7 1 3.9 1.5 8.2 5.4 10.7 0.2 0 0.3 0.1 0.3 0.3 -2.8 5.4-1.8 10 3 13.8 -0.2 1.6-0.3 3.2-0.5 4.9 -3.6-0.9-5.8-3.4-7.6-6.5 -5-8.9-11.6-16.9-15.3-26.8 -3.6-9.6-5.4-19.5-8.1-29.2 -0.5-1.9 0.2-5.2-2.7-5 -2.5 0.2-3 3.4-3.2 5.6 -0.6 6.3 0.5 12.6 1.3 18.9 3.2 25.3 11.6 49.2 21 72.7 2.1 5.3 2.1 5.3-3.8 5.3 -4.5 0-9-0.1-13.5 0 -2.7 0-3.6-1.1-4.2-3.7 -2.4-11.8-2.5-23.8-2.7-35.7 -0.4-24.1-3.2-48.1-4.3-72.2 -0.3-5.8-4.6-3.1-7-2.6C55.7 579.2 53.5 580.2 51.2 579.9z"/><path class="st2" d="M250 502.1c1.8 3.5 3.5 7 5.3 10.5 0.3-0.1 0.7-0.1 1-0.2 -0.9-5.6-1.8-11.3-2.7-16.9 -1.8-11.5-2.9-23-2.6-34.6 0.1-2.2 0.1-4.3 2-5.8 2.9 0.7 2.6 2.9 2.6 5.2 -0.1 7.7-0.1 15.3 1 22.9 2.8 18.7 6.1 37.3 6.2 56.3 0 1.9 0.5 4.1-2.1 5 -1.1 0.4-1.5 1.2-1.6 2.2 -0.9 6.1-2.1 12.1-2.1 18.3 0 3.5 2.7 6.8 4.5 7.5 4.9 2.1 10.7 2.5 16.1 1.5 2.2-0.4 3.5-2 1.2-4.2 -2.5-2.4-3.4-5.7-3.9-9 -2.1-14.4-3.4-29-6.2-43.3 -2.1-11-4.2-22.1-1.8-33.1 2.4-10.9 5.6-21.7 8.6-32.5 0.4-1.6 1.2-3.8 2.3-4.2 3.2-1.3 3.7-3.7 4.1-6.5 2-1.3 3.3-1.1 4.1 1.4 1.1 3.5 1.2 7.1 1.1 10.7 -0.7 29.8 0.7 59.6 0.6 89.4 0 10.8-0.2 21.6 0.1 32.4 0.1 3 0.5 5.5 2.2 7.9 -0.6 2.6-2.2 3.7-4.9 3.7 -3.1 0-6.2-0.5-9.3 0.4 -3.6-0.2-7.3-0.3-10.9-0.6 -6-0.5-9.7-3.6-11.2-9.6 -0.7-2.8-0.8-5.6-1-8.4 -0.5-9.4 1.2-18.6 3.3-27.7 2.1-9.3-2.9-14.6-9.1-19.7 -3.2-4.7-8.3-7.6-12.2-11.7 -4.9-5-8.9-10.9-13.7-15.8 -12-12.3-9.9-27.5-9.6-42.3 0.2-6.8 0.1-13.6-0.1-20.6 -4.7 11.9-15.2 19.7-20.6 31.2 -3.2 6.9-6.8 13.4-8.6 20.9 -0.7 2.9 0.3 6.1-1.6 8.7 -0.7 0.9-1.2 2.1-2.7 1.7 -1.3-0.4-1.9-1.4-1.8-2.7 1-16.9-1.4-34.4 9.7-49.4 2.5-3.3 4.6-7.1 8-9.5 7.8-5.5 11.6-13.9 17-21.2 1.4-1.9 1.4-4.1 1.3-6.2 -1.1-13.6-0.1-27.2 0.6-40.9 0.8-15.5-0.8-30.9-2.3-46.3 -0.3-2.9-1.4-6.3 3.4-6.6 2.2 10 2.3 20.1 2.9 30.2 0.7 11.5 0.1 22.9-0.4 34.4 -0.4 11.7 0.8 23.5 0.5 35.3 -0.4 18.3-0.3 36.6-1.1 54.9 -0.5 11.1 2.8 13.6 13 17 0 0 0-0.2 0-0.2 -0.1 0.8 0.5 0.9 1.1 1C238 488 244.2 494.9 250 502.1zM283.1 488.4c-1.7 20.3-3.3 40.5-1.4 60.7 0.5 0 0.9 0 1.4 0C283.1 528.8 283.1 508.6 283.1 488.4z"/><path class="st1" d="M201 546c-0.3 24.4 4.9 48.1 7.3 72.2 1.4 14 2.6 28.1 0.6 42.2 -0.4 2.6-1.3 5.3 2.4 6.5 1.4 0.4 0.8 2 0.8 3.1 0.3 7.6 0.5 15.3 0.7 22.9 -11.3 0-22.5 0.1-33.8 0.1 -1.5 0-3 0.2-4.2-1.1 1.6-5.6 3.1-11.2 4.8-16.8 6.5-21.1 10.6-42.5 8.4-64.8 -0.8-8.4-3.9-16.8 0-25.3 3.6-9.3 5-19.2 8.3-28.6C197.4 552.9 196.9 548.3 201 546z"/><path class="st1" d="M247 521.1c6.3 5.1 11.2 10.4 9.1 19.7 -2.1 9.1-3.8 18.3-3.3 27.7 0.1 2.8 0.3 5.6 1 8.4 1.4 6 5.2 9.1 11.2 9.6 3.6 0.3 7.3 0.4 10.9 0.6 1 2.3 2.7 4.3 2.1 7 -4.4-1.2-9.2-1.2-13.2-4.1 -4.6-3.4-8.6-1.4-11.8 2.7 0.1-5-0.8-9.7-2-14.6 -1.5-5.9-1.1-12.4-1-18.6 0.1-8.1 0.6-16.3 1-24.4 0.1-2 0-4 0-7.5 -5.3 6.1-11 9-17.8 9.7 -1.4 0.1-1.2 1.8-1.4 2.9 -1.3 6.6-0.6 13.3-0.7 19.9 -0.2 8-0.5 15.9-1.8 23.8 -1.5 8.7 0.7 17.5 1.1 26.3 0.4 10.4 3.1 21.1 1.8 31.3 -2.1 15.9 1.1 31.5 0 47.2 -0.3 4.1-1.9 4.7-5.2 4.5 -2.9-0.2-5.9 0.7-6-4.2 -0.5-16.9-0.4-34-2.3-50.8 -1.5-13.2-0.4-26.5-2.2-39.6 1.2-22.2 0.4-44.4-2.3-66.5 -0.3-2.3-0.8-4.6-0.1-6.9 4.7-2.3 9.6 1.1 14.4-0.5 0.6-0.2 1.8 0.8 2.4 1.5 4 4.7 6.4 5.1 11.6 1.5C244.8 526.1 247.2 524.4 247 521.1z"/><path class="st2" d="M105.5 639.4c0-0.2 0-0.3-0.3-0.3 -2.3-9.5-4.7-18.9-7-28.4 -2.1-16.8-5.1-33.4-6.6-50.2 -1.1-12.9-2.4-25.7-3.6-38.6 -0.3-2.6-0.7-5.2-1-7.9 -0.8-12.1-1.4-24.2-2.5-36.3 -0.4-4.5-0.1-8.9 0.3-13.4 0.3-3.1 2.2-3.5 4.5-3.1 1.8 0.3 3.6 0.7 5.2 1.5 8.4 3.8 16.2 1.5 24-1.9 5.7-2.5 5.7-2.5 6.4 3.9 1.2 11.4-0.5 22.9 0.2 34.4 1.6 28.9 2.7 57.8 5.7 86.6 1 9.7 2.8 19.3 5.6 28.8 2.1 7 2.7 14.1 0.5 21.2 -2.8 9-11.1 14.6-19.3 13 -2.2-0.4-4.5-0.8-4.1-3.8 0.4-3.1 2.4-2.8 4.8-2.5 8.7 1.3 15.4-5.3 15.4-15.2 0-8.8-3-17-5.3-25.3 -2.3-8.5-2.4-17.1-3.1-25.7 -2.5-28.5-4.1-57.1-4.8-85.7 -0.1-4.8-2.1-9.4-1.2-14.3 0.4-1.9-1.1-2.1-2.6-1.9 -8.6 1.4-16.9 0.3-25.2-1.9 -3.8-1-2.7 1.7-2.6 3.4 1.1 15.3 2.3 30.5 3.5 45.8 0.1 1.7 0.3 3.3 0.5 5 0.4 3.1-0.4 6.3 3.1 8.7 1.4 1 1.4 4.3 1.8 6.5 1 5.5 1.9 11.1 2.9 16.6 -0.1 0.2-0.1 0.5 0.1 0.7 0.4 12.7 1.8 25.5 0.9 38.3 -0.2 2.3 0 5 2.4 6.7 1.2 0.8 1.8 2.7 1.1 3.5 -3.5 4.7-0.6 9.2 0.4 13.6 1.3 5.8 3.2 11.5 4.8 17.2 0.4 1.3 0.7 2.6 0.7 3.9 0 1.2-0.5 2.4-1.8 2.7 -1.5 0.4-2-0.8-2.4-1.9C106.5 641.8 106 640.6 105.5 639.4z"/><path class="st2" d="M187.9 585.1c-3.9 8.4-0.8 16.9 0 25.3 2.2 22.3-1.9 43.7-8.4 64.8 -1.7 5.5-3.2 11.2-4.8 16.8 -1.6 0.1-3 2.3-4.5 0.8 -1.2-1.2 0-2.8 0.4-4.2 4-15.1 8.9-30 11.7-45.4 2.7-15.1 1.5-30.1-0.6-45.1 -0.6-0.1-1-0.2-1.2-0.1 -17.6 19.5-30.9 41-30 68.5 0.3 8.2-2.1 16.3-1 24.6 0.2 1.3-0.5 1.8-1.7 1.9 -1.8 0.2-2.8-0.4-3.1-2.4 -1.2-7.6-2.5-15.1-3.8-22.7 -0.7-4.4-1.5-8.8-2.4-14.1 -5 6.6-10.6 10.7-18.5 11.2 -2.3 0.1-0.8 2.3-0.4 3.6 2.2 6.6 4.4 13.2 6.6 19.8 0.6 1.8 1.4 3.8-1.1 4.6 -2.4 0.8-3.5-0.5-4.3-2.8 -2.6-7.8-4.1-16-10.3-22.2 -2.6-2.6-1.4-6.7-2.8-10 0.2-1.6 0.3-3.2 0.5-4.9 1.1-2.2 3-2.3 5.1-2.2 5.2 0.3 10.2-0.7 15.3-2 1.6-0.4 3.2-1.7 5.1-0.1 1.5 1.3 1.5-0.9 2-1.5 1.1-1.4 1.6-3.6 3.9-3.3 2.5 0.4 2.7 2.8 3.1 4.6 0.9 5.2 1.6 10.4 3 15.6 0.9-6.5 1.5-13.1 2.6-19.6 2.2-12.7 7.7-23.9 15.4-34.2 5.8-7.8 12.4-15.1 17.4-23.6C182.2 585.3 184.4 581.2 187.9 585.1z"/><path class="st1" d="M108.8 351.3c0.3 18 0.3 36-0.9 53.9 -0.1 1-0.1 2-0.3 3 -0.3 1.3-0.7 2.8-2.5 2.6 -1.7-0.1-2.1-1.5-2.1-2.9 0.2-4.8 0.7-9.6 0.9-14.4 0.9-26.8 1.6-53.6 0.1-80.4 -0.1-1.8 0-3.7 0-5.5 0-1.3 0.4-2.4 1.9-2.4 1.5-0.1 2 1 2.2 2.2 0.3 2 0.7 3.9 0.7 5.9C108.9 326 108.8 338.6 108.8 351.3z"/><path class="st1" d="M100.9 559c-0.1-0.2-0.2-0.4-0.1-0.7 0.6-1.6 0-4.2 2.7-4 2 0.1 2.1 2.2 2.5 3.8 5.6 20.5 11.3 41 16.8 61.6 1.1 4.2 5.6 7.2 4.2 12.3 -0.5 1.9 0.3 4.5-2.5 4.7 -2.5 0.2-2.3-2.3-2.8-4 -6.7-22.5-13-45.1-18.8-67.8C102.4 563 102.5 560.7 100.9 559z"/><path class="st1" d="M104 534.2c-0.6 2.5 1.3 6.3-2.2 6.5 -3.9 0.2-2.6-3.9-2.7-6.2 -0.7-17.4-0.6-34.9-3-52.2 -0.2-1.1-0.2-2.3-0.2-3.5 0-1.5 0.1-3.3 2.1-3.3 1.7 0 1.8 1.6 2.1 2.9 1.8 10 2.4 20.1 2.8 30.2C103.2 517.2 102.7 525.8 104 534.2z"/><path class="st2" d="M583.1 519.8c4 2 3.6 5.6 3.3 9.1 -0.4 6-0.8 12-1.6 17.9 -2.3 16.8 0.7 33.2 2.5 49.7 1 9.1 5.9 17.3 7 27.1 2.2-1.7 1.6-3.3 1.8-4.7 1.6-14-0.8-27.8-2.4-41.7 -1.6-14.1-1.8-28.2-0.1-42.3 0.9-7.8-0.7-15.6-2.1-23.3 -1.4-7.5-5-14.5-5.5-22.1 -0.4-6.1 1.2-7.1 7-5 2.8 1.1 5.2 2.9 7.6 4.7 4.9 3.6 9.1 3.5 14.1-0.2 1.6-1.2 3.2-2.8 5.4-1.8 2.3 1 2.4 3.4 2.5 5.6 2.1 41.7 3.6 83.4 3.5 125.1 0 4.3-0.4 8.6-0.8 12.9 -1 12.3 2.2 24 4.1 36 1.2 7.8-0.4 16.2-7.4 21.9 -5 3.3-10.6 4.6-16.6 4.2 -3.3-0.2-6.7 0-10 0 -11.1 0-16.9-6.8-15.5-18 3.4-28 4.5-56.1 0.7-84 -1.4-10.2-1.7-20.6-4.3-30.6 -0.5-2-1-4.2 1.1-6 0.8-0.6 0.1-15.5-0.5-16.1 -1.1-1.1-2.1-0.1-3.2 0 -5.9 0.8-10-2.1-10.2-7.9 -0.1-3.6 0.3-7.2 5.7-7.6C573.8 522.5 578.2 520.1 583.1 519.8zM604.7 628.5c-0.4 13.5-4.6 25.8-9.9 37.8 -0.8 1.8-1.2 3.8-1.6 5.7 -1 5 0.5 7.6 5.4 8.9 2.6 0.7 5.2 0.8 7.9 0.6 2.4-0.2 3.5-1.2 3.4-3.8 -0.2-7.3 0.7-14.5-0.8-21.8C607.3 646.8 606.2 637.6 604.7 628.5z"/><path class="st1" d="M285.8 693c-0.8-7 2.3-12.3 6.4-17.7 5.5-7.3 11.3-14.7 14.9-22.9 4.7-10.5 8.7-21.6 9.7-33.3 0.7-8.8 1-17.6 1.5-26.4 0.1-1-0.1-2-0.1-3 -0.1-1.9-1-3.1-2.9-3.6 -2.3-0.6-2.8 1.1-3.5 2.6 -6.8 14.9-16.3 28.1-25.2 41.9 -1.9-4.9-6.7-8.6-4.5-14.5 3.8-4.6 7.2-9.5 11.4-13.7 4.6-4.6 8.5-9.6 11.6-15.3 3.1-5.8 5.1-12.3 10-17 14.1 27.3 31.5 51.9 56 71 1.6 15.5-0.8 31.2 1.9 46.7 0.7 4.2-1 5.5-5.2 5.4 -12.3-0.2-24.7-0.2-37 0 -3.7 0.1-5-1-4.8-4.8 0.3-8.7-2.8-16.6-5.8-24.6 -0.5-1.3-1.2-3.1-2.9-2.9 -1.5 0.1-1.6 2-2 3.2 -3.2 8.6-7 16.9-10.8 25.2 -1.3 2.8-2.9 4.1-6.1 3.9C294.2 692.8 290 693 285.8 693z"/><path class="st2" d="M371 641c-24.5-19.1-42-43.7-56-71 -1.8-4-3.6-8-5.4-12.1 -2-7.8-4.1-15.7-6.1-23.5 -0.7-2.6-0.8-4.5 2.6-5.7 3.7-1.3 3.5 1.4 4.1 3.1 6.9 20.5 18.4 38.5 30.8 56 0.7 1.1 1.7 2.1 2.8 2.8 9.3 6.3 17.6 13.6 25.5 21.5 4.3 5 8.6 9.9 12.9 14.9 0.9 1.5 1.1 3.4 2.9 4.2 1.3 3.9 3.1 7.6 6.5 10.1 1.5 1.1 1.8 3.1 2.2 4.9 0.4 1.6 0 3.1-1.6 3.8 -1.6 0.7-2.5-0.5-3.1-1.7 -1.3-2.6-2.8-3.1-5.5-1.6 -2.7 1.4-5-0.4-7.2-1.9C374.5 643.4 372.8 642.2 371 641z"/><path class="st1" d="M406.3 630.9c0-1.6 0-3.3 0-4.9 3.1-0.9 6.6 2.3 8.4 1.2 2.9-1.7-1-5.5 0.3-8.5 2 0.4 3.6 1.6 5 3 -0.2 1.6 0.1 3 0.9 4.3 12.1 20.1 19.9 42.4 31.8 62.6 2 3.3 0.8 4.3-2.7 4.3 -10.7 0.3-10.7 0.4-14.8-9.3 -4.9-11.5-9-23.3-12.4-35.3C420.3 639.5 415.3 633.6 406.3 630.9z"/><path class="st2" d="M512.6 577.9c0.1-3.3 0.3-6.6 0.4-9.9 2.3-1.4 3.8-1 4.1 1.9 0.1 1 0 2 0 3 0 34.1 0.3 68.1 3.5 102.1 0.2 2.2 0 4.7-2.3 4.7 -2.7 0.1-2.1-2.8-2.3-4.6 -2-22-2.7-44.1-3.3-66.2 0-3.6 0-7.3 0-10.9C512.7 591.3 512.7 584.6 512.6 577.9z"/><path class="st1" d="M405.1 508.9c0-2.5 0.4-5 0-7.5 -1.3-8.2 2.7-12.6 9.9-15.3 7.1-2.7 14.1-5.5 21.8-7.5 -4.6 4.9-9.1 9.8-13.7 14.6 -5.1 5.4-10.1 11.1-15.9 15.8C406.5 509 405.8 509 405.1 508.9z"/><path class="st1" d="M380.9 380.9c1.7-3.3 1.7-3.3 3.3-3.3 1.7 5.5 0.9 11.2 0.8 16.8 -0.2 17.5-0.7 34.9-1 52.3 0 0.8 0 1.7-0.1 2.5 -0.1 1.5-0.8 2.7-2.4 2.6 -1.6 0-2.3-1.3-2.3-2.8 -0.1-4-0.3-8 0.1-12 1.3-14.4 0.4-28.9 0.9-43.4C380.3 389.5 380.6 385.2 380.9 380.9z"/><path class="st1" d="M383.7 495.7c-1.3 12.9-0.7 25.9-0.8 38.9 0 2.9 1.1 5.6 1.1 8.4 0 1.9-0.5 4.4-3.1 4.3 -2.3-0.1-1.8-2.4-1.9-4 -1.6-16-1.1-31.9 0.1-47.8 0.1-1.8 0.2-3.9 2.7-4.1C383.2 491.2 384 492.9 383.7 495.7z"/><path class="st2" d="M576.8 373.3c-1.4 17.6-1.7 35.2-1.7 52.8 0 2.2 0.8 4.8-2 6.1 -2.5-0.8-2.3-2.9-2.3-4.9 0-17.3 0.1-34.5 1.2-51.8 0.1-1.7-0.1-3.5 1.9-4.2C575.6 370.6 575.9 372.5 576.8 373.3z"/><path class="st1" d="M384.9 631.1c-1.8-0.8-2.1-2.7-2.9-4.2 -0.3-12.9-0.7-25.8-1-38.7 0-1.5 0.1-3 0.4-4.4 0.2-0.8 0.9-1.4 1.8-1.4 0.9 0.1 1.5 0.7 1.6 1.6 0.2 1.1 0.3 2.3 0.4 3.5 0.5 13.1 1.1 26.1 1.5 39.2C386.8 628.4 386.4 630 384.9 631.1z"/><path class="st2" d="M482.8 683c5.1-1.5 10-3.3 14.7-5.8 1.9-1 3.9 2 4.8 4.2 1.4 3.5 2.6 7.1 3.9 10.6 -3.5 0.8-5.9 0.4-6.4-4.1 -0.4-3.6-2.4-5.1-5.6-1.9 -1.8 1.8-4 2.2-6.4 2C484.6 688 482.3 686.8 482.8 683z"/><path class="st2" d="M385.9 693.1c-1.8-0.5-4.6 0.9-4.8-2.2 -0.1-2.6 1.8-3.3 4-3 2.4 0.2 5.7 0.2 5.6 3.3C390.8 694.6 387.4 692.2 385.9 693.1z"/><path class="st0" d="M303 444.3c6-26.2 5-53.1 11.9-78.9 1.8-6.8 4.2-13.3 7.2-19.7 3.1-6.7 8-11.3 14.3-14.8 5.1-2.8 6.4-2.2 6.7 3.6 0.5 9.4-0.8 18.6-2.4 27.8 -5.2 28.6-16.5 54.7-33.5 78.3C306.2 442 305.5 443.9 303 444.3z"/><path class="st0" d="M282.1 441.1c-0.4 2.7-0.9 5.2-4.1 6.5 -1.2 0.5-1.9 2.7-2.3 4.2 -3 10.8-6.2 21.6-8.6 32.5 -2.4 11.1-0.3 22.2 1.8 33.1 2.8 14.4 4.1 28.9 6.2 43.3 0.5 3.3 1.4 6.6 3.9 9 2.4 2.3 1 3.8-1.2 4.2 -5.5 1-11.2 0.6-16.1-1.5 -1.8-0.8-4.5-4.1-4.5-7.5 0-6.2 1.2-12.2 2.1-18.3 0.2-1.1 0.5-1.9 1.6-2.2 2.6-0.9 2.1-3.1 2.1-5 -0.2-19-3.5-37.6-6.2-56.3 -1.1-7.6-1.1-15.2-1-22.9 0-2.2 0.3-4.4-2.6-5.2 -0.8-8.1-1.1-16.1 0.9-24.1 1.2-4.6 1.9-5 5.9-2.1 6.2 4.4 11.5 10.2 19.4 11.7C280.1 440.7 281.1 440.9 282.1 441.1z"/><path class="st0" d="M250 502.1c-5.8-7.3-12-14.1-20-19.1 -0.4-0.3-0.8-0.7-1.1-1 0 0 0 0.2 0 0.2 0.4-9 0.2-17.9-0.5-26.9 -0.8-9.9-0.6-19.9 0-29.9 0.1-2 0.4-4 0.5-5.9 0.1-3-0.6-6.3 0.5-8.9 1.2-2.9 5.4-1.2 7.9-2.8 1.5-1 3.3-1.6 4.8-2.6 3.4-2.3 4.2-0.5 4 2.5 -0.2 2.5-0.9 4.9-1 7.4 -1 15.9-0.5 31.8 0.8 47.6C247 475.9 251.7 488.7 250 502.1zM244.1 466.6c-0.4-5.3-0.7-10.6-1.1-15.9 -0.1-1.6 0.4-3.8-2-3.9 -2.2-0.1-3 1.7-3.2 3.7 -0.8 9.8-0.3 19.6 0.8 29.4 0.2 1.3-0.2 3.4 2 3.4 2.2-0.1 2.4-1.9 2.5-3.7C243.5 475.3 243.8 471 244.1 466.6z"/><path class="st0" d="M350.9 448.9c0.4 8.1 0 15.1 1 22 0.4 3-1.4 5-3.4 6.9 -7.2 7.2-13.5 15.1-19.3 23.5 -5 7.1-8.2 14.8-10 23.2 -0.2 1.1 0.5 3.1-1.8 2.8 -1.5-0.2-2-1.6-2.2-3 -0.4-3.8-0.2-7.6-0.8-11.4 -1.7-10.3-0.7-20 5.7-29C328.9 471.4 338.1 459.3 350.9 448.9z"/><path class="st0" d="M309.6 557.9c1.8 4 3.6 8 5.4 12.1 -4.9 4.7-6.9 11.2-10 17 -3.1 5.8-7 10.7-11.6 15.3 -4.2 4.2-7.6 9.1-11.4 13.7 -0.3-3.6-0.1-7.1 1.3-10.5 2.2-5.4 0.1-9.7-5.3-11.4 0.6-2.7-1.2-4.8-2.1-7 3.1-1 6.2-0.4 9.3-0.4 2.8 0 4.3-1 4.9-3.7 5.2-7.1 10.4-14.3 15.6-21.4C306.7 560.1 307.5 558.2 309.6 557.9z"/><path class="st0" d="M852.9 466.9c0.2 11.8 0.1 23.6 1.8 35.3 0.6 3.8-0.3 7.9-0.9 11.9 -0.5 3.5-4 4.9-6.5 6.3 -1.9 1.1-2.4-1.6-2.4-3.2 -0.1-8.5 0.1-16.9-0.1-25.4 -0.1-2.6 1.3-5.8-1.7-7.8C846 478.1 849.1 472.3 852.9 466.9z"/><path class="st0" d="M824.5 366.6c-3.1-8.5-6.1-17.1-9.2-25.6 -0.7-2-0.2-3.1 1.6-4.1 2.7-1.5 5.4-3.2 8.5-5.1 0 11.9 0 23.3 0 34.6C825 366.5 824.8 366.5 824.5 366.6z"/><path class="st0" d="M827 464c4.8 1 3.8 3.9 4 7.2 0.7 10-3.6 18.8-5.8 28.1 -0.1 0.6-0.5 1.1-1.4 1.6C825 488.5 823.4 476.1 827 464z"/><path class="st0" d="M833.7 420.9c-1.1-5.1-0.1-10.3-0.5-15.4 -0.5-6.2 0.2-12.4-3-18.3 -2.7-5-2-5.3 4.6-9.2 0.1 12.2 0.2 24.2 1.1 36.2 0.4 5.6 1.7 11.2 1.1 16.9C834.8 428 836.4 423.8 833.7 420.9z"/><path class="st1" d="M829.8 347.8c0.1-5.3 0.2-10.6 0.2-16 0-1.8 0.3-3.2 2-4.2 1.3-0.7 2.5-1.2 3.8-0.6 1.5 0.7 0.4 2.1 0.2 3.1 -2 9.8-2.3 19.8-2.1 29.8C831.8 356.2 831.5 351.8 829.8 347.8z"/><path class="st0" d="M847.8 436c-1.2 1.9-2.5 3.9-4.4 6.9 -1.2-11.4-2.3-21.5-3.5-32.6 2.6 1.8 4.2 3.2 5.3 5.3C842.8 422.8 845.2 429.5 847.8 436z"/><path class="st1" d="M833.7 420.9c2.7 2.9 1.1 7.1 3.2 10.2 1.4 7.4-0.1 14.2-3.2 20.3C833.7 441.3 833.7 431.1 833.7 420.9z"/><path class="st1" d="M847.8 436c-2.6-6.6-5-13.2-2.6-20.4 0.3 0.1 0.6 0.3 0.7 0.6 0.3 0.3 0.7 0.5 1 0.8 1.1 1 2.1 2.1 3.2 3.1 -2.5 3.8-2.4 7.6 0.3 11.3C849.5 432.9 848.7 434.5 847.8 436z"/><path class="st0" d="M829.8 347.8c1.7 4 2 8.4 4.1 12.2 0.1 0.3 0.5 0.6 0.4 0.9 -0.5 2.9 0.6 7.6-3.1 7.7 -3 0.1-1.5-4.6-1.7-7C829.3 357 829.7 352.4 829.8 347.8z"/><path class="st0" d="M850.4 431.4c-2.7-3.7-2.8-7.4-0.3-11.3C855.2 424.9 855.2 424.9 850.4 431.4z"/><path class="st0" d="M846.9 417c-0.3-0.3-0.7-0.5-1-0.8C846.2 416.5 846.5 416.8 846.9 417z"/><path class="st0" d="M851.6 413.3c0.7 0 1.1 0.3 1.2 1C852.4 413.9 852 413.6 851.6 413.3z"/><path class="st0" d="M495.1 664c-0.7 1.3-1.3 2.7-2.1 3.9 -1.3 1.9-3.1 3.1-5.4 3 -2.4 0-1.8-2.5-2.3-3.8 -4.3-10.9-7.6-22.3-13.7-32.5 -0.3-0.6-0.5-1.6-0.9-1.7 -7.6-2-8.4-9.5-12-14.8 -1.5-2.3-3.4-4.1-5.8-5.9 2.5-2.5 4.4-2.9 6.4 0.5 1.5 2.6 3.6 4.8 5.5 7.1 1 1.2 1.9 3.3 3.7 2.8 2.3-0.6 1.5-3 1.7-4.7 7.5 9.7 14.4 19.7 18.1 31.7C489.7 654.7 492.7 659.2 495.1 664z"/><path class="st2" d="M506.3 409.4c1-0.9 1.6-2.8 3.5-2.1 1.3 0.5 1.3 1.8 1.2 3 -1 11.5 1.4 22.8 2.7 34.1 0.3 2.3 0.2 4.6 0.3 7 0.1 1.6-0.3 3.2-2.2 3.2 -1.6 0-2-1.6-2.2-2.9 -0.4-3.8-0.5-7.6-0.9-11.4 -0.1-0.8-0.5-1.5-0.8-2.3C507.4 428.4 505.4 419 506.3 409.4z"/><path class="st0" d="M512.6 577.9c0.1 6.7 0.1 13.4 0.2 20.1C511.4 591.4 511.6 584.7 512.6 577.9z"/><path class="st0" d="M901.9 563.1c-6-2-10.9-5.9-15.5-10.1 -1.4-1.3-2.6-3-4.7-3.3 4.3-31.6 10.6-62.9 16.9-94.2 1.9-9.1 3.8-18.2 7.4-26.9 2.2-5.3 4.9-10.1 10.2-14.1 -0.9 9.3-1.6 18.2-2.7 27 -1.1 9-1.2 18.2-3.5 27.1 -0.6 2.3 0.6 3.7 2.8 4.5 6 2.3 14.7-1.8 17.4-7.7 3.4-7.6 3.6-15.9 5.8-23.6 4.1-14.3 3.2-29.2 5.2-43.7 0.1-0.8 0.4-1.6 0.6-2.4 2.8 11.3 4.1 22.8 6 34.3 3.9 22.9 7.5 45.9 11.3 68.8 0.3 1.7 1.8 4 0.1 5.1 -1.4 0.9-3.4-0.6-5-1.5 -0.7-0.4-1.6-0.2-2.4-0.3 -1.5-0.3-4.2-1.3-3.8 1.1 1.1 5.9-3.3 9.7-4.5 14.7 -5 21.5-16.8 40.2-25.3 60.4 -0.4-10.3 0.8-20.4 2.2-30.5 1.8-12.5 4.1-24.8 9.2-36.6 3.8-8.8 4.2-18.4 2.7-28 -0.5-3.3-1.7-4.8-5.2-4.2 -3.3 0.5-6.6-0.2-9.8-1.5 -4.9-2-8 0.1-8.5 5.5 -2 24.5-2.9 49.2-6 73.6C902.7 558.9 902.2 561 901.9 563.1z"/><path class="st0" d="M484.9 488.4c0.8 8.9-1.5 17.3-2.2 25.8 -1 11.7-4.4 22.8-9.7 33.3 -6.9 13.7-12.2 28.1-15.5 43 -0.7 3.3-1.6 3.5-4.4 1.9 -8.3-4.7-8.5-4.6-5-13.4 11.4-28.9 22.9-57.8 34.4-86.7C482.9 491.1 483 489.4 484.9 488.4z"/><path class="st0" d="M406.9 551.5c-0.3-7.1 0.1-14.1 1.2-21.1 2.9 13.4 7.8 25.7 16 36.7 1.2 1.6 2.2 5 5.1 1.6 0.4-0.5 0.8-0.4 1.2-0.1 2.5 1.4 3.3 9.9 1.1 11.7 -2.4 2-4.5 4.4-6.2 7 -2.1-0.7-3.3-2.5-4-4.2 -1.9-4.3-3.9-8.4-6.3-12.4C411.4 564.6 407.7 558.7 406.9 551.5z"/><path class="st1" d="M406.9 551.5c0.8 7.2 4.5 13.1 8.1 19.1 2.4 4 4.4 8.1 6.3 12.4 0.8 1.7 2 3.5 4 4.2 -0.7 3.7 1.1 6.4 3.5 8.9 1 1 1.9 2.4 1 3.5 -0.8 1-2.4 0.6-3.7 0.2 -11-3.4-21.6-18.9-20.6-30.5C406.1 563.3 405.2 557.3 406.9 551.5z"/><path class="st0" d="M446.7 623.2c-19.2-3.3-36.8-7.8-40.3-30.9 1.7-1.2 2.5 0.8 3.4 2 5.7 7.5 13 12.2 22.2 14.1 3 0.6 5.1 1.8 6.7 5.3C440.1 616.9 444.8 618.6 446.7 623.2z"/><path class="st1" d="M429.9 430.1c-7.5-7.7-14.9-15.4-22.5-23 -2.4-2.4-1.3-4.8-0.7-7.4 0.5-2.1 0.3-4.3 1.7-6.6 5.5 13.5 15.6 23.9 22.1 36.5C430.4 429.7 430.1 429.8 429.9 430.1z"/><path class="st1" d="M378 360.9c-1.9-13.3-1.2-26.5 0.8-39.7 0.2-1.5 0.1-3.9 2.5-3.5 2.1 0.3 1.9 2.5 1.7 4.1 -1.1 11.1-1.7 22.2-0.9 33.3C381.3 357.5 380 359.4 378 360.9z"/><path class="st0" d="M415 618.8c-1.3 2.9 2.7 6.8-0.3 8.5 -1.8 1-5.3-2.1-8.4-1.2 0-5.5 0-11.1 0-17.1 2.8 3.2 5.2 6 7.7 8.8 0.3 0.4 0.7 0.9 1 1.3L415 618.8z"/><path class="st1" d="M430.6 429.5c0.1 0.4 0.3 1.1 0.1 1.2 -0.6 0.3-0.7-0.2-0.8-0.6C430.1 429.8 430.4 429.7 430.6 429.5z"/><path class="st1" d="M415.1 619c-0.3-0.4-0.7-0.9-1-1.3C414.4 618.2 414.7 618.6 415.1 619z"/><path class="st2" d="M26.3 604.8c1.6-3.3 3.5-4 7-1.9 2.8 1.7 6 3.7 9.6 0.6 1.4-1.2 3.3-0.5 3.3 1.9 -0.1 11.6 1.4 23.4 0.4 34.9 -0.5 6.3-0.5 12.5-0.6 18.8 -1.4 10.1-3 20.3-3.9 30.4 -0.3 3.4-1.4 3.7-4.1 3.7 -2.6-0.1-4.7 0.2-4.8-3.7 -0.6-23.2-2.9-46.3-6.2-69.3C26.2 615.1 26.7 609.8 26.3 604.8z"/><path class="st1" d="M137.8 692c0 0-0.4 0.8-1.7 0.9 -1.2 0.1-2.5 0.2-3-1.2 -1.2-3.2-2.3-6.5-2.1-10.1 0-1.1 0.6-2 1.6-2.3 1.4-0.4 2.1 0.7 2.5 1.8C136 684.4 136.7 687.6 137.8 692z"/><path class="st0" d="M52 384c0.3 7.4 0.5 14.8 3.4 21.9 1.9 4.7 0.8 10.2 1.2 15.3 0.9 13.5 1.9 27.1 2.1 40.7 0.2 15-0.8 30.2 1.8 45.2 1.8 10.6 1.3 21.5 2.5 32.3 0.8 6.6 2.4 13.1 2.2 19.9 -0.3 9.4-4.5 13.8-14.1 13.7 -4.9-46-2.2-92.1-1.9-138.2 0.1-13.6 0.2-27.3 1.7-40.9 0.2-1.7 0.1-3.3-0.6-4.9C49.6 387 49.9 385.2 52 384z"/><path class="st0" d="M43.6 536.9c-2.3-6.2-2.4-12.7-2.6-19.1 -0.9-21.6-2.6-43.1-4.6-64.6 -1.6-16.9 3-33.3 7.2-49.6 0.4-1.7 0.4-3.6 2.6-5.6C44.1 444.7 43.6 490.8 43.6 536.9z"/><path class="st0" d="M29 589.1c-7.6-3.6-6.3-11-7.4-17.5 -2.2-13.2-4.5-26.3-6.7-39.5 6.2 6.6 9.4 14.9 12 23.3 1.8 6 2.7 12.2 4.2 18.3C32.4 579.2 31.6 584.3 29 589.1z"/><path class="st0" d="M83.9 341.9c0.4 2.4-0.5 3.8-3 4C81.3 344.1 82.3 342.8 83.9 341.9z"/><path class="st0" d="M80 347c0.1 1-0.2 1.7-1.4 1.7C78.8 347.9 79.1 347.2 80 347z"/><path class="st0" d="M78.7 348.7c0.1 0.7-0.2 1.1-0.9 1.2C78 349.5 78.4 349.1 78.7 348.7z"/><path class="st0" d="M33.7 339.7c0.3-0.4 0.6-0.6 1-0.1 0 0-0.3 0.3-0.5 0.5C34 340 33.8 339.8 33.7 339.7z"/><path class="st0" d="M80.9 345.9c0.1 0.7-0.3 1-0.9 1.1C80 346.4 80.2 345.9 80.9 345.9z"/><path class="st0" d="M52.9 382.8c0 0.6-0.3 1-0.9 1.2C52 383.4 52.3 383 52.9 382.8z"/><path class="st0" d="M532.9 516.8c3.8-1.9 6.6-3.4 9.4-4.8 0.2 0.4 0.4 0.9 0.7 1.3C540.6 515.6 537.8 517.4 532.9 516.8z"/><path class="st1" d="M514.9 365.9c0.2 2.1 0.6 4.3 0.5 6.4 0 1.5-0.7 3.2-2.5 3.1 -1.8 0-1.8-1.6-1.9-3 -1-15.4-2.1-30.7-3.1-46.1 0-0.7 0-1.3 0-2 0.1-1.6 0.4-3.2 2.4-3.2 1.9 0 1.6 1.8 1.7 3 0.6 6.8 1.3 13.5 1.7 20.3C514.3 351.6 514.6 358.7 514.9 365.9 515 365.9 515 365.9 514.9 365.9z"/><path class="st1" d="M517 390.4c-0.7 2.6-1.3 5.3-2.1 7.9 -0.3 1-1.1 1.7-2.2 1.6 -1.5-0.1-2-1.3-1.8-2.5 0.5-3.7 1.3-7.4 1.2-11.2 0-1 0.7-1.9 1.8-2 1.2-0.2 1.8 0.6 2.1 1.6C516.4 387.3 516.7 388.7 517 390.4z"/><path class="st0" d="M312.7 598c3 30.7-9.7 54.9-26.8 77.8 -1.2-0.1-0.7-1.8-0.6-2.9 1.1-8.6 0.6-17.2 0.9-25.8 0.3-6.8 3.4-12.5 7.2-17.8C300.3 619.7 306.7 609.8 312.7 598z"/><path class="st0" d="M210.8 598.8c-1.8-19.5-9-38.9-1.1-58.4C212.5 559.8 213.3 579.3 210.8 598.8z"/><path class="st0" d="M913.1 493.3c0 9.6-0.4 19.1 0.1 28.6 1 18.3-4.1 36-5.5 54 -2.2 27.4-10.4 53.9-12.1 81.4 -0.3 4.6-0.3 9.3-0.5 14 -0.1 1.4 0.4 3.4-1.9 3.3 -2.4-0.1-1.5-2.2-1.5-3.5 0.9-23.3 3.9-46.4 8.5-69.3 5.7-28.1 9.4-56.4 10.9-85.1 0.4-7.9 1.1-15.7 1.7-23.6C912.9 493.2 913 493.3 913.1 493.3z"/><path class="st0" d="M920.4 591.8c-4.3 20.1-4.1 40.9-10.8 60.6 -1.2-1.6-1.9-3.4-1.5-5.5 3.2-17.6 5.2-35.5 10.1-52.7 0.3-0.9 0.7-1.7 1.1-2.6C919.6 591.6 920 591.7 920.4 591.8z"/><path class="st0" d="M98.2 610.7c2.3 9.5 4.7 18.9 7 28.4 -3.9-2.5-4.4-6.8-5.4-10.7C98.3 622.6 97.4 616.7 98.2 610.7z"/><path class="st0" d="M283.1 488.4c0 20.2 0 40.4 0 60.7 -0.5 0-0.9 0-1.4 0C279.8 528.9 281.3 508.7 283.1 488.4z"/><path class="st1" d="M228.9 482c0.4 0.3 0.8 0.7 1.1 1C229.4 483 228.8 482.9 228.9 482z"/><path class="st0" d="M604.7 628.5c1.4 9.1 2.5 18.3 4.3 27.3 1.5 7.3 0.6 14.6 0.8 21.8 0.1 2.6-0.9 3.6-3.4 3.8 -2.7 0.2-5.4 0.1-7.9-0.6 -4.9-1.3-6.4-3.9-5.4-8.9 0.4-1.9 0.8-3.9 1.6-5.7C600.1 654.2 604.3 641.9 604.7 628.5z"/><path class="st2" d="M244.1 466.6c-0.3 4.4-0.6 8.7-0.9 13 -0.1 1.7-0.3 3.6-2.5 3.7 -2.2 0.1-1.9-2-2-3.4 -1.1-9.8-1.6-19.6-0.8-29.4 0.2-2 1-3.8 3.2-3.7 2.3 0.1 1.9 2.4 2 3.9C243.4 456.1 243.7 461.4 244.1 466.6z"/></svg>